<svg width="195" height="192" viewBox="0 0 195 192" fill="none" xmlns="http://www.w3.org/2000/svg">
<path d="M71.8569 190.451C70.0514 191.655 67.6442 191.053 66.5008 189.248C65.2971 187.442 65.8989 185.035 67.7044 183.891C67.7044 183.891 93.2211 167.943 93.2211 141.705V73.2188C93.2211 60.4605 86.4808 54.3822 79.3193 48.0632C69.9311 39.6379 59.8809 30.6709 59.8809 8.34383C59.8809 6.2375 61.6261 4.49225 63.7324 4.49225C65.8388 4.49225 67.584 6.2375 67.584 8.34383C67.584 27.3008 76.2501 35.004 84.3745 42.2858C92.86 49.8686 100.864 57.0302 100.864 73.2188V141.705C101.045 172.216 71.9772 190.391 71.917 190.451H71.8569Z" fill="url(#paint0_linear_279_12517)"/>
<path d="M41.2231 177.934C39.1168 178.235 37.1308 176.73 36.8299 174.624C36.529 172.517 38.0335 170.531 40.1398 170.231C48.4448 169.027 59.2172 163.43 67.2212 155.245C73.6004 148.746 78.2343 140.682 78.2343 132.016V95.2452C78.2343 93.199 78.2343 96.1479 78.2343 94.4026C78.2343 87.9633 78.3547 74.4226 55.9072 74.4226C25.215 74.4226 20.5811 50.0493 20.5811 35.5457C20.5811 33.4394 22.3263 31.6942 24.4326 31.6942C26.539 31.6942 28.2842 33.4394 28.2842 35.5457C28.2842 47.1606 31.8951 66.6592 55.7869 66.6592C85.9977 66.6592 85.9375 85.556 85.8773 94.523C85.8773 95.7266 85.8773 92.7176 85.8773 95.3655V132.136C85.8773 143.089 80.3407 153.019 72.6375 160.902C63.4298 170.17 50.9122 176.61 41.1629 177.994L41.2231 177.934Z" fill="url(#paint1_linear_279_12517)"/>
<path d="M38.4588 111.193C36.533 112.216 34.186 111.554 33.1629 109.688C32.1398 107.763 32.8018 105.416 34.6674 104.393C36.7738 103.189 38.7597 101.564 40.0235 99.217C41.167 97.231 41.829 94.7636 41.829 91.4536C41.829 89.3473 43.5742 87.6021 45.6805 87.6021C47.7869 87.6021 49.5321 89.3473 49.5321 91.4536C49.5321 96.0876 48.4489 99.9391 46.7036 103.008C44.6575 106.74 41.6484 109.327 38.3987 111.133L38.4588 111.193Z" fill="url(#paint2_linear_279_12517)"/>
<path d="M22.0878 159.097C19.9815 159.097 18.2363 157.291 18.2964 155.185C18.3566 153.079 20.1019 151.333 22.2082 151.394C22.2082 151.394 48.4471 152.056 62.5294 133.821C63.7932 132.136 66.2606 131.775 67.9457 133.099C69.6307 134.423 69.9918 136.83 68.6678 138.515C52.1783 159.939 22.148 159.157 22.0878 159.157V159.097Z" fill="url(#paint3_linear_279_12517)"/>
<path d="M152.8 171.314C154.846 171.795 156.23 173.901 155.689 175.948C155.147 177.994 153.101 179.378 151.055 178.836C141.426 176.61 129.269 169.629 120.362 160.18C112.9 152.236 107.544 142.487 107.544 132.016V74.2419C107.544 70.5107 107.544 74.7234 107.544 73.3994C107.544 64.1917 107.363 38.2537 137.634 38.2537C143.773 38.2537 148.467 37.1103 152.078 35.2447C155.628 33.3791 158.216 30.7913 160.082 27.8424C161.285 26.037 163.633 25.4954 165.438 26.6388C167.243 27.8425 167.785 30.1895 166.642 31.9949C164.054 36.0271 160.503 39.5777 155.689 42.1053C150.995 44.5727 145.037 46.0171 137.634 46.0171C115.187 46.0171 115.247 66.1777 115.307 73.3392C115.307 75.265 115.307 70.932 115.307 74.1817V132.016C115.307 140.26 119.761 148.204 126.019 154.884C133.783 163.189 144.375 169.268 152.74 171.253L152.8 171.314Z" fill="url(#paint4_linear_279_12517)"/>
<path d="M171.396 151.273C173.502 151.273 175.307 152.959 175.307 155.065C175.307 157.171 173.622 158.977 171.516 158.977C171.396 158.977 141.426 159.759 124.936 138.274C123.672 136.589 123.973 134.122 125.658 132.858C127.343 131.594 129.811 131.895 131.075 133.58C145.157 151.935 171.336 151.213 171.396 151.213V151.273Z" fill="url(#paint5_linear_279_12517)"/>
<path d="M173.559 46.5588C174.101 44.5126 176.267 43.2488 178.313 43.7905C180.36 44.3321 181.623 46.4986 181.082 48.5448C176.869 64.3121 160.56 66.8398 144.492 69.3072C129.808 71.5339 115.364 73.7605 115.364 87.6623C115.364 89.7687 113.619 91.5139 111.513 91.5139C109.406 91.5139 107.661 89.7687 107.661 87.6623C107.661 67.0805 125.354 64.3723 143.409 61.604C156.889 59.5579 170.731 57.3913 173.619 46.5588H173.559Z" fill="url(#paint6_linear_279_12517)"/>
<path d="M189.871 93.0785C191.917 92.4165 194.144 93.4997 194.806 95.4857C195.468 97.5318 194.385 99.7585 192.399 100.421C188.908 101.624 176.872 104.994 166.22 102.406C159.6 100.782 153.582 96.93 150.212 89.0463C149.369 87.0604 150.332 84.7735 152.258 83.931C154.184 83.0884 156.531 84.0513 157.373 85.9771C159.54 91.1527 163.572 93.6803 168.086 94.7635C176.752 96.93 186.982 94.0414 189.871 93.0183V93.0785Z" fill="url(#paint7_linear_279_12517)"/>
<path d="M112.058 4.4922C112.058 2.38587 113.804 0.640625 115.91 0.640625C118.016 0.640625 119.761 2.38587 119.761 4.4922C119.761 19.9587 115.669 25.9166 111.156 32.5365C106.341 39.5776 100.925 47.5215 100.925 73.2789C100.925 75.3853 99.1796 77.1305 97.0733 77.1305C94.9669 77.1305 93.2217 75.3853 93.2217 73.2789C93.2217 45.1143 99.3601 36.2075 104.837 28.1433C108.688 22.5465 112.118 17.4913 112.118 4.4922H112.058Z" fill="url(#paint8_linear_279_12517)"/>
<path d="M49.1669 45.4152C48.3845 43.369 49.4076 41.1423 51.3936 40.36C53.3795 39.5776 55.6664 40.6007 56.4488 42.5867C56.87 43.7903 59.4578 45.2948 64.1519 45.9568C68.3044 46.5586 73.7207 46.3781 80.5211 44.5726C82.5673 44.031 84.7338 45.2346 85.2754 47.341C85.817 49.3871 84.6134 51.5536 82.5071 52.0953C74.6234 54.2016 68.0637 54.4423 63.0085 53.7201C55.2452 52.5165 50.4307 48.7853 49.1669 45.4152Z" fill="url(#paint9_linear_279_12517)"/>
<path d="M72.3373 98.7355C72.7586 100.842 71.3143 102.888 69.2079 103.189C67.1016 103.61 65.0554 102.166 64.7545 100.06C63.5509 93.4998 56.0885 93.1387 48.0243 92.7175C38.8166 92.2962 29.1876 91.7546 23.2297 83.9311C21.9659 82.1858 22.2668 79.7786 24.0121 78.5148C25.7573 77.251 28.1646 77.5519 29.4284 79.2971C33.0994 84.232 40.9229 84.593 48.3854 85.0143C59.4586 85.5559 69.9903 86.0976 72.3373 98.7355Z" fill="url(#paint10_linear_279_12517)"/>
<path d="M103.333 33.9206C105.379 34.5826 106.463 36.7491 105.801 38.8554C105.139 40.9016 102.972 41.9848 100.866 41.3229C98.8197 40.6609 95.9912 38.4342 93.6442 35.2446C91.8387 32.8975 90.2138 29.9487 89.2509 26.6387C88.6491 24.5926 89.8528 22.4261 91.8989 21.8242C93.9451 21.2224 96.1116 22.4261 96.7134 24.4722C97.3754 26.6989 98.579 28.8654 99.8428 30.5505C101.227 32.5364 102.611 33.7401 103.333 33.9808V33.9206Z" fill="url(#paint11_linear_279_12517)"/>
<path d="M126.984 43.0081C127.526 45.0543 126.322 47.2208 124.216 47.7624C122.17 48.304 120.003 47.1004 119.462 44.9941C118.92 42.9479 119.582 38.976 121.086 35.305C122.29 32.4163 124.095 29.4072 126.382 27.4213C127.947 26.0371 130.414 26.1575 131.859 27.7222C133.243 29.2869 133.123 31.7543 131.558 33.1986C130.234 34.4023 129.09 36.328 128.248 38.314C127.285 40.5407 126.804 42.4063 126.984 43.0081Z" fill="url(#paint12_linear_279_12517)"/>
<path d="M129.449 100.481C128.847 102.527 126.68 103.73 124.634 103.129C122.588 102.527 121.384 100.36 121.986 98.3141C126.259 83.8707 137.573 83.2689 149.369 82.6069C155.868 82.2458 162.608 81.8847 167.363 78.6349C169.168 77.4313 171.575 77.9128 172.719 79.658C173.922 81.4634 173.441 83.8707 171.696 85.0141C165.136 89.4675 157.312 89.8888 149.73 90.31C140.703 90.8517 132.097 91.3331 129.389 100.481H129.449Z" fill="url(#paint13_linear_279_12517)"/>
<path d="M126.441 183.891C128.247 185.035 128.788 187.442 127.645 189.248C126.501 191.053 124.094 191.595 122.289 190.451C122.289 190.451 110.012 182.748 101.526 169.207C100.383 167.402 100.924 164.995 102.73 163.851C104.535 162.708 106.943 163.249 108.086 165.055C115.669 177.091 126.441 183.771 126.441 183.831V183.891Z" fill="url(#paint14_linear_279_12517)"/>
<path fill-rule="evenodd" clip-rule="evenodd" d="M24.3733 108.786C20.7624 112.457 16.309 114.503 11.6149 114.081C6.9208 113.66 2.8285 110.832 0 106.499C3.61085 102.828 8.06424 100.781 12.7583 101.203C17.4525 101.624 21.5448 104.513 24.3733 108.786Z" fill="url(#paint15_linear_279_12517)"/>
<path fill-rule="evenodd" clip-rule="evenodd" d="M31.5357 114.443C32.8597 118.114 32.7995 121.965 30.9941 125.035C29.1285 128.164 25.8185 130.03 21.9068 130.571C20.5828 126.9 20.643 123.049 22.4484 119.979C24.314 116.85 27.624 114.924 31.5357 114.443Z" fill="url(#paint16_linear_279_12517)"/>
<path fill-rule="evenodd" clip-rule="evenodd" d="M17.8104 81.5236C16.4864 85.1946 13.9588 88.0231 10.5285 89.2267C7.09817 90.4303 3.42714 89.648 0.117188 87.5417C1.44117 83.8706 3.96876 81.0421 7.39907 79.8385C10.8294 78.6951 14.5004 79.4173 17.8104 81.5236Z" fill="url(#paint17_linear_279_12517)"/>
<path fill-rule="evenodd" clip-rule="evenodd" d="M18.9587 76.1074C13.5424 74.0612 9.45014 70.33 7.76508 65.2146C6.08001 60.1595 7.22345 54.683 10.3529 49.8685C15.7691 51.9147 19.8614 55.6459 21.5465 60.7613C23.2316 65.8165 22.0881 71.2327 18.9587 76.1074Z" fill="url(#paint18_linear_279_12517)"/>
<path fill-rule="evenodd" clip-rule="evenodd" d="M43.5733 38.7353C39.9022 34.1615 38.2773 28.6249 39.5411 23.3891C40.7448 18.0932 44.5963 13.9407 49.8922 11.353C53.5633 15.9267 55.1882 21.4634 53.9244 26.6991C52.7207 31.995 48.809 36.2077 43.5733 38.7353Z" fill="url(#paint19_linear_279_12517)"/>
<path fill-rule="evenodd" clip-rule="evenodd" d="M29.1907 102.046C26.3622 102.046 23.8948 100.902 22.2699 98.9161C20.7052 96.87 20.284 94.1618 21.0061 91.4537C23.8346 91.4537 26.3021 92.5971 27.9269 94.5831C29.5518 96.6292 29.9129 99.3374 29.1907 102.046Z" fill="url(#paint20_linear_279_12517)"/>
<path fill-rule="evenodd" clip-rule="evenodd" d="M37.2549 53.9608C38.9399 56.1875 41.287 57.6318 43.8748 57.6318C46.4626 57.6318 48.8698 56.4282 50.6752 54.2617C48.9902 52.035 46.6431 50.5906 44.0553 50.5906C41.4676 50.5906 39.1205 51.7943 37.2549 53.9608Z" fill="url(#paint21_linear_279_12517)"/>
<path fill-rule="evenodd" clip-rule="evenodd" d="M44.2316 44.5726C41.6438 45.7762 38.8755 45.9568 36.4683 44.8133C34.061 43.6097 32.5565 41.3228 31.8945 38.5545C34.4823 37.3509 37.2506 37.1703 39.6579 38.3138C42.0651 39.5174 43.5696 41.7441 44.2316 44.5726Z" fill="url(#paint22_linear_279_12517)"/>
<path fill-rule="evenodd" clip-rule="evenodd" d="M91.7765 17.07C90.9941 12.3157 92.0172 7.74198 94.9661 4.49222C97.9149 1.18227 102.368 -0.262071 107.123 0.0388333C107.905 4.79312 106.882 9.36687 103.933 12.6166C100.984 15.9266 96.591 17.3709 91.7765 17.07Z" fill="url(#paint23_linear_279_12517)"/>
<path fill-rule="evenodd" clip-rule="evenodd" d="M87.0819 16.7693C88.7669 13.3992 89.0678 9.7883 87.6235 6.59872C86.1791 3.46931 83.1701 1.3028 79.5592 0.460266C77.8742 3.83039 77.5733 7.44125 79.0176 10.6308C80.462 13.7602 83.471 15.9268 87.0819 16.7693Z" fill="url(#paint24_linear_279_12517)"/>
<path fill-rule="evenodd" clip-rule="evenodd" d="M85.1556 21.8843C83.9519 19.7178 82.1465 18.2133 79.8596 17.792C77.6329 17.3708 75.3461 18.2133 73.4805 19.8382C74.6841 22.0047 76.4895 23.5092 78.7764 23.9305C81.0031 24.3518 83.2298 23.5092 85.1556 21.8843Z" fill="url(#paint25_linear_279_12517)"/>
<path fill-rule="evenodd" clip-rule="evenodd" d="M83.3536 69.9087C84.9785 67.6821 85.6405 65.0341 84.9785 62.5667C84.3165 60.0993 82.3907 58.1133 79.8029 57.03C78.178 59.2567 77.516 61.9047 78.178 64.3721C78.9002 66.8997 80.826 68.8255 83.3536 69.9087Z" fill="url(#paint26_linear_279_12517)"/>
<path fill-rule="evenodd" clip-rule="evenodd" d="M135.225 24.9536C137.632 20.8613 141.243 18.0328 145.516 17.431C149.849 16.8292 154.061 18.4541 157.552 21.7039C155.144 25.7962 151.534 28.6247 147.261 29.2265C142.928 29.8283 138.715 28.1432 135.225 24.9536Z" fill="url(#paint27_linear_279_12517)"/>
<path fill-rule="evenodd" clip-rule="evenodd" d="M132.397 23.3288C134.744 19.8985 135.647 16.0469 134.504 12.3759C133.36 8.70485 130.532 5.99671 126.74 4.43201C124.393 7.86232 123.49 11.7139 124.634 15.3849C125.717 19.056 128.546 21.7641 132.397 23.3288Z" fill="url(#paint28_linear_279_12517)"/>
<path fill-rule="evenodd" clip-rule="evenodd" d="M146.599 54.9238C144.914 51.9147 142.326 49.688 139.196 49.1464C136.067 48.6048 132.877 49.688 130.229 51.9749C131.915 54.9839 134.502 57.2106 137.632 57.7523C140.821 58.3541 143.951 57.2106 146.599 54.9238Z" fill="url(#paint29_linear_279_12517)"/>
<path fill-rule="evenodd" clip-rule="evenodd" d="M163.273 51.0722C165.981 50.2297 168.028 48.5446 168.99 46.1374C169.953 43.7301 169.532 41.0822 168.148 38.6147C165.44 39.4573 163.394 41.1423 162.491 43.5496C161.468 45.9568 161.889 48.665 163.273 51.0722Z" fill="url(#paint30_linear_279_12517)"/>
<path fill-rule="evenodd" clip-rule="evenodd" d="M177.295 78.1538C175.129 74.0615 174.527 69.6081 176.212 65.576C177.897 61.604 181.508 58.8959 185.961 57.6321C188.128 61.7244 188.73 66.1778 187.045 70.2099C185.36 74.242 181.749 76.9501 177.295 78.1538Z" fill="url(#paint31_linear_279_12517)"/>
<path fill-rule="evenodd" clip-rule="evenodd" d="M179.038 81.584C179.7 84.2922 181.265 86.5189 183.552 87.6021C185.899 88.6854 188.607 88.5048 191.074 87.241C190.412 84.5329 188.848 82.3062 186.561 81.2229C184.274 80.0795 181.566 80.3202 179.038 81.584Z" fill="url(#paint32_linear_279_12517)"/>
<path fill-rule="evenodd" clip-rule="evenodd" d="M181.324 107.522C182.046 109.688 183.491 111.373 185.537 112.095C187.583 112.818 189.75 112.457 191.675 111.253C190.953 109.086 189.509 107.401 187.463 106.679C185.477 105.957 183.31 106.318 181.324 107.522Z" fill="url(#paint33_linear_279_12517)"/>
<path fill-rule="evenodd" clip-rule="evenodd" d="M152.797 77.3111C153.098 74.6632 154.301 72.3763 156.408 71.1125C158.454 69.8487 161.042 69.7283 163.569 70.5709C163.268 73.2188 162.065 75.5057 159.958 76.7695C157.852 78.0333 155.324 78.1537 152.797 77.3111Z" fill="url(#paint34_linear_279_12517)"/>
<path fill-rule="evenodd" clip-rule="evenodd" d="M172.661 108.966C170.133 112.938 169.351 117.452 170.735 121.544C172.119 125.636 175.55 128.585 180.003 130.21C182.531 126.238 183.313 121.725 181.929 117.632C180.485 113.48 177.114 110.531 172.661 108.966Z" fill="url(#paint35_linear_279_12517)"/>
<path fill-rule="evenodd" clip-rule="evenodd" d="M166.583 107.883C162.13 106.619 157.677 106.98 154.126 109.388C150.575 111.855 148.71 115.887 148.349 120.461C152.802 121.725 157.255 121.364 160.806 118.956C164.357 116.549 166.222 112.517 166.583 107.883Z" fill="url(#paint36_linear_279_12517)"/>
<path fill-rule="evenodd" clip-rule="evenodd" d="M38.7541 115.346C41.4021 115.105 43.8695 115.887 45.4944 117.693C47.1794 119.498 47.721 121.965 47.4201 124.613C44.7722 124.854 42.3048 124.072 40.6799 122.266C38.9948 120.521 38.393 117.994 38.7541 115.346Z" fill="url(#paint37_linear_279_12517)"/>
<path fill-rule="evenodd" clip-rule="evenodd" d="M64.8123 115.947C64.0901 112.697 62.2245 110.049 59.5164 108.725C56.8082 107.401 53.4983 107.582 50.4893 109.087C51.2114 112.336 53.077 114.984 55.7852 116.308C58.6137 117.572 61.8033 117.452 64.8123 115.947ZM129.326 115.947C130.048 112.697 131.914 110.049 134.622 108.725C137.33 107.401 140.64 107.582 143.649 109.087C142.927 112.336 141.061 114.984 138.293 116.308C135.525 117.572 132.335 117.452 129.326 115.947Z" fill="url(#paint38_linear_279_12517)"/>
<defs>
<linearGradient id="paint0_linear_279_12517" x1="59.8207" y1="97.7726" x2="100.804" y2="97.7726" gradientUnits="userSpaceOnUse">
<stop stop-color="#009447"/>
<stop offset="0.97" stop-color="#AAD037"/>
</linearGradient>
<linearGradient id="paint1_linear_279_12517" x1="20.6412" y1="104.874" x2="85.9977" y2="104.874" gradientUnits="userSpaceOnUse">
<stop stop-color="#009447"/>
<stop offset="0.97" stop-color="#AAD037"/>
</linearGradient>
<linearGradient id="paint2_linear_279_12517" x1="32.6815" y1="99.6984" x2="49.5923" y2="99.6984" gradientUnits="userSpaceOnUse">
<stop stop-color="#009447"/>
<stop offset="0.97" stop-color="#AAD037"/>
</linearGradient>
<linearGradient id="paint3_linear_279_12517" x1="18.2964" y1="145.676" x2="69.4502" y2="145.676" gradientUnits="userSpaceOnUse">
<stop stop-color="#009447"/>
<stop offset="0.97" stop-color="#AAD037"/>
</linearGradient>
<linearGradient id="paint4_linear_279_12517" x1="107.544" y1="102.527" x2="167.304" y2="102.527" gradientUnits="userSpaceOnUse">
<stop stop-color="#009447"/>
<stop offset="0.97" stop-color="#AAD037"/>
</linearGradient>
<linearGradient id="paint5_linear_279_12517" x1="124.154" y1="145.556" x2="175.307" y2="145.556" gradientUnits="userSpaceOnUse">
<stop stop-color="#009447"/>
<stop offset="0.97" stop-color="#AAD037"/>
</linearGradient>
<linearGradient id="paint6_linear_279_12517" x1="107.601" y1="67.6221" x2="181.202" y2="67.6221" gradientUnits="userSpaceOnUse">
<stop stop-color="#009447"/>
<stop offset="0.97" stop-color="#AAD037"/>
</linearGradient>
<linearGradient id="paint7_linear_279_12517" x1="149.911" y1="93.4997" x2="194.986" y2="93.4997" gradientUnits="userSpaceOnUse">
<stop stop-color="#009447"/>
<stop offset="0.97" stop-color="#AAD037"/>
</linearGradient>
<linearGradient id="paint8_linear_279_12517" x1="93.1615" y1="38.9157" x2="119.761" y2="38.9157" gradientUnits="userSpaceOnUse">
<stop stop-color="#009447"/>
<stop offset="0.97" stop-color="#AAD037"/>
</linearGradient>
<linearGradient id="paint9_linear_279_12517" x1="48.866" y1="47.1002" x2="85.3958" y2="47.1002" gradientUnits="userSpaceOnUse">
<stop stop-color="#009447"/>
<stop offset="0.97" stop-color="#AAD037"/>
</linearGradient>
<linearGradient id="paint10_linear_279_12517" x1="22.4474" y1="90.4908" x2="72.3975" y2="90.4908" gradientUnits="userSpaceOnUse">
<stop stop-color="#009447"/>
<stop offset="0.97" stop-color="#AAD037"/>
</linearGradient>
<linearGradient id="paint11_linear_279_12517" x1="89.1306" y1="31.5735" x2="105.981" y2="31.5735" gradientUnits="userSpaceOnUse">
<stop stop-color="#009447"/>
<stop offset="0.97" stop-color="#AAD037"/>
</linearGradient>
<linearGradient id="paint12_linear_279_12517" x1="119.281" y1="37.1706" x2="132.822" y2="37.1706" gradientUnits="userSpaceOnUse">
<stop stop-color="#009447"/>
<stop offset="0.97" stop-color="#AAD037"/>
</linearGradient>
<linearGradient id="paint13_linear_279_12517" x1="121.866" y1="90.6109" x2="173.441" y2="90.6109" gradientUnits="userSpaceOnUse">
<stop stop-color="#009447"/>
<stop offset="0.97" stop-color="#AAD037"/>
</linearGradient>
<linearGradient id="paint14_linear_279_12517" x1="100.924" y1="177.211" x2="128.247" y2="177.211" gradientUnits="userSpaceOnUse">
<stop stop-color="#009447"/>
<stop offset="0.97" stop-color="#AAD037"/>
</linearGradient>
<linearGradient id="paint15_linear_279_12517" x1="0" y1="107.642" x2="24.3733" y2="107.642" gradientUnits="userSpaceOnUse">
<stop stop-color="#009447"/>
<stop offset="0.97" stop-color="#AAD037"/>
</linearGradient>
<linearGradient id="paint16_linear_279_12517" x1="21.0041" y1="122.567" x2="32.4986" y2="122.567" gradientUnits="userSpaceOnUse">
<stop stop-color="#009447"/>
<stop offset="0.97" stop-color="#AAD037"/>
</linearGradient>
<linearGradient id="paint17_linear_279_12517" x1="0.117188" y1="84.5326" x2="17.8104" y2="84.5326" gradientUnits="userSpaceOnUse">
<stop stop-color="#009447"/>
<stop offset="0.97" stop-color="#AAD037"/>
</linearGradient>
<linearGradient id="paint18_linear_279_12517" x1="6.98273" y1="63.0481" x2="22.3288" y2="63.0481" gradientUnits="userSpaceOnUse">
<stop stop-color="#009447"/>
<stop offset="0.97" stop-color="#AAD037"/>
</linearGradient>
<linearGradient id="paint19_linear_279_12517" x1="39.1199" y1="25.0742" x2="54.3456" y2="25.0742" gradientUnits="userSpaceOnUse">
<stop stop-color="#009447"/>
<stop offset="0.97" stop-color="#AAD037"/>
</linearGradient>
<linearGradient id="paint20_linear_279_12517" x1="20.7052" y1="96.7496" x2="29.5518" y2="96.7496" gradientUnits="userSpaceOnUse">
<stop stop-color="#009447"/>
<stop offset="0.97" stop-color="#AAD037"/>
</linearGradient>
<linearGradient id="paint21_linear_279_12517" x1="37.2549" y1="54.0811" x2="50.6752" y2="54.0811" gradientUnits="userSpaceOnUse">
<stop stop-color="#009447"/>
<stop offset="0.97" stop-color="#AAD037"/>
</linearGradient>
<linearGradient id="paint22_linear_279_12517" x1="31.8945" y1="41.5635" x2="44.2316" y2="41.5635" gradientUnits="userSpaceOnUse">
<stop stop-color="#009447"/>
<stop offset="0.97" stop-color="#AAD037"/>
</linearGradient>
<linearGradient id="paint23_linear_279_12517" x1="91.5358" y1="8.52434" x2="107.424" y2="8.52434" gradientUnits="userSpaceOnUse">
<stop stop-color="#009447"/>
<stop offset="0.97" stop-color="#AAD037"/>
</linearGradient>
<linearGradient id="paint24_linear_279_12517" x1="78.1149" y1="8.64487" x2="88.5262" y2="8.64487" gradientUnits="userSpaceOnUse">
<stop stop-color="#009447"/>
<stop offset="0.97" stop-color="#AAD037"/>
</linearGradient>
<linearGradient id="paint25_linear_279_12517" x1="73.4203" y1="20.8613" x2="85.1556" y2="20.8613" gradientUnits="userSpaceOnUse">
<stop stop-color="#009447"/>
<stop offset="0.97" stop-color="#AAD037"/>
</linearGradient>
<linearGradient id="paint26_linear_279_12517" x1="77.9373" y1="63.4694" x2="85.2192" y2="63.4694" gradientUnits="userSpaceOnUse">
<stop stop-color="#009447"/>
<stop offset="0.97" stop-color="#AAD037"/>
</linearGradient>
<linearGradient id="paint27_linear_279_12517" x1="135.225" y1="23.3287" x2="157.612" y2="23.3287" gradientUnits="userSpaceOnUse">
<stop stop-color="#009447"/>
<stop offset="0.97" stop-color="#AAD037"/>
</linearGradient>
<linearGradient id="paint28_linear_279_12517" x1="124.092" y1="13.8804" x2="134.985" y2="13.8804" gradientUnits="userSpaceOnUse">
<stop stop-color="#009447"/>
<stop offset="0.97" stop-color="#AAD037"/>
</linearGradient>
<linearGradient id="paint29_linear_279_12517" x1="130.229" y1="53.4794" x2="146.599" y2="53.4794" gradientUnits="userSpaceOnUse">
<stop stop-color="#009447"/>
<stop offset="0.97" stop-color="#AAD037"/>
</linearGradient>
<linearGradient id="paint30_linear_279_12517" x1="161.889" y1="44.8736" x2="169.472" y2="44.8736" gradientUnits="userSpaceOnUse">
<stop stop-color="#009447"/>
<stop offset="0.97" stop-color="#AAD037"/>
</linearGradient>
<linearGradient id="paint31_linear_279_12517" x1="175.249" y1="67.923" x2="188.068" y2="67.923" gradientUnits="userSpaceOnUse">
<stop stop-color="#009447"/>
<stop offset="0.97" stop-color="#AAD037"/>
</linearGradient>
<linearGradient id="paint32_linear_279_12517" x1="179.038" y1="84.4125" x2="191.074" y2="84.4125" gradientUnits="userSpaceOnUse">
<stop stop-color="#009447"/>
<stop offset="0.97" stop-color="#AAD037"/>
</linearGradient>
<linearGradient id="paint33_linear_279_12517" x1="181.324" y1="109.387" x2="191.675" y2="109.387" gradientUnits="userSpaceOnUse">
<stop stop-color="#009447"/>
<stop offset="0.97" stop-color="#AAD037"/>
</linearGradient>
<linearGradient id="paint34_linear_279_12517" x1="152.797" y1="73.941" x2="163.509" y2="73.941" gradientUnits="userSpaceOnUse">
<stop stop-color="#009447"/>
<stop offset="0.97" stop-color="#AAD037"/>
</linearGradient>
<linearGradient id="paint35_linear_279_12517" x1="170.073" y1="119.618" x2="182.591" y2="119.618" gradientUnits="userSpaceOnUse">
<stop stop-color="#009447"/>
<stop offset="0.97" stop-color="#AAD037"/>
</linearGradient>
<linearGradient id="paint36_linear_279_12517" x1="148.349" y1="114.202" x2="166.583" y2="114.202" gradientUnits="userSpaceOnUse">
<stop stop-color="#009447"/>
<stop offset="0.97" stop-color="#AAD037"/>
</linearGradient>
<linearGradient id="paint37_linear_279_12517" x1="38.6939" y1="119.98" x2="47.4803" y2="119.98" gradientUnits="userSpaceOnUse">
<stop stop-color="#009447"/>
<stop offset="0.97" stop-color="#AAD037"/>
</linearGradient>
<linearGradient id="paint38_linear_279_12517" x1="50.4893" y1="112.457" x2="143.709" y2="112.457" gradientUnits="userSpaceOnUse">
<stop stop-color="#009447"/>
<stop offset="0.97" stop-color="#AAD037"/>
</linearGradient>
</defs>
</svg>
