<svg width="502" height="249" viewBox="0 0 502 249" fill="none" xmlns="http://www.w3.org/2000/svg">
<path d="M236.957 172.637L186.66 128.537L197.639 118.907L236.957 153.394L370.954 35.8455L499.926 148.97L488.947 158.6L370.954 55.1051L236.957 172.637Z" fill="#FF4342"/>
<path d="M177.834 261.823L166.855 252.193L371.613 72.6123L456.166 146.776L403.599 192.9L429.708 215.784L459.754 189.429L510.343 233.801L499.364 243.431L459.754 208.672L429.708 235.043L381.661 192.9L434.228 146.776L371.613 91.8549L177.834 261.823Z" fill="#37DBCF"/>
<path d="M238.024 136.755L172.228 79.0607L183.207 69.4309L238.024 117.512L335.34 32.1536L346.319 41.7834L238.024 136.755Z" fill="url(#paint0_linear_53_3425)"/>
<path d="M134.365 265.226L123.386 255.596L205.65 183.44L142.551 128.111L164.489 108.869L125.229 74.4327L10.9789 174.627L0 165.014L125.229 55.1731L186.427 108.869L164.489 128.111L227.588 183.44L134.365 265.226Z" fill="#37DBCF"/>
<path d="M22.462 128.128L11.4832 118.499L125.209 18.7295L172.248 59.988L161.269 69.6178L125.209 37.9891L22.462 128.128Z" fill="#FFAA2C"/>
<path d="M109.323 261.925L41.5101 202.462L90.9926 159.06L145.712 205.354L171.22 182.981L95.163 117.971L127.983 89.1838L146.954 105.823L135.975 115.453L127.983 108.443L117.257 117.852L193.294 182.845L145.906 224.427L91.1866 178.132L63.4679 202.462L120.302 252.312L109.323 261.925Z" fill="url(#paint1_linear_53_3425)"/>
<path d="M91.3168 192.913L80.344 202.537L120.683 237.919L131.655 228.295L91.3168 192.913Z" fill="url(#paint2_linear_53_3425)"/>
<path d="M11.8518 211.241L0.872925 201.611L89.5573 123.841L156.905 182.913L145.926 192.526L89.5573 143.084L11.8518 211.241Z" fill="#FFAA2C"/>
<path d="M73.3995 261.823L35.8851 228.918L19.378 243.397L8.41858 233.767L35.8851 209.659L84.3783 252.193L73.3995 261.823Z" fill="#37DBCF"/>
<path d="M490.189 271.997L459.91 245.439L431.861 270.041L308.863 162.139L371.031 107.61L417.371 148.273L373.592 186.673L362.613 177.043L395.433 148.273L371.031 126.87L330.801 162.139L431.861 250.781L459.91 226.179L501.168 262.368L490.189 271.997Z" fill="url(#paint3_linear_53_3425)"/>
<path d="M502.021 207.175L464.196 173.998L431.085 203.04L420.106 193.41L464.196 154.738L513 197.562L502.021 207.175Z" fill="url(#paint4_linear_53_3425)"/>
<path d="M325.758 265.821L314.779 256.191L344.593 230.058L299.785 190.756L216.784 263.575L205.805 253.946L299.785 171.514L366.531 230.058L325.758 265.821Z" fill="#FFAA2C"/>
<path d="M373.871 234.149L362.898 243.774L385.077 263.227L396.05 253.603L373.871 234.149Z" fill="#37DBCF"/>
<path d="M289.892 263.235L278.933 253.622L307.292 228.748L300.212 222.538L256.199 261.159L245.22 251.53L300.212 203.295L329.23 228.748L289.892 263.235Z" fill="url(#paint5_linear_53_3425)"/>
<path d="M404.996 31.8455L394.023 41.47L490.885 126.43L501.858 116.806L404.996 31.8455Z" fill="#1DCDC3"/>
<path d="M387.092 33.3103L371.148 19.3249L355.746 32.8339L344.767 23.2211L371.148 0.0822754L398.071 23.6805L387.092 33.3103Z" fill="url(#paint6_linear_53_3425)"/>
<path d="M80.3445 23.693L10.3383 85.0972L21.311 94.7216L91.3172 33.3175L80.3445 23.693Z" fill="url(#paint7_linear_53_3425)"/>
<path d="M427.207 14.2889L416.234 23.9133L491.987 90.3583L502.96 80.7338L427.207 14.2889Z" fill="#1DCDC3"/>
<path d="M173.55 24.9285L162.577 34.553L238.865 101.467L249.838 91.8426L173.55 24.9285Z" fill="#FF4342"/>
<path d="M257.072 80.2006L196.785 27.3216L207.764 17.6918L257.072 60.9579L311.85 12.9109L322.81 22.5407L257.072 80.2006Z" fill="#FFAA2C"/>
<path d="M143.831 3.91156e-05L132.858 9.62451L149.152 23.9169L160.125 14.2924L143.831 3.91156e-05Z" fill="url(#paint8_linear_53_3425)"/>
<path d="M265.796 14.3112L245.702 31.936L256.675 41.5605L276.768 23.9357L265.796 14.3112Z" fill="url(#paint9_linear_53_3425)"/>
<path d="M472.044 19.6985L461.071 29.323L485.787 51.0021L496.76 41.3777L472.044 19.6985Z" fill="#FF4342"/>
<path d="M49.1735 14.2899L11.3927 47.4399L22.3674 57.0627L60.1482 23.9127L49.1735 14.2899Z" fill="url(#paint10_linear_53_3425)"/>
<path d="M105.593 1.72466L91.2596 14.2966L102.232 23.9211L116.566 11.3491L105.593 1.72466Z" fill="url(#paint11_linear_53_3425)"/>
<path d="M369.829 138.185L343.878 160.947L354.851 170.571L380.801 147.809L369.829 138.185Z" fill="#FFAA2C"/>
<defs>
<linearGradient id="paint0_linear_53_3425" x1="172.228" y1="84.4541" x2="346.319" y2="84.4541" gradientUnits="userSpaceOnUse">
<stop stop-color="#FDD259"/>
<stop offset="1" stop-color="#FD8C28"/>
</linearGradient>
<linearGradient id="paint1_linear_53_3425" x1="41.5101" y1="175.563" x2="193.294" y2="175.563" gradientUnits="userSpaceOnUse">
<stop offset="0.02" stop-color="#EF4860"/>
<stop offset="1" stop-color="#DD1047"/>
</linearGradient>
<linearGradient id="paint2_linear_53_3425" x1="80.3532" y1="215.414" x2="131.659" y2="215.414" gradientUnits="userSpaceOnUse">
<stop stop-color="#7CEEE2"/>
<stop offset="1" stop-color="#64A2E2"/>
</linearGradient>
<linearGradient id="paint3_linear_53_3425" x1="308.863" y1="189.804" x2="501.168" y2="189.804" gradientUnits="userSpaceOnUse">
<stop offset="0.02" stop-color="#EF4860"/>
<stop offset="1" stop-color="#DD1047"/>
</linearGradient>
<linearGradient id="paint4_linear_53_3425" x1="420.106" y1="180.956" x2="513" y2="180.956" gradientUnits="userSpaceOnUse">
<stop stop-color="#7CEEE2"/>
<stop offset="1" stop-color="#64A2E2"/>
</linearGradient>
<linearGradient id="paint5_linear_53_3425" x1="245.22" y1="233.274" x2="329.23" y2="233.274" gradientUnits="userSpaceOnUse">
<stop stop-color="#FDD259"/>
<stop offset="1" stop-color="#FD8C28"/>
</linearGradient>
<linearGradient id="paint6_linear_53_3425" x1="344.767" y1="16.6878" x2="398.071" y2="16.6878" gradientUnits="userSpaceOnUse">
<stop offset="0.02" stop-color="#EF4860"/>
<stop offset="1" stop-color="#DD1047"/>
</linearGradient>
<linearGradient id="paint7_linear_53_3425" x1="10.3489" y1="59.2129" x2="91.3132" y2="59.2129" gradientUnits="userSpaceOnUse">
<stop stop-color="#7CEEE2"/>
<stop offset="1" stop-color="#64A2E2"/>
</linearGradient>
<linearGradient id="paint8_linear_53_3425" x1="132.857" y1="11.9608" x2="160.13" y2="11.9608" gradientUnits="userSpaceOnUse">
<stop stop-color="#379278"/>
<stop offset="1" stop-color="#1E514D"/>
</linearGradient>
<linearGradient id="paint9_linear_53_3425" x1="245.708" y1="27.9025" x2="276.782" y2="27.9025" gradientUnits="userSpaceOnUse">
<stop stop-color="#7CEEE2"/>
<stop offset="1" stop-color="#64A2E2"/>
</linearGradient>
<linearGradient id="paint10_linear_53_3425" x1="11.3715" y1="35.6831" x2="60.1363" y2="35.6831" gradientUnits="userSpaceOnUse">
<stop stop-color="#FDD259"/>
<stop offset="1" stop-color="#FD8C28"/>
</linearGradient>
<linearGradient id="paint11_linear_53_3425" x1="91.266" y1="12.8157" x2="116.579" y2="12.8157" gradientUnits="userSpaceOnUse">
<stop stop-color="#379278"/>
<stop offset="1" stop-color="#1E514D"/>
</linearGradient>
</defs>
</svg>
