<svg width="140" height="167" viewBox="0 0 140 167" fill="none" xmlns="http://www.w3.org/2000/svg">
<path d="M116.04 53.5813V80.3741L139.25 66.9777L116.04 53.5813Z" fill="#FCB85E"/>
<path d="M116 27V53.7928L139.211 40.3964L116 27Z" fill="#FF6464"/>
<path d="M116.04 80.3742L139.25 93.7706V66.9778L116.04 80.3742Z" fill="#FFAA2C"/>
<path d="M116 53.7929L139.211 67.1893V40.3965L116 53.7929Z" fill="#FF4342"/>
<path d="M116.04 107.163L139.25 120.559V93.7705L116.04 107.163Z" fill="#FFAA2C"/>
<path d="M116.04 0V26.7928L139.25 13.3964L116.04 0Z" fill="#0D5568"/>
<path d="M116.04 26.7926L139.25 40.1847V13.3962L116.04 26.7926Z" fill="#044257"/>
<path d="M116.04 80.374L92.8335 93.7704L116.04 107.162V80.374Z" fill="#FF6464"/>
<path d="M139.25 93.7704L116.04 80.374V107.162L139.25 93.7704Z" fill="#FF4342"/>
<path d="M46.4166 13.5054L23.2061 26.8974L46.4166 40.2938V13.5054Z" fill="#044257"/>
<path d="M69.6229 26.8974L46.4167 13.5054V40.2938L69.6229 26.8974Z" fill="#0D5568"/>
<path d="M0 66.9778V93.7706L23.2062 80.3742L0 66.9778Z" fill="#FF4342"/>
<path d="M0 66.9777L23.2062 80.3741V53.5813L0 66.9777Z" fill="#FF6464"/>
<path d="M69.6228 107.163L92.8333 120.559V93.7705L69.6228 107.163Z" fill="#0D5568"/>
<path d="M92.8333 120.559L69.6228 107.163V133.955L92.8333 120.559Z" fill="#044257"/>
<path d="M92.8335 66.9777L116.04 80.3741V53.5813L92.8335 66.9777Z" fill="#0D5568"/>
<path d="M92.8335 93.7706L116.04 80.3742L92.8335 66.9778V93.7706Z" fill="#044257"/>
<path d="M116.04 107.163L92.8335 120.559L116.04 133.955V107.163Z" fill="#1DCDC3"/>
<path d="M92.8335 120.559L116.04 107.163L92.8335 93.7705V120.559Z" fill="#37DBCF"/>
<path d="M46.4166 40.1848L23.2061 53.5812L46.4166 66.9776V40.1848Z" fill="#1DCDC3"/>
<path d="M23.2061 53.5814L46.4166 40.185L23.2061 26.793V53.5814Z" fill="#37DBCF"/>
<path d="M92.8335 40.185L116.04 53.5814V26.793L92.8335 40.185Z" fill="#37DBCF"/>
<path d="M92.8335 66.9776L116.04 53.5812L92.8335 40.1848V66.9776Z" fill="#1DCDC3"/>
<path d="M92.8333 40.1848L69.6228 53.5812L92.8333 66.9776V40.1848Z" fill="#FFAA2C"/>
<path d="M92.4166 66.3918L69.2061 79.7882L92.4166 93.1846V66.3918Z" fill="#FFAA2C"/>
<path d="M69.6228 53.5814L92.8333 40.185L69.6228 26.793V53.5814Z" fill="#FCB85E"/>
<path d="M69.2061 79.7884L92.4166 66.392L69.2061 53V79.7884Z" fill="#FCB85E"/>
<path d="M70 54L46 40.4978L70 27V54Z" fill="#37DBCF"/>
<path d="M46.4166 66.9778L23.2061 80.3742L46.4166 93.7706V66.9778Z" fill="#FFAA2C"/>
<path d="M23.2061 80.3741L46.4166 66.9777L23.2061 53.5813V80.3741Z" fill="#FCB85E"/>
<path d="M69.6229 53.5813L46.4167 66.9777L69.6229 80.3741V53.5813Z" fill="#FF4342"/>
<path d="M69.2062 79.7883L46 93.1847L69.2062 106.581V79.7883Z" fill="#FF4342"/>
<path d="M46.4167 66.9776L69.6229 53.5812L46.4167 40.1848V66.9776Z" fill="#FF6464"/>
<path d="M46 93.1846L69.2062 79.7882L46 66.3918V93.1846Z" fill="#FF6464"/>
</svg>
