<svg width="164" height="171" viewBox="0 0 164 171" fill="none" xmlns="http://www.w3.org/2000/svg">
<mask id="mask0_53_3456" style="mask-type:alpha" maskUnits="userSpaceOnUse" x="0" y="0" width="164" height="171">
<rect x="0.0178223" width="163.366" height="171" fill="#D9D9D9"/>
</mask>
<g mask="url(#mask0_53_3456)">
<path d="M191.99 66.777L191.688 66.3249L181.445 55.6749C180.841 54.7732 181.239 53.4545 182.344 53.123C183.897 52.6507 185.375 51.8193 186.643 50.6162C190.913 46.5521 191.104 39.8632 187.026 35.8042C183.139 31.5518 176.441 31.4438 172.176 35.5229C170.915 36.7285 170.016 38.1653 169.478 39.695C169.093 40.7801 167.756 41.1166 166.882 40.4761L156.677 29.7835L156.234 29.4645C155.592 28.8491 154.56 28.8541 153.893 29.4971L142.054 40.8278C141.319 40.8755 140.597 40.4686 140.372 39.6874C139.366 36.2161 136.473 33.2196 131.564 32.2726C131.061 32.1747 130.527 32.1697 130.019 32.2601C119.97 34.0234 117.382 44.4498 122.781 50.1063C123.924 51.3044 125.301 52.1509 126.776 52.6482C127.572 52.917 127.927 53.7258 127.783 54.4843L115.876 65.8828C115.184 66.5434 115.149 67.6134 115.791 68.274L126.557 79.4741L126.749 79.6223L126.814 79.6901C127.728 80.6446 129.324 80.1397 129.659 78.8285C130.646 75.0433 133.782 71.6649 139.016 70.6376C139.995 70.5673 140.979 70.6301 141.938 70.831C144.141 71.4313 145.89 72.4813 147.192 73.805C148.456 75.1638 149.432 76.9547 149.928 79.1802C150.092 80.1397 150.115 81.1218 149.999 82.1014C148.73 87.2731 145.206 90.2471 141.372 91.0559C140.048 91.3372 139.469 92.9046 140.385 93.854L140.451 93.9218L140.591 94.1228L151.318 105.355C151.955 106.024 153.03 106.034 153.717 105.378L165.662 94.0148C166.429 93.9068 167.222 94.3011 167.456 95.1049C167.892 96.6044 168.677 98.011 169.825 99.2041C175.245 104.843 185.793 102.731 188.013 92.794C188.124 92.2867 188.146 91.7542 188.066 91.2518C187.338 86.3162 184.466 83.2945 181.04 82.1365C180.27 81.8753 179.884 81.1369 179.975 80.4084L191.847 69.118C192.516 68.4825 192.567 67.4552 191.985 66.782L191.99 66.777Z" fill="#AAD4C8"/>
<path d="M137.593 170.898H137.684L137.931 170.933L153.478 171.001C154.404 171.006 155.152 170.235 155.157 169.288L155.225 152.821C155.678 152.198 156.508 151.896 157.254 152.288C158.636 153.009 160.199 153.424 161.855 153.424C169.684 153.434 175.466 144.381 169.823 135.894C169.538 135.467 169.163 135.08 168.748 134.786C164.675 131.893 160.508 131.865 157.296 133.53C156.571 133.902 155.776 133.661 155.31 133.096L155.376 116.731C155.383 115.812 154.673 115.059 153.785 115.018L153.246 114.915L138.454 114.905C137.387 114.717 136.707 113.519 137.236 112.492C137.968 111.047 138.391 109.407 138.399 107.664C138.424 101.774 133.724 97.0014 127.962 97.122C122.195 96.9688 117.475 101.719 117.467 107.611C117.472 109.354 117.878 110.997 118.615 112.446C119.134 113.474 118.447 114.672 117.377 114.855L102.58 114.787L102.046 114.885C101.412 114.913 100.878 115.312 100.614 115.872C100.704 116.129 100.76 116.407 100.76 116.694L100.732 133.591L99.8058 133.407C99.3854 133.591 98.9046 133.623 98.4439 133.38L98.1569 133.254C97.6585 133.259 97.1449 133.294 96.6138 133.37L96.4779 133.387L96.3419 133.365C95.7579 133.257 95.2368 133.164 94.7333 133.164C89.9882 133.174 86.0587 136.828 85.4646 141.578C85.4117 141.987 85.3765 142.399 85.3765 142.826C85.3765 144.532 85.8346 146.353 86.8214 148.197C87.0329 148.596 87.2468 149 87.5112 149.402C87.7402 149.744 88.0398 150.053 88.3746 150.286C90.5546 151.826 92.6918 152.444 94.683 152.449C95.2167 152.444 95.7378 152.401 96.2488 152.318L96.3847 152.291L96.5207 152.313C96.9536 152.384 97.291 152.452 97.6031 152.489C97.8649 152.381 98.1317 152.273 98.386 152.138C98.9247 151.859 99.5062 151.949 99.9543 152.251L100.694 152.102L100.667 169.255C100.667 169.474 100.629 169.69 100.579 169.898C100.85 170.469 101.407 170.87 102.066 170.87L117.618 170.881L117.857 170.848H117.951C119.275 170.853 120.012 169.353 119.297 168.2C117.246 164.872 116.981 160.278 119.866 155.797C120.493 155.039 121.221 154.381 122.029 153.828C123.99 152.658 125.961 152.128 127.821 152.107C129.679 152.138 131.645 152.68 133.598 153.856C134.401 154.411 135.129 155.074 135.753 155.837C138.615 160.331 138.321 164.925 136.252 168.246C135.539 169.394 136.267 170.896 137.591 170.896L137.593 170.898Z" fill="#616E7D"/>
<path d="M82.5571 112.758L82.5219 112.848L82.5068 112.881L82.4187 113.235C82.4136 113.607 82.7182 113.984 83.0933 114.064L97.7794 114.039C97.9908 114.039 98.167 114.097 98.3508 114.142V114.137C98.8669 114.16 99.3376 114.338 99.7253 114.629L99.8184 114.167L99.8864 97.6999C100.342 97.077 101.17 96.7806 101.915 97.1649C103.295 97.8858 104.858 98.3002 106.517 98.3002C114.351 98.3103 120.131 89.2578 114.487 80.7705C114.2 80.3435 113.83 79.9592 113.412 79.6628C109.341 76.7692 105.17 76.7416 101.956 78.4069C101.236 78.7786 100.433 78.5375 99.972 77.9724L100.042 61.6081C100.042 60.6888 99.3351 59.9352 98.4465 59.8951L97.9078 59.7921L83.116 59.782C82.0461 59.5936 81.3664 58.3955 81.8925 57.3682C82.6301 55.9239 83.0505 54.2812 83.0606 52.5406C83.0883 46.6479 78.3859 41.878 72.6213 41.9986C66.8591 41.8479 62.1366 46.5977 62.129 52.4878C62.129 54.2335 62.5419 55.8762 63.2769 57.323C63.7955 58.3503 63.1108 59.5484 62.0409 59.7268L47.2416 59.664L46.7054 59.7619C45.8143 59.7996 45.1044 60.5481 45.1044 61.4725L45.0893 77.8367C44.6185 78.3969 43.8206 78.6405 43.1031 78.2587C39.8986 76.5808 35.7248 76.5859 31.6417 79.4618C31.2239 79.7532 30.8513 80.14 30.5593 80.5645C24.8701 89.0192 30.6096 98.0993 38.441 98.1294C40.0999 98.1395 41.6657 97.7351 43.0452 97.0167C43.7954 96.6324 44.6261 96.9363 45.0717 97.5643L45.0591 114.032C45.0591 114.237 45.1069 114.431 45.1724 114.614C45.5575 114.33 46.0257 114.157 46.5393 114.134V114.14C46.7205 114.094 46.9018 114.037 47.1107 114.037L61.7968 114.062C62.1693 113.981 62.4739 113.605 62.4664 113.238L62.3808 112.879L62.3632 112.838L62.343 112.798L62.3229 112.748C61.5752 111.236 61.1423 109.53 61.1297 107.724V107.639C61.1297 106.496 61.3462 105.434 61.6306 104.437C62.9799 99.7671 67.1612 96.3034 72.1983 96.3034L72.4652 96.3084L72.6892 96.3034C77.7213 96.3034 81.9051 99.7671 83.2544 104.437C83.5389 105.434 83.7528 106.496 83.7528 107.644V107.667C83.7528 109.5 83.3123 111.228 82.5571 112.758Z" fill="#616E7D"/>
<path d="M87.6572 134.106C89.5905 132.382 92.1129 131.327 94.882 131.32L94.887 132.146V131.32C95.5591 131.32 96.1482 131.435 96.6944 131.531C97.2533 131.458 97.8096 131.41 98.3659 131.405C98.6403 131.405 98.9147 131.418 99.1916 131.446L99.2117 116.543C99.2117 116.071 98.8769 115.732 98.4817 115.687L98.4263 115.672L98.298 115.667L98.1746 115.621L97.9254 115.571L83.0581 115.596L82.9851 115.584C81.8221 115.373 81.0216 114.418 80.9133 113.3L80.873 113.077C80.873 112.725 80.9561 112.369 81.1223 112.022H81.1147L81.1474 111.937L81.1676 111.909C81.8271 110.58 82.2072 109.096 82.2072 107.508V107.486C82.2072 106.554 82.0335 105.652 81.7742 104.75C80.6112 100.749 77.0618 97.8379 72.8352 97.8379L72.6187 97.8429H72.5709L72.3469 97.8379C70.3582 97.8379 68.5331 98.4985 67.0227 99.5961C65.321 100.834 64.0221 102.628 63.4104 104.75C63.2593 105.263 63.1536 105.778 63.0781 106.298C63.0202 106.687 62.9724 107.079 62.9724 107.478V107.511C62.9724 109.098 63.355 110.583 64.0196 111.906L64.0397 111.944L64.0548 111.984L64.0749 112.034L64.0674 112.04C64.2235 112.376 64.3091 112.735 64.3091 113.084L64.2713 113.285C64.1706 114.411 63.3651 115.375 62.1995 115.586L62.1291 115.599L47.2617 115.574L47.1409 115.596L47.01 115.624L46.8892 115.669L46.7583 115.674C46.3404 115.692 45.9729 116.051 45.9704 116.541L45.998 133.209L45.8042 133.447C45.3385 134.003 44.6538 134.359 43.8961 134.359C43.5185 134.359 43.1258 134.269 42.7708 134.08C41.5046 133.425 40.0874 133.053 38.5719 133.053C36.5707 133.053 34.3932 133.699 32.1981 135.256C31.8658 135.49 31.5587 135.798 31.3346 136.14C29.8318 138.388 29.2 140.634 29.2 142.713C29.2 148.061 33.4039 152.366 38.5468 152.374H38.5644C40.0748 152.374 41.5021 152.007 42.7658 151.346C43.1107 151.168 43.4883 151.078 43.8558 151.078C44.6865 151.078 45.4191 151.507 45.8747 152.14L46.0358 152.364L46.061 169.1C46.061 169.597 46.4487 169.969 46.8841 169.969L62.3732 169.944L62.6199 169.906H62.7735C63.0227 169.901 63.1813 169.816 63.3223 169.672C63.4582 169.519 63.5438 169.301 63.5438 169.067L63.3978 168.552C62.3128 166.801 61.681 164.722 61.681 162.496C61.681 160.16 62.3783 157.664 63.9315 155.242L63.9617 155.197L63.9919 155.162C64.669 154.34 65.4595 153.622 66.333 153.027L66.3531 153.014L66.3707 153.002C68.4475 151.756 70.5696 151.176 72.581 151.14H72.6062C74.6175 151.176 76.7371 151.756 78.8139 153.002L78.834 153.012L78.8567 153.029C79.7302 153.627 80.5181 154.343 81.1953 155.164L81.228 155.204L81.2557 155.245C82.8063 157.669 83.5062 160.163 83.5036 162.504C83.5036 164.724 82.8794 166.806 81.7894 168.56L81.6408 169.07C81.6408 169.303 81.7289 169.522 81.8649 169.675C82.0033 169.818 82.167 169.903 82.4136 169.908H82.5622L82.6201 169.919L82.8063 169.946L98.3005 169.971C98.736 169.971 99.1236 169.6 99.1262 169.102L99.1538 153.989C98.8039 154.034 98.444 154.067 98.0664 154.067H98.0613C97.4219 154.062 96.9159 153.921 96.493 153.851C95.9493 153.931 95.403 153.989 94.8366 153.989C92.571 153.989 90.162 153.27 87.8083 151.678L87.5414 151.517C87.043 151.158 86.6025 150.711 86.2526 150.188C85.3665 148.865 84.7548 147.516 84.3595 146.177C84.2387 145.76 84.1481 145.343 84.07 144.931C83.924 144.168 83.8334 143.414 83.8334 142.673C83.8334 139.255 85.3111 136.19 87.6572 134.106Z" fill="#616E7D"/>
</g>
</svg>
