<svg width="203" height="378" viewBox="0 0 203 378" fill="none" xmlns="http://www.w3.org/2000/svg">
<path d="M52.3847 246.976C53.7847 246.491 54.8213 247.366 55.9116 247.824C60.354 249.682 64.7425 251.728 69.2521 253.411C73.7887 255.107 78.554 256.049 83.4406 255.712C85.2848 255.591 87.2098 255.295 88.9195 254.622C93.7926 252.724 96.458 249.076 96.6599 243.772C96.8618 238.307 95.2195 233.326 92.2176 228.857C89.983 225.532 87.3983 222.435 84.8675 219.312C82.1348 215.947 82.3502 215.314 86.4156 213.887C89.781 212.703 93.0926 211.356 96.3099 209.808C100.066 208.005 103.175 205.312 105.746 202.014C106.07 201.597 106.366 201.139 106.635 200.681C106.702 200.56 106.635 200.358 106.608 199.941C104.858 200.062 103.108 200.183 101.358 200.291C98.6791 200.466 95.8791 200.183 93.3753 200.91C90.8714 201.637 88.6906 203.428 86.3214 204.666C77.0598 209.539 67.3943 210.01 57.4328 207.278C56.5039 207.022 55.5751 206.793 54.3097 206.47C55.3059 207.749 56.0866 208.718 56.8135 209.728C58.1732 211.626 58.5905 213.806 55.5751 215.153C55.3463 215.247 55.1847 215.476 54.7943 215.826C55.8578 216.082 56.7462 216.337 57.6482 216.526C69.8848 219.178 79.1329 226.245 86.5233 236.045C87.2637 237.028 87.8425 238.185 88.2733 239.343C89.2425 241.968 88.0983 244.082 85.3118 244.432C83.3868 244.674 81.3675 244.58 79.456 244.284C68.6059 242.587 59.304 237.795 51.4962 230.082C49.5847 228.197 47.7673 226.232 45.9096 224.293C45.4385 223.808 44.9539 223.337 44.3885 222.772C44.1058 225.626 43.9039 228.251 43.5673 230.862C43.4193 232.007 43.0423 233.124 42.652 234.214C41.8039 236.61 40.6596 237.351 38.1692 236.947C36.4192 236.664 34.7096 236.099 32.9596 235.709C32.1384 235.52 31.3038 235.426 30.2807 235.722C30.9269 236.301 31.5596 236.88 32.2057 237.445C40.3096 244.553 46.4077 252.966 49.1405 263.574C50.177 267.613 50.3116 271.691 50.002 275.811C49.9481 276.511 49.7866 277.224 49.5578 277.897C48.8174 279.97 47.2424 280.886 45.1424 280.253C43.877 279.876 42.625 279.27 41.5212 278.543C31.1961 271.745 24.7346 262.416 23.1326 250.005C22.7288 246.841 22.4461 243.664 22.0692 240.11C19.9826 242.412 18.1518 244.432 16.2941 246.451C14.2883 248.618 13.6826 248.699 11.3941 246.801C9.95372 245.603 8.63447 244.257 7.26139 242.978C6.76331 242.52 6.23832 242.076 5.37678 241.322C6.31909 246.962 7.50369 252.118 6.57484 257.422C5.63252 262.712 3.62675 267.518 0.019043 271.799C1.60751 274.909 3.20945 278.059 4.90561 281.397C8.75563 278.839 11.5153 275.703 12.9153 271.489C13.5076 269.713 13.9518 267.895 14.4634 266.091C14.7326 265.109 15.096 263.978 16.2268 264.045C16.9537 264.086 17.7614 264.826 18.3134 265.445C19.0672 266.307 19.6057 267.37 20.2384 268.339C23.4961 273.401 27.2923 278.032 31.9231 281.895C35.0327 284.493 38.3712 286.688 42.4366 287.536C48.1308 288.707 53.2193 286.391 55.9385 281.263C58.2674 276.888 58.4693 272.176 57.7559 267.424C56.7059 260.451 54.8078 253.68 52.3712 246.962L52.3847 246.976Z" fill="#E3A294"/>
<path d="M97.9373 307.351C98.2873 308.024 98.6911 308.684 98.9873 309.397C100.576 313.086 102.393 316.693 103.658 320.476C105.758 326.763 105.153 332.995 102.232 338.959C100.535 342.419 98.7315 345.811 95.8238 348.449C92.2699 351.68 89.3757 351.923 85.5122 349.042C83.8833 347.83 82.3487 346.39 81.0833 344.801C78.916 342.082 76.991 339.161 74.9718 336.334C74.5275 335.715 74.0699 335.095 73.2891 334.005C73.7199 342.351 70.4487 348.651 65.3871 354.117C61.7255 358.074 57.2832 360.551 51.6159 359.905C48.9909 359.609 46.6216 358.626 44.387 357.24C40.4428 354.79 37.3601 351.465 34.7485 347.682C28.8389 339.121 25.6485 329.549 24.2619 319.305C24.06 317.838 23.7504 316.384 23.4677 314.809C19.3484 317.528 17.1138 322.522 18.2311 326.722C20.6677 335.863 23.2388 344.976 25.81 354.076C26.3485 355.961 27.2773 357.738 27.8158 359.609C28.8658 363.271 31.41 365.532 34.6812 367.026C43.0139 370.836 51.5351 371.415 60.1775 368.103C65.3871 366.111 69.2506 362.503 72.0237 357.698C72.6968 356.54 73.2621 355.315 74.016 354.211C75.0525 352.703 75.9006 352.569 77.3679 353.646C78.3776 354.386 79.3064 355.221 80.2622 356.028C83.5333 358.774 87.3026 359.501 91.3276 358.451C99.5257 356.311 106.068 351.774 110.605 344.519C112.382 341.678 113.391 338.569 113.943 335.257C114.724 330.572 114.98 330.438 119.637 331.326C122.989 331.959 126.207 331.582 129.289 330.074C132.534 328.486 135.414 326.372 137.986 323.869C146.493 315.59 152.268 305.83 153.722 293.876C154.059 291.157 153.937 288.343 153.682 285.611C153.439 283.093 153.951 281.303 156.401 280.145C159.255 278.799 161.153 276.403 162.499 273.603C164.572 269.309 165.676 264.732 166.43 260.034C167.305 254.582 166.363 249.385 164.895 244.189C163.266 238.387 160.843 232.935 157.72 227.793C157.168 226.891 156.549 226.03 155.688 224.751C153.413 232.33 148.553 235.251 140.974 234.107C141.459 234.483 141.943 234.874 142.441 235.224C145.659 237.485 148.957 239.626 152.066 242.022C157.653 246.316 160.722 252.145 161.866 259.011C162.364 262.039 162.163 265.068 161.099 267.989C159.861 271.395 157.397 273.347 153.87 274.047C149.818 274.841 145.847 274.249 141.943 273.212C138.941 272.418 136.007 271.395 132.412 270.291C133.449 271.166 133.987 271.664 134.566 272.109C137.622 274.478 140.382 277.143 142.603 280.307C146.951 286.499 148.203 293.176 145.511 300.365C142.522 308.361 137.487 314.876 130.689 319.978C126.166 323.37 121.132 323.976 116.057 321.311C113.149 319.776 110.362 317.945 107.778 315.913C105.045 313.772 102.622 311.228 100.064 308.872C99.445 308.293 98.8257 307.715 98.2065 307.136L97.8969 307.378L97.9373 307.351Z" fill="#006094"/>
<path d="M-0.411357 195.122C-0.155587 195.122 0.127075 195.189 0.355923 195.122C16.3887 189.764 32.0984 183.76 46.4889 174.606C67.9197 160.969 84.0198 142.594 95.7583 120.248C98.8814 114.298 101.345 108.065 102.247 101.335C102.664 98.2115 102.651 95.1018 101.533 92.073C99.2987 86.0556 94.4525 83.1345 88.0852 83.9152C83.2121 84.5075 78.7832 86.3518 74.5294 88.6941C67.1255 92.773 60.4351 97.8211 54.2427 103.542C30.2003 125.74 10.8829 151.412 -2.47102 181.418C-3.64667 184.065 -3.90241 187.063 -3.2383 190.41C-2.68638 189.427 -2.28254 188.835 -1.98638 188.189C10.0887 162.881 26.0676 140.306 45.7215 120.342C51.6312 114.352 58.012 108.9 64.8236 103.946C68.2293 101.469 71.8371 99.3288 75.7678 97.7807C78.3794 96.7576 81.0583 96.1788 83.8852 96.448C87.9775 96.8518 90.5486 99.248 90.7102 103.327C90.791 105.602 90.5217 107.998 89.8756 110.179C88.9198 113.423 87.7621 116.654 86.241 119.656C75.364 141.141 60.6774 159.462 40.6465 173.112C28.0734 181.687 14.6925 188.835 0.477072 194.368C0.153994 194.489 -0.169086 194.65 -0.492165 194.785C-0.465242 194.893 -0.451756 194.987 -0.424832 195.095L-0.411357 195.122Z" fill="#E3A294"/>
<path d="M167.36 265.701C166.431 268.312 165.731 270.412 164.937 272.472C163.362 276.524 160.898 279.849 156.887 281.76C155.245 282.541 155.083 283.807 155.258 285.314C156.241 293.58 154.262 301.307 150.775 308.67C147.289 316.034 142.416 322.401 135.968 327.436C134.285 328.741 132.441 329.872 130.556 330.882C126.881 332.861 122.977 333.44 118.885 332.349C118.279 332.188 117.673 332.053 117.054 331.932C116.893 331.905 116.704 331.959 116.139 332.026C115.91 332.874 115.533 333.843 115.412 334.853C113.769 349.082 100.873 358.115 90.7905 359.986C86.6578 360.753 82.9962 359.892 79.7385 357.28C78.4865 356.284 77.275 355.247 75.7269 353.982C74.9731 355.14 74.2462 356.095 73.6942 357.145C69.8308 364.482 63.8403 369.045 55.7768 370.795C48.171 372.451 40.8748 371.482 33.8883 368.036C33.444 367.82 32.9998 367.592 32.2998 367.659C32.596 368.144 32.8517 368.655 33.2152 369.099C37.9267 374.969 44.2941 377.271 51.5903 377.526C58.7115 377.782 65.7249 376.799 72.4961 374.807C104.427 365.411 131.121 348.436 150.156 320.516C160.091 305.951 165.704 289.864 167.32 272.351C167.508 270.332 167.347 268.272 167.347 265.674L167.36 265.701Z" fill="#7F277C"/>
<path d="M130.26 44.0419C130.61 44.0419 130.96 44.0149 131.31 44.0419C134.716 44.2976 135.954 46.088 134.742 49.2784C134.123 50.9342 133.167 52.4688 132.158 54.4881C133.302 53.815 134.123 53.3169 134.971 52.8457C137.435 51.4592 139.966 50.4765 142.873 51.338C146.023 52.2669 147.248 54.5958 145.714 57.4765C144.812 59.1727 143.412 60.6266 142.146 62.1073C141.406 62.9689 140.504 63.6823 139.279 64.84C140.329 64.7593 140.881 64.7189 141.433 64.665C142.846 64.5439 144.273 64.2477 145.673 64.342C148.891 64.5573 150.91 66.3612 151.731 69.4708C151.866 69.9824 151.933 70.5074 152.068 71.1939C154.585 70.7228 156.9 70.117 158.973 68.5824C164.466 64.517 169.46 59.9669 173.404 54.3534C176.743 49.615 179.179 44.513 180.081 38.738C180.673 34.9687 180.472 31.2533 179.247 27.6322C177.577 22.7456 174.36 20.5648 169.191 21.2514C166.121 21.6552 163.025 22.3283 160.118 23.3648C152.243 26.1783 144.946 30.0687 138.741 35.8168C135.873 38.4688 132.912 41.013 129.977 43.6111L130.26 44.0553V44.0419Z" fill="#9ED9DE"/>
<path d="M78.6492 257.624C79.4299 258.243 80.0357 258.728 80.628 259.199C89.7011 266.509 94.0223 275.905 93.0261 287.616C92.6896 291.601 92.6088 291.722 95.6377 294.159C100.43 298.022 105.29 301.818 110.297 305.386C113.42 307.62 116.894 309.29 120.717 310.111C125.038 311.04 128.484 309.707 131.001 306.14C134.205 301.616 134.448 296.703 132.765 291.574C131.54 287.859 129.359 284.709 126.774 281.828C122.696 277.291 118.307 273.078 113.259 269.659C106.38 265.014 99.3262 260.626 92.3262 256.17C91.8012 255.834 90.9127 255.564 90.4012 255.78C86.9146 257.22 83.2934 257.435 79.6184 257.301C79.3896 257.301 79.1742 257.435 78.6492 257.597V257.624Z" fill="#F47A24"/>
<path d="M66.5468 65.6215C68.5122 64.8003 70.4642 63.9657 72.443 63.1714C77.4507 61.1387 82.6334 60.7214 87.9508 61.408C89.8085 61.6503 91.6662 61.906 93.5373 62.0541C98.6124 62.458 103.337 61.2464 107.551 58.4868C115.668 53.156 123.934 48.0002 130.907 41.081C134.326 37.6886 138.163 34.7271 141.784 31.5501C146.697 27.229 150.588 22.0193 154.761 17.052C154.653 16.9039 154.545 16.7693 154.438 16.6212C153.926 16.9712 153.415 17.3078 152.916 17.6712C150.184 19.6635 147.532 21.7905 144.691 23.6078C141.999 25.3174 138.93 26.004 135.713 25.7213C124.836 24.7655 114.887 27.9559 105.262 32.5328C104.226 33.0309 103.23 33.6501 102.287 34.3232C89.5258 43.2617 77.9488 53.6137 66.9238 64.5984C66.6815 64.8407 66.493 65.1368 66.2642 65.4061C66.3584 65.4868 66.4526 65.5811 66.5334 65.6618L66.5468 65.6215Z" fill="#E15626"/>
<path d="M170.281 153.553C161.463 159.462 151.596 162.572 141.554 164.578C141.352 166.893 141.432 168.98 140.948 170.918C140.154 174.122 138.202 176.693 135.617 178.753C130.946 182.455 125.696 185.08 120.136 187.139C110.619 190.666 100.752 192.713 90.6553 193.561C82.2957 194.261 73.8956 194.476 65.536 195.189C58.5225 195.795 51.5224 196.67 44.5359 197.653C35.8531 198.878 27.2646 199.013 18.8377 196.213C17.0607 195.62 15.378 194.786 13.6146 194.139C12.9819 193.911 12.2011 193.682 11.6088 193.857C8.53956 194.759 5.49722 195.795 2.33374 197.289C3.23567 197.639 4.12416 198.057 5.05301 198.326C11.003 200.063 17.1281 200.749 23.2935 201.018C32.7839 201.436 42.207 200.52 51.6571 199.847C59.8552 199.268 68.0667 198.891 76.2783 198.461C86.9803 197.895 97.6957 197.545 108.384 196.738C119.005 195.93 129.411 193.857 139.534 190.384C151.704 186.197 160.481 178.389 165.596 166.543C167.386 162.397 169.042 158.184 170.752 154.01C170.59 153.862 170.442 153.701 170.281 153.553Z" fill="#7F277C"/>
<path d="M32.1385 104.579C36.0558 102.277 40.2827 100.783 44.7385 100.474C50.2578 100.097 55.1713 98.212 59.8828 95.5466C61.1213 94.8466 62.3329 94.0658 63.4771 93.2312C68.0406 89.9196 72.7252 86.8235 77.8675 84.4677C81.3003 82.8927 84.8541 81.7754 88.6368 81.3984C89.6061 81.3042 90.6964 80.7657 91.4233 80.0927C95.583 76.1753 99.7023 72.2042 103.741 68.1522C108.035 63.8445 112.222 59.4426 116.448 55.081C116.987 54.5291 117.485 53.9502 117.795 53.0618C117.229 53.3983 116.65 53.7079 116.112 54.0983C113.635 55.8618 111.198 57.6791 108.722 59.4291C103.337 63.1984 97.3869 64.6253 90.9118 63.4407C82.2426 61.8657 74.031 63.1176 66.1559 66.9811C64.1232 67.9772 62.3328 69.2022 60.7309 70.8311C51.052 80.7523 41.8308 91.0773 33.3231 102.049C32.7847 102.749 32.2596 103.462 31.7346 104.175C31.8692 104.31 31.9904 104.445 32.125 104.579H32.1385Z" fill="#E15626"/>
<path d="M160.764 68.852C165.785 68.2193 170.51 67.3309 175.262 67.1155C179.96 66.9001 184.685 67.3713 189.68 67.5463C189.747 67.2097 189.935 66.5636 190.003 65.9039C190.851 58.7154 191.457 51.4731 193.705 44.5538C195.024 40.4884 196.68 36.5173 198.403 32.5999C200.583 27.6326 201.916 22.4633 202.239 17.0787C202.576 11.6941 201.647 10.7517 196.357 10.1998C190.608 9.60751 184.955 10.0248 179.382 11.6537C169.837 14.4268 161.222 19.0172 153.226 25.021C153.724 24.873 154.222 24.7653 154.706 24.5768C157.708 23.446 160.656 22.0999 163.726 21.2249C166.014 20.5787 168.464 20.3768 170.847 20.2691C175.195 20.0806 178.143 22.2614 179.772 26.2191C181.455 30.2845 181.791 34.5384 181.131 38.8461C179.718 47.9731 174.872 55.2693 168.639 61.7578C166.795 63.6828 164.668 65.352 162.676 67.1424C162.097 67.6674 161.504 68.179 160.737 68.8386L160.764 68.852Z" fill="#7F277C"/>
<path d="M45.9636 289.582C40.929 289.636 36.554 287.549 32.1251 284.359C32.4751 286.486 32.7847 288.168 33.027 289.864C33.7944 295.303 33.229 300.526 30.6578 305.48C30.2943 306.18 30.2135 307.23 30.4289 307.997C33.202 317.703 36.4463 327.234 41.1713 336.199C42.2482 338.232 43.554 340.211 45.0482 341.961C50.2579 348.059 57.1502 347.063 60.7041 339.834C62.6829 335.809 62.8714 331.582 62.1041 327.288C61.2425 322.415 59.331 317.878 57.2445 313.436C54.431 307.459 51.5098 301.549 48.6559 295.586C47.7406 293.661 46.9059 291.695 45.9771 289.595L45.9636 289.582Z" fill="#F47A24"/>
<path d="M28.9217 159.34C29.1506 158.317 29.3794 157.375 29.5679 156.419C31.1967 148.154 34.8583 144.654 43.2987 143.469C43.366 142.688 43.3795 141.827 43.5141 140.979C43.8372 138.96 43.9718 136.86 44.6314 134.961C46.6237 129.267 50.6218 126.063 57.1238 126.063C55.643 121.527 55.5353 117.058 56.7199 112.481C30.6986 134.719 11.7447 162.127 -3.22461 192.496C-3.07653 192.698 -2.91496 192.887 -2.76688 193.089C-1.68995 192.793 -0.545751 192.604 0.477331 192.16C5.63312 189.925 10.8563 187.812 15.864 185.294C27.616 179.398 38.991 172.883 49.1411 164.402C58.1873 156.85 65.968 148.167 72.8469 138.636C73.1027 138.273 73.3585 137.91 73.5739 137.519C73.6546 137.385 73.6143 137.183 73.6277 137.075C70.72 136.496 67.7988 135.917 64.7296 135.298C64.5276 136.133 64.3123 137.142 64.0296 138.152C62.3469 143.981 58.9815 148.127 52.7622 149.46C51.2949 149.769 49.841 150.213 48.293 150.617C48.1718 151.6 48.1449 152.488 47.9564 153.337C47.5526 155.154 47.216 157.012 46.5833 158.762C45.5064 161.71 43.3391 163.635 40.3237 164.55C38.1967 165.196 36.0429 165.789 33.9833 166.367C33.8217 166.596 33.6468 166.731 33.6198 166.892C32.7717 171.644 29.9313 174.66 25.5159 176.41C21.6928 177.917 17.9236 179.533 14.1274 181.081C13.7101 181.256 13.2928 181.404 12.862 181.498C11.7043 181.727 11.0043 181.108 11.4351 180.044C13.2659 175.494 14.9216 170.85 17.1832 166.529C19.2428 162.585 23.1063 160.74 27.3602 159.785C27.8717 159.664 28.3698 159.515 28.9217 159.367V159.34Z" fill="#EF4723"/>
<path d="M92.3524 293.553C91.787 294.28 91.4101 294.765 90.8313 295.505C91.8813 296.865 92.9044 298.291 94.0351 299.638C99.164 305.749 104.724 311.43 111.158 316.168C113.151 317.636 115.372 318.888 117.62 319.924C121.483 321.715 125.293 321.243 128.847 318.968C130.112 318.161 131.337 317.205 132.428 316.168C137.247 311.551 141.231 306.328 143.587 300.001C145.943 293.701 145.297 287.643 141.608 282.097C139.791 279.378 137.583 276.847 135.214 274.572C131.216 270.722 126.733 267.572 121.685 265.095C114.954 261.797 108.493 257.974 101.91 254.366C100.039 253.343 98.1679 252.32 96.2159 251.257C94.9102 252.495 93.6986 253.653 92.312 254.959C93.2813 255.457 94.1159 255.901 94.9505 256.318C106.272 262.026 116.691 269.012 125.603 278.099C128.753 281.303 131.58 284.749 133.424 288.895C135.955 294.603 136.291 300.297 133.06 305.87C131.189 309.115 128.51 311.511 124.647 311.834C122.574 312.009 120.366 311.672 118.333 311.12C114.147 310.003 110.404 307.822 106.958 305.265C102.731 302.128 98.6794 298.749 94.5601 295.465C93.8736 294.913 93.214 294.32 92.339 293.566L92.3524 293.553Z" fill="#FFDBA6"/>
<path d="M97.0779 234.537C97.4952 237.593 97.926 240.312 98.2087 243.045C98.3029 243.96 98.626 244.526 99.4202 244.93C109.745 250.206 119.707 256.224 130.624 260.303C135.322 262.053 140.101 263.533 145.203 263.358C146.442 263.318 147.707 263.17 148.878 262.807C151.759 261.918 152.957 259.885 152.055 257.032C151.449 255.107 150.574 253.195 149.457 251.499C146.401 246.868 142.336 243.193 137.409 240.716C132.792 238.387 127.972 236.503 123.247 234.403C122.13 233.905 121.026 233.958 119.882 234.349C118.28 234.901 116.651 235.399 115.049 235.91C109.463 237.701 103.97 237.445 98.5856 235.076C98.1144 234.874 97.6163 234.726 97.0779 234.524V234.537Z" fill="#F47A24"/>
<path d="M59.3039 278.194C58.1732 280.388 57.0424 282.582 55.8174 284.965C56.7193 286.419 57.7289 287.98 58.6578 289.582C63.827 298.561 68.8751 307.594 74.1521 316.505C76.8713 321.096 79.9002 325.525 82.9425 329.913C83.8848 331.273 85.231 332.444 86.5906 333.427C89.0406 335.204 90.9926 334.867 92.8099 332.417C95.3407 329.011 96.1618 325.067 95.2733 320.988C94.6137 317.973 93.6041 314.957 92.2983 312.157C88.9733 304.996 84.4906 298.548 79.4425 292.49C78.3117 291.13 76.979 290.201 75.2963 289.717C73.9232 289.313 72.5905 288.815 71.2175 288.411C66.3578 286.944 62.7097 284.009 60.2732 279.553C60.0578 279.163 59.8155 278.786 59.5732 278.409C59.5328 278.342 59.4385 278.301 59.3039 278.207V278.194Z" fill="#F47A24"/>
<path d="M50.2713 288.68C49.1809 288.963 48.2655 289.205 47.0674 289.515C47.5386 290.578 47.902 291.453 48.3193 292.301C51.6578 299.113 55.0636 305.898 58.3348 312.736C60.7713 317.811 62.8982 323.021 63.7059 328.648C64.3655 333.225 63.6252 337.559 61.2829 341.544C57.4328 348.127 50.2309 349.123 44.9001 343.684C43.177 341.921 41.5751 339.875 40.4981 337.667C38.1154 332.794 35.9616 327.786 33.9558 322.738C32.125 318.121 30.6039 313.369 28.8539 308.388C27.5616 309.842 26.3904 311.053 25.3673 312.373C25.0442 312.79 24.9096 313.544 25.0038 314.069C25.9865 319.144 26.7808 324.273 28.1404 329.254C30.375 337.452 34.1174 344.963 40.1347 351.088C42.1674 353.161 44.6039 354.952 47.1482 356.365C51.752 358.936 56.5444 358.734 60.7713 355.517C67.4079 350.469 71.3252 343.779 71.9175 335.325C72.0925 332.848 71.4329 330.559 70.2213 328.405C63.7867 317.057 57.9174 305.44 52.6943 293.486C51.9809 291.871 51.1193 290.309 50.2847 288.653L50.2713 288.68Z" fill="#FFDBA6"/>
<path d="M189.518 69.7003C179.637 67.6541 170.201 68.8522 160.764 71.4772C161.478 71.733 162.218 71.9349 162.891 72.2714C164.978 73.2811 167.172 74.1291 169.07 75.408C173.512 78.383 175.882 82.6772 176.016 88.0484C176.366 102.345 170.632 114.029 160.455 123.749C158.785 125.351 156.833 126.656 155.016 128.11C154.491 128.527 153.953 128.958 152.957 129.752C161.047 128.204 168.155 125.647 175.114 122.604C177.066 121.756 179.462 121.124 180.701 119.616C181.939 118.108 182.047 115.645 182.559 113.572C185.87 100.191 187.903 86.5946 189.316 72.9041C189.411 71.9349 189.424 70.9657 189.478 69.7137L189.518 69.7003Z" fill="#7F277C"/>
<path d="M153.576 73.0923C155.824 75.0442 156.268 77.3462 155.286 79.9577C154.384 82.3808 152.365 83.8616 150.601 85.7866C151.813 85.7866 153.024 85.7327 154.222 85.7866C158.718 86.0289 161.438 89.6232 160.657 94.0789C160.065 97.4309 158.247 100.016 155.77 102.169C154.236 103.502 152.526 104.619 150.668 106.006C151.53 106.141 152.19 106.208 152.822 106.342C155.703 106.948 156.766 108.483 156.12 111.377C155.474 114.231 154.141 116.816 151.786 118.579C149.888 120.019 147.707 121.096 145.634 122.308C145.122 122.604 144.557 122.779 143.924 123.062C147.384 125.498 147.464 126.077 145.001 131.112C146.832 131.045 148.488 130.91 149.995 129.806C152.795 127.746 155.891 126.037 158.503 123.762C169.138 114.5 174.468 102.735 174.495 88.6135C174.495 83.0539 172.059 78.7058 167.361 75.9192C164.628 74.3038 161.532 73.2808 158.543 72.1365C156.834 71.4769 155.259 72.2846 153.59 73.0923H153.576Z" fill="#9ED9DE"/>
<path d="M80.7353 292.112C83.293 295.639 85.6219 298.695 87.7892 301.858C90.9257 306.449 93.5373 311.322 95.3142 316.612C96.8758 321.257 97.1584 325.861 95.1257 330.451C92.5007 336.374 88.5027 337.195 83.9257 332.686C80.6545 329.468 78.1103 325.672 75.8084 321.728C70.3968 312.48 65.0391 303.191 59.6141 293.943C58.0794 291.332 56.4102 288.801 54.6198 285.96C53.5967 286.647 52.7486 287.212 51.739 287.885C55.2794 295.316 58.7525 302.707 62.3333 310.057C66.8698 319.385 71.8372 328.472 77.6661 337.061C79.4699 339.713 81.4218 342.297 83.5757 344.666C84.9219 346.161 86.6853 347.332 88.3949 348.436C89.9565 349.432 91.6527 349.189 93.1738 348.099C93.5373 347.843 93.9277 347.601 94.2373 347.278C99.8104 341.449 103.364 334.732 103.001 326.426C102.839 322.63 101.83 318.955 100.066 315.643C96.5931 309.101 92.8238 302.72 89.1623 296.285C88.9065 295.841 88.5161 295.357 88.0719 295.168C85.8103 294.172 83.4949 293.257 80.7487 292.126L80.7353 292.112Z" fill="#FFDBA6"/>
<path d="M23.0923 232.585C23.2942 235.022 23.4288 237.122 23.6711 239.208C24.1557 243.637 24.4654 248.106 25.2731 252.481C27.2654 263.412 33.4577 271.516 42.7058 277.385C46.7982 279.984 48.1847 279.31 48.7232 274.532C49.2347 270.022 48.5347 265.607 47.1347 261.339C43.4731 250.247 36.2173 241.806 27.0904 234.833C25.9865 233.985 24.6673 233.447 23.0923 232.572V232.585Z" fill="#E15626"/>
<path d="M32.0707 185.834C26.4168 188.122 20.9648 190.33 15.2437 192.659C17.3033 193.991 19.3898 194.597 21.4764 195.162C28.6649 197.101 35.9476 197.209 43.2707 196.172C47.6861 195.553 52.115 194.974 56.5573 194.436C58.1054 194.247 59.4381 193.762 60.6362 192.685C64.2304 189.468 68.0266 186.466 71.4593 183.087C73.5324 181.041 75.2286 178.564 76.7767 176.074C78.1901 173.799 78.4863 171.214 77.1132 168.562C72.6574 168.562 68.2016 168.751 63.7593 168.508C59.9093 168.307 57.1362 170.003 54.6188 172.547C54.6996 172.695 54.74 172.924 54.8477 172.964C58.2804 174.095 59.3169 175.885 58.1189 179.21C57.5535 180.785 56.7458 182.347 55.7092 183.639C52.0746 188.176 47.538 191.353 41.6149 192.12C40.3899 192.282 39.1111 192.241 37.8996 192.066C33.9149 191.487 32.461 189.912 32.0707 185.82V185.834Z" fill="#E15626"/>
<path d="M98.1671 245.994C97.696 247.434 97.346 248.524 96.9421 249.763C98.7325 250.786 100.509 251.796 102.259 252.819C110.821 257.813 119.396 262.794 128.483 266.792C134.46 269.417 140.504 271.907 147.06 272.607C149.335 272.85 151.69 272.688 153.965 272.365C156.752 271.975 158.583 270.171 159.525 267.519C160.346 265.203 160.669 262.807 160.346 260.398C159.498 253.99 156.981 248.43 151.973 244.109C145.969 238.926 139.171 235.036 132.373 231.469C129.64 232.142 127.083 232.774 124.269 233.474C127.567 234.794 130.637 235.965 133.665 237.23C139.265 239.573 144.233 242.817 148.244 247.434C150.304 249.803 152.121 252.348 153.185 255.336C154.989 260.438 152.902 264.019 147.531 264.8C144.219 265.284 140.935 264.867 137.704 264.086C131.417 262.565 125.508 260.061 119.773 257.126C113.096 253.721 106.473 250.194 99.8229 246.734C99.3652 246.492 98.8806 246.303 98.1671 245.994Z" fill="#FFDBA6"/>
<path d="M89.9291 293.526C90.9657 289.609 91.3291 285.921 91.0061 282.192C90.1041 271.544 84.3426 263.803 76.0771 257.611C75.3771 257.086 74.5425 256.682 73.7079 256.413C70.2348 255.268 66.7483 254.192 63.2617 253.115C63.0463 253.047 62.7906 253.115 62.2252 253.115C66.1425 256.413 69.5887 259.765 72.254 263.803C73.7752 266.105 75.2291 268.461 76.5348 270.897C77.1944 272.136 77.6387 273.549 77.8541 274.936C78.2579 277.561 76.9925 278.651 74.4483 278.046C73.506 277.817 72.5637 277.48 71.6752 277.09C67.3137 275.165 63.8406 272.19 61.3232 268.111C60.7713 267.222 60.2059 266.32 59.479 265.163C59.5867 268.542 59.654 271.584 59.7752 274.613C59.8021 275.138 59.8963 275.73 60.179 276.147C62.9117 280.226 65.5098 284.359 70.5444 286.149C75.9964 288.101 81.3272 290.376 86.7118 292.49C87.681 292.867 88.6907 293.136 89.9426 293.526H89.9291Z" fill="#C1A1CB"/>
<path d="M105.087 104.31C105.612 103.745 106.083 103.125 106.648 102.614C107.577 101.793 108.479 100.877 109.543 100.271C111.723 99.033 113.595 99.8811 114.322 102.277C114.981 104.472 114.847 106.666 114.456 108.9C113.662 113.477 111.925 117.637 108.923 121.191C108.021 122.254 106.891 123.224 105.679 123.924C103.189 125.377 101.062 124.812 99.4061 122.497C99.1503 122.133 98.9619 121.729 98.5715 121.056C96.1888 125.175 93.9272 129.093 91.4233 133.414C96.0003 133.67 100.146 133.993 104.306 134.127C106.473 134.195 108.318 133.01 109.785 131.597C112.41 129.079 115.089 126.508 117.229 123.587C121.725 117.448 124.404 110.475 125.454 102.91C125.818 100.339 126.006 97.7138 125.064 95.2369C124.566 93.9176 123.92 92.5849 123.031 91.5215C121.066 89.1387 117.916 88.6676 115.385 90.3099C112.397 92.2618 109.502 94.3349 106.541 96.3407C105.666 96.933 105.195 97.6196 105.154 98.7369C105.1 100.514 104.831 102.277 104.656 104.041C104.804 104.135 104.952 104.216 105.1 104.31H105.087Z" fill="#E15626"/>
<path d="M41.5481 217.63C43.7154 219.905 45.7077 221.937 47.6327 224.037C53.4212 230.311 59.6539 236.005 67.6636 239.357C72.3752 241.336 77.2348 242.776 82.3637 243.086C83.9521 243.18 85.8098 243.503 86.7656 241.901C87.7348 240.272 86.5502 238.764 85.6214 237.499C78.2579 227.416 68.7944 220.457 56.4366 217.657C51.4693 216.526 46.5962 216.768 41.5481 217.616V217.63Z" fill="#E15626"/>
<path d="M5.6062 142.971C8.39275 141.356 11.2062 140.359 14.2082 139.7C18.1794 138.825 21.5044 136.631 23.9813 133.481C32.8391 122.227 42.3699 111.592 52.9641 101.927C53.2199 101.698 53.4218 101.415 53.9334 100.823C53.0988 100.93 52.6545 100.984 52.2103 101.052C49.4776 101.482 46.7314 101.805 44.0256 102.371C40.9833 103.004 37.9006 103.636 34.966 104.646C31.2641 105.925 28.3698 108.307 26.0275 111.579C19.0409 121.311 12.4582 131.3 6.36009 141.611C6.09086 142.056 5.84851 142.527 5.6062 142.971Z" fill="#E15626"/>
<path d="M109.449 134.141C112.639 134.141 115.21 134.181 117.781 134.114C118.347 134.1 118.979 133.764 119.45 133.414C125.751 128.85 131.081 123.398 134.608 116.385C138.701 108.254 139.064 99.9615 135.335 91.6019C133.774 88.1153 131.458 85.2211 127.931 83.1884C125.306 84.6153 122.668 86.0422 119.733 87.6442C126.033 89.9865 127.797 94.698 127.285 100.419C126.141 113.114 120.904 123.869 111.414 132.471C110.902 132.942 110.35 133.373 109.435 134.154L109.449 134.141Z" fill="#C12026"/>
<path d="M148.46 216.405C147.814 215.812 147.128 215.126 146.387 214.52C137.354 207.089 127.097 202.055 115.722 199.416C113.649 198.931 111.333 199.483 109.126 199.631C108.749 199.658 108.318 200.022 108.076 200.345C106.258 202.728 104.481 205.151 102.529 207.803C103.633 207.803 104.737 207.722 105.827 207.816C113.258 208.489 119.545 211.545 124.539 217.078C125.791 218.464 127.124 219.474 128.928 219.905C132.293 220.726 135.631 221.735 139.037 222.314C143.412 223.041 146.899 220.78 148.487 216.405H148.46Z" fill="#E15626"/>
<path d="M179.988 122.16C172.221 125.781 164.251 128.756 155.569 130.829C156.403 131.381 156.888 131.704 157.372 132.041C159.809 133.75 160.657 136.227 160.536 139.041C160.28 144.708 158.18 149.689 154.303 153.781C152.109 156.097 149.444 157.968 146.98 160.028C146.32 160.579 145.62 161.078 145.109 162.006C146.549 161.629 148.003 161.266 149.444 160.876C157.009 158.843 164.063 155.639 170.565 151.264C171.251 150.806 171.978 150.066 172.207 149.312C174.926 140.522 177.551 131.718 180.19 122.914C180.23 122.779 180.109 122.591 179.988 122.16Z" fill="#7F277C"/>
<path d="M90.3196 223.001C92.1773 226.084 93.7523 228.776 95.4215 231.401C95.7715 231.953 96.3773 232.451 96.9831 232.707C102.92 235.224 108.924 235.978 115.237 233.878C119.033 232.613 123.004 231.886 126.895 230.916C128.079 230.62 129.251 230.284 130.758 229.893C130.247 228.803 129.991 227.955 129.493 227.268C127.474 224.441 125.562 221.493 123.26 218.895C117.768 212.649 110.593 209.782 102.408 209.378C100.981 209.311 99.4331 209.849 98.0735 210.414C95.96 211.303 93.9542 212.461 91.4369 213.739C93.8465 214.009 95.8119 214.197 97.7773 214.466C102.61 215.113 107.16 216.647 111.401 219.057C112.626 219.757 113.837 220.605 114.806 221.615C116.341 223.203 115.977 224.738 114.012 225.68C113.379 225.99 112.666 226.178 111.979 226.313C105.114 227.645 98.4773 227.093 92.1504 223.903C91.6792 223.674 91.2081 223.445 90.3062 223.001H90.3196Z" fill="#C1A1CB"/>
<path d="M138.458 143.146C139.696 143.591 140.464 143.793 141.15 144.129C143.317 145.193 144.085 147.266 142.671 149.218C141.608 150.685 140.181 152.125 138.579 152.933C135.739 154.373 132.656 155.329 129.667 156.473C129.196 156.648 128.712 156.756 127.877 156.985C128.456 157.375 128.738 157.537 128.981 157.739C130.421 158.896 130.704 159.664 129.721 161.131C128.846 162.437 127.662 163.541 126.437 164.941C126.881 164.968 127.258 165.062 127.594 165.021C131.215 164.483 134.823 163.958 138.431 163.366C139.212 163.245 140.033 163.002 140.679 162.571C144.139 160.202 147.652 157.887 150.923 155.289C154.975 152.085 157.425 147.764 158.583 142.742C158.758 141.962 158.879 141.167 158.933 140.373C159.31 134.383 155.487 131.004 149.51 132.054C148.123 132.296 146.75 132.633 145.283 132.942C145.458 133.373 145.525 133.602 145.633 133.817C147.033 136.429 146.79 138.044 144.542 139.902C143.721 140.575 142.779 141.114 141.837 141.612C140.908 142.11 139.912 142.5 138.431 143.16L138.458 143.146Z" fill="#9ED9DE"/>
<path d="M12.1758 277.614C10.1701 279.66 8.25855 281.612 6.02393 283.901C11.2874 294.724 13.7913 306.947 16.7528 319.157C18.6913 315.347 21.8951 312.749 24.6682 309.801C31.8029 302.209 32.3952 293.297 30.0932 283.78C29.8913 282.959 29.3528 282.151 28.7875 281.518C26.9028 279.378 24.924 277.305 22.9721 275.232C22.8105 275.057 22.5278 274.989 22.1509 274.787C22.4201 276.605 22.7028 278.26 22.9182 279.93C23.5913 285.234 23.1875 290.457 21.4644 295.518C20.9932 296.918 20.2528 298.332 19.3105 299.462C17.8432 301.226 15.8778 301.186 14.5586 299.314C13.6163 297.968 12.9162 296.339 12.5259 294.724C11.2066 289.259 11.6374 283.726 12.2028 278.22C12.2163 278.045 12.2028 277.87 12.2028 277.614H12.1758Z" fill="#C1A1CB"/>
<path d="M103.7 136.241C99.3249 135.689 95.0037 135.137 90.5075 134.572C89.1479 136.537 87.7344 138.584 86.3075 140.616C89.4844 142.595 90.0767 143.847 89.0806 147.334C87.694 152.166 84.8671 155.989 80.519 158.561C77.544 160.311 75.1075 159.53 73.3709 156.393C69.3997 160.055 65.4555 163.689 61.3228 167.499C66.7074 167.351 71.769 167.243 76.8171 167.014C77.6517 166.974 78.5536 166.584 79.2671 166.099C86.5632 161.213 93.4152 155.747 99.2441 149.151C101.048 147.118 102.394 144.628 103.673 142.205C104.669 140.334 104.521 138.26 103.673 136.228L103.7 136.241Z" fill="#E15626"/>
<path d="M153.348 7.44027C153.994 7.62873 154.654 7.80373 155.286 8.01912C157.629 8.79989 158.679 10.4691 157.804 12.7576C157.05 14.723 155.946 16.6076 154.708 18.3307C153.254 20.3634 151.504 22.1673 149.902 24.0788C149.579 24.4557 149.309 24.8596 149.256 25.5192C150.036 24.9942 150.831 24.4827 151.584 23.9442C159.917 17.9942 168.802 13.0941 178.683 10.1999C185.212 8.28835 191.848 7.91142 198.565 8.79989C198.915 8.84027 199.265 8.8672 199.629 8.88066C199.71 8.88066 199.804 8.82681 200.019 8.74604C199.346 6.40372 197.731 4.80179 195.86 3.45563C192.562 1.07293 188.779 0.0902319 184.781 0.00946227C178.467 -0.125154 172.342 1.19408 166.311 2.84986C161.936 4.04794 157.642 5.55564 153.321 6.92873L153.348 7.45373V7.44027Z" fill="#E15626"/>
<path d="M118.427 136.187H106.015C105.962 136.685 105.827 137.102 105.881 137.506C106.352 140.602 105.571 143.442 103.74 145.852C101.546 148.76 99.2712 151.681 96.6192 154.144C91.9884 158.452 87.048 162.423 82.1211 166.623C82.5653 166.704 83.1038 166.879 83.6422 166.879C86.4018 166.879 89.3096 167.31 91.9077 166.623C94.3981 165.95 96.6461 164.2 98.8539 162.719C102.785 160.094 106.688 157.429 110.444 154.575C113.837 151.991 116.3 148.585 117.969 144.641C119.114 141.948 119.612 139.202 118.427 136.187Z" fill="#C12026"/>
<path d="M2.07887 234.874C1.75579 234.093 1.76925 233.164 1.52694 231.764C0.894246 232.76 0.503875 233.339 0.153872 233.931C-0.88267 235.681 -2.29615 236.96 -4.27501 237.593C-5.99809 238.145 -7.26347 239.128 -8.17886 240.433C-8.50194 243.368 -8.78461 246.303 -9 249.237C-7.51922 256.318 -4.82693 262.982 -1.32691 269.362C-1.2596 269.497 -1.04419 269.551 -0.748032 269.753C-0.317261 269.268 0.194242 268.797 0.557704 268.245C4.28657 262.524 5.92891 256.237 5.29621 249.439C4.82506 244.472 4.04427 239.545 2.07887 234.887V234.874Z" fill="#E15626"/>
<path d="M139.952 164.981C135.214 165.654 130.664 166.287 125.912 166.96C126.127 171.591 122.91 173.247 119.343 174.566C118.346 174.929 117.31 175.199 116.26 175.522C116.327 175.643 116.368 175.831 116.462 175.872C119.652 177.204 119.948 178.47 117.121 180.597C115.021 182.185 112.558 183.356 110.148 184.433C108.291 185.268 106.258 185.672 104.414 186.237C103.996 187.583 103.593 188.876 103.094 190.437C105.006 190.047 106.823 189.724 108.614 189.306C115.412 187.718 122.116 185.82 128.16 182.239C131.054 180.529 133.881 178.551 136.304 176.249C139.347 173.368 140.518 169.572 139.952 164.981Z" fill="#9ED9DE"/>
<path d="M92.2451 168.535H79.0796C80.7892 174 78.4334 178.187 75.068 181.835C71.9853 185.174 68.5123 188.149 65.2142 191.285C64.5276 191.931 63.8007 192.551 62.8584 193.399C65.6719 193.399 68.1218 193.412 70.5584 193.385C70.8815 193.385 71.2315 193.17 71.5411 193.008C73.668 191.904 75.768 190.733 77.9354 189.71C81.8527 187.866 85.5143 185.618 88.4354 182.414C89.9835 180.718 91.3162 178.766 92.4066 176.747C93.847 174.068 93.6854 171.254 92.2451 168.548V168.535Z" fill="#C12026"/>
<path d="M4.85237 146.565C1.24466 150.59 -1.35342 155.289 -3.92458 160C-4.20728 160.512 -4.30151 161.198 -4.30151 161.804C-4.30151 164.712 -4.85344 167.417 -6.41499 169.881C-6.44191 170.904 -6.44189 171.941 -6.44189 172.964C-5.08227 175.266 -4.58418 177.648 -5.08226 180.327C-5.23034 181.108 -4.85345 181.983 -4.53037 182.818C-1.46113 175.01 1.91774 167.431 6.15814 160.283C10.3716 153.175 14.8947 146.256 19.1755 139.431C16.8601 140.185 14.3563 141.006 11.8524 141.813C9.0524 142.715 6.79087 144.412 4.83893 146.579L4.85237 146.565Z" fill="#E15626"/>
<path d="M137.463 91.6824C139.63 97.2825 140.142 102.802 139.186 108.779C145.769 106.894 151.8 104.673 156.282 99.6382C157.48 98.2921 158.423 96.5421 158.988 94.8055C160.496 90.269 157.615 86.6478 152.836 87.1862C149.861 87.5228 146.913 88.3439 144.019 89.1651C141.892 89.7709 139.873 90.7401 137.463 91.669V91.6824Z" fill="#0AA1C6"/>
<path d="M80.4659 98.5354C76.4004 98.9123 72.8062 100.487 69.5889 102.749C67.2197 104.405 66.4119 107.218 65.7927 109.937C65.16 112.684 65.3888 115.416 66.3581 118.095C68.4581 123.978 75.4043 125.97 79.7389 124.839C81.1658 124.462 82.3639 123.709 83.0101 122.295C84.4639 119.037 85.9178 115.78 87.3447 112.522C87.4793 112.226 87.4524 111.876 87.5332 111.391C86.2947 112.091 85.2851 112.818 84.1678 113.249C81.5159 114.245 78.8774 114.312 76.6562 112.226C74.6235 110.301 74.4216 107.905 75.162 105.307C75.7677 103.18 76.8582 101.389 78.5812 100.003C79.2005 99.5046 79.8332 99.0335 80.4659 98.5489V98.5354Z" fill="#FFDBA6"/>
<path d="M112.303 28.2248C113.353 27.8075 114.39 27.3633 115.453 26.9594C121.875 24.5094 128.444 23.1363 135.363 23.9709C138.863 24.4017 142.107 23.594 145.123 21.8575C149.242 19.4748 152.998 16.6209 156.161 13.0536C157.777 11.2363 157.427 9.5805 155.098 8.86703C152.648 8.09972 150.117 8.22088 147.775 9.31126C141.057 12.4209 134.313 15.4767 127.717 18.8421C122.723 21.3998 117.957 24.4017 113.084 27.2287C112.734 27.4306 112.451 27.7133 112.128 27.969C112.182 28.0633 112.236 28.1575 112.29 28.2517L112.303 28.2248Z" fill="#E15626"/>
<path d="M57.1773 127.477C52.8426 127.437 49.3426 129.604 46.9868 133.71C45.7214 135.918 45.1561 138.354 45.1022 140.872C45.0349 143.793 45.0887 146.701 45.0887 149.837C48.8311 148.989 52.708 148.383 56.2888 146.754C58.8465 145.597 60.4484 143.403 61.5523 140.926C62.3061 139.243 62.7504 137.399 63.2619 135.608C63.5581 134.572 63.1811 133.845 62.36 133.064C60.6907 131.489 59.2369 129.699 57.1907 127.464L57.1773 127.477Z" fill="#C1A1CB"/>
<path d="M14.1943 246.626C16.1597 244.311 18.2866 242.049 20.0905 239.546C20.8713 238.469 21.3155 236.907 21.329 235.561C21.3828 231.899 20.629 228.346 18.9866 224.819C13.8039 226.192 8.71547 226.071 3.70775 224.388C1.15005 231.401 5.91545 241.672 14.1809 246.626H14.1943Z" fill="#FFDBA6"/>
<path d="M80.8965 126.226C68.9561 127.962 60.3676 118.889 65.8464 105.36C63.3022 106.989 60.6637 108.577 58.7253 110.893C57.783 112.01 57.5675 113.841 57.2714 115.402C55.9522 122.591 59.1964 129.874 65.1464 133.32C67.6907 134.801 70.4234 135.379 73.358 135.191C74.7042 135.097 75.7003 134.653 76.4138 133.441C77.8003 131.085 79.2811 128.797 80.8831 126.239L80.8965 126.226Z" fill="#E15626"/>
<path d="M33.1613 214.547C30.2132 219.11 26.094 222.26 20.9651 224.185C21.4093 226.716 22.4055 228.749 23.8728 230.579C25.044 232.033 26.5517 232.881 28.3824 233.245C31.4382 233.851 34.494 234.497 37.5498 235.143C39.9594 235.654 40.619 235.372 41.2383 232.976C41.7498 230.997 42.1537 228.964 42.3421 226.931C42.6114 223.956 41.7364 221.291 39.6229 219.083C37.819 217.199 35.7728 215.664 33.1613 214.56V214.547Z" fill="#FFDBA6"/>
<path d="M119.531 145.677C117.445 150.658 113.662 154.481 109.152 157.995C109.731 158.129 109.987 158.264 110.202 158.224C117.081 157.281 124.068 156.918 130.758 154.939C133.383 154.158 135.914 152.987 138.377 151.762C139.535 151.183 140.572 150.2 141.379 149.164C142.86 147.266 142.268 145.381 139.926 144.923C137.677 144.493 135.322 144.358 133.033 144.493C129.21 144.722 125.414 145.26 121.604 145.65C121.012 145.718 120.393 145.65 119.545 145.65L119.531 145.677Z" fill="#0AA1C6"/>
<path d="M92.4612 81.2633C94.6151 82.0306 96.5266 82.7171 98.6536 83.4845C99.2593 81.7344 99.5824 79.5267 101.723 78.746C102.759 78.369 103.998 78.221 105.088 78.3825C107.552 78.746 109.396 81.1825 109.436 83.7537C109.477 86.4864 108.05 87.7249 103.284 88.9903C103.917 91.0633 104.55 93.1364 105.209 95.3172C108.104 93.2037 111.24 91.521 113.582 89.071C116.261 86.271 117.796 82.6498 116.921 78.544C116.167 75.0171 112.95 72.2979 109.086 71.8671C107.592 71.7056 106.044 71.6248 104.55 71.8402C103.365 72.0017 102.005 72.3786 101.144 73.1325C98.1958 75.6902 95.4228 78.4633 92.4478 81.2767L92.4612 81.2633Z" fill="#E15626"/>
<path d="M29.6074 165.897C34.144 164.968 38.1959 164.295 41.8844 162.45C42.9344 161.925 43.9036 160.916 44.5229 159.893C46.0709 157.348 46.7709 154.521 46.6632 151.385C45.694 151.318 44.846 151.25 43.6613 151.156C43.5806 150.106 43.4729 149.083 43.4325 148.06C43.3921 147.104 43.4325 146.148 43.4325 144.923C38.3978 145.543 34.5343 147.4 32.4478 151.843C30.442 156.096 30.3747 160.781 29.6209 165.883L29.6074 165.897Z" fill="#C1A1CB"/>
<path d="M127.731 220.78C129.023 222.799 130.396 224.293 131.029 226.043C132.173 229.22 134.569 230.405 137.491 231.253C139.981 231.98 142.364 232.935 145.043 232.841C149.795 232.666 153.779 229.005 154.116 224.28C154.17 223.472 153.941 222.462 153.47 221.816C152.366 220.322 151.046 218.989 149.633 217.401C149.162 218.074 148.825 218.545 148.516 219.016C146.268 222.395 143.077 223.889 139.093 223.283C136.104 222.839 133.169 222.045 130.208 221.399C129.535 221.251 128.875 221.062 127.731 220.753V220.78Z" fill="#FFDBA6"/>
<path d="M15.8096 266.966C14.948 270.466 13.8172 273.939 13.3057 277.493C12.498 283.066 12.2826 288.707 13.548 294.266C13.8442 295.545 14.3288 296.851 15.0019 297.982C16.1596 299.92 17.6807 299.853 18.9327 297.941C19.3634 297.282 19.7134 296.528 19.9557 295.774C22.325 288.693 22.3788 281.518 20.1711 274.437C19.35 271.799 17.6673 269.43 16.3884 266.939C16.1999 266.953 16.0115 266.966 15.823 266.98L15.8096 266.966Z" fill="#E39D25"/>
<path d="M139.346 110.314C136.856 115.08 134.608 119.387 132.239 123.924C133.625 123.722 134.998 123.614 136.331 123.318C139.279 122.645 142.254 122.026 145.122 121.124C147.693 120.316 150.035 118.889 151.785 116.803C152.902 115.456 153.885 113.895 154.518 112.266C155.824 108.928 154.814 107.581 151.206 107.676C146.872 107.797 142.847 109.264 139.333 110.314H139.346Z" fill="#0AA1C6"/>
<path d="M130.583 82.0846C132.791 84.7769 134.985 87.4423 137.314 90.2692C141.514 88.4789 145.97 86.7019 149.968 83.9827C151.691 82.8115 153.199 81.425 153.979 79.4192C154.612 77.8173 154.599 76.2423 153.36 74.9096C152.566 74.0615 151.745 73.3346 150.345 73.8057C143.641 75.9999 137.099 78.625 130.812 81.8288C130.664 81.8961 130.583 82.0846 130.597 82.0711L130.583 82.0846Z" fill="#0AA1C6"/>
<path d="M39.7588 190.68C46.0992 190.572 54.1358 185.187 56.4647 179.291C56.7205 178.632 56.9358 177.932 56.9897 177.232C57.1243 175.67 56.3973 174.62 54.8762 174.297C53.4627 174.001 52.13 174.082 50.7839 174.916C45.8435 177.932 40.8627 180.88 35.8415 183.76C34.428 184.568 33.7415 185.645 33.8357 187.207C33.9165 188.647 34.9126 189.441 36.1511 189.859C37.3222 190.249 38.5607 190.424 39.7588 190.693V190.68Z" fill="#FFDBA6"/>
<path d="M109.18 65.3922C113.124 64.248 117.068 63.9922 121.066 65.3384C124.836 61.0172 128.887 57.0999 131.876 52.2806C132.616 51.0825 133.276 49.7768 133.707 48.4306C134.339 46.4517 133.478 45.2537 131.418 45.2267C129.52 45.1998 127.77 45.6979 126.33 47.1787C122.789 50.8402 119.141 54.3941 115.574 58.0287C113.326 60.3037 111.132 62.6326 108.897 64.9345C108.991 65.0826 109.085 65.2441 109.18 65.3922Z" fill="#0AA1C6"/>
<path d="M103.875 70.5347C115.56 68.8116 121.295 77.0097 116.651 86.9982C117.418 86.6752 117.956 86.5136 118.441 86.2444C120.945 84.8713 123.381 83.3636 125.953 82.1251C127.406 81.4117 127.797 80.429 127.797 78.9482C127.77 71.9616 123.206 66.9539 116.22 66.3212C113.433 66.0655 110.701 66.3616 108.035 67.2366C106.379 67.7751 105.033 68.7443 103.889 70.5482L103.875 70.5347Z" fill="#C12026"/>
<path d="M76.0904 276.874C76.7634 274.424 75.875 272.728 75.0134 271.099C71.8634 265.136 67.798 259.859 62.6288 255.497C60.246 253.492 57.7422 251.634 54.8345 249.359C55.1037 250.409 55.2114 250.934 55.3729 251.445C56.9345 256.763 58.9403 261.865 61.9018 266.59C64.5403 270.79 68.0403 273.967 72.6442 275.838C73.6942 276.269 74.8115 276.497 76.0904 276.861V276.874Z" fill="#E39D25"/>
<path d="M36.7696 203.684C36.0292 206.807 35.3427 209.715 34.6023 212.824C37.2812 214.965 40.3773 216.405 44.2139 215.665C47.4447 215.032 50.7293 214.628 53.9332 213.888C56.3832 213.322 56.6659 212.34 55.212 210.28C52.7081 206.726 49.4639 204.142 45.0485 203.536C43.1504 203.28 41.1985 203.469 39.26 203.495C38.385 203.509 37.4965 203.63 36.7831 203.684H36.7696Z" fill="#FFDBA6"/>
<path d="M95.1119 176.222C101.372 175.751 107.658 175.387 113.931 174.782C116.866 174.499 119.693 173.61 122.25 172.035C123.947 170.985 125.01 169.585 124.795 167.283C114.698 167.714 104.683 168.145 94.708 168.576C94.8292 171.066 94.9638 173.516 95.0984 176.208L95.1119 176.222Z" fill="#0AA1C6"/>
<path d="M122.721 65.6754C124.525 67.6139 126.033 69.2293 127.756 71.0735C133.1 67.4389 138.741 64.0331 143.143 58.985C143.6 58.4465 144.004 57.8408 144.327 57.2081C145.579 54.785 144.677 53.008 141.972 52.5638C139.952 52.2407 138.041 52.6311 136.291 53.6542C130.973 56.7504 126.787 61.1119 122.721 65.6754Z" fill="#0AA1C6"/>
<path d="M118.092 177.716C115.13 176.491 112.276 176.491 94.7224 177.595C92.0032 180.879 89.4724 183.922 86.8608 187.072C87.6551 187.072 88.4897 187.126 89.3243 187.072C95.732 186.601 102.113 185.887 108.265 183.922C110.459 183.222 112.586 182.239 114.632 181.189C116.032 180.476 117.324 179.466 118.092 177.729V177.716Z" fill="#0AA1C6"/>
<path d="M120.904 135.985C120.783 138.852 120.661 141.571 120.527 144.533C121.483 144.466 122.6 144.425 123.69 144.277C127.742 143.739 131.821 143.362 135.819 142.541C138.121 142.069 140.329 140.952 142.483 139.929C143.398 139.498 144.192 138.65 144.852 137.842C145.673 136.846 145.565 135.689 144.892 134.598C144.26 133.575 143.412 133.212 142.187 133.414C139.373 133.871 136.56 134.289 133.733 134.612C129.937 135.042 126.113 135.365 122.317 135.742C121.806 135.796 121.294 135.917 120.904 135.985Z" fill="#0AA1C6"/>
<path d="M-7.8835 237.742C-6.67195 236.826 -5.39308 236.18 -4.03346 235.642C-2.90268 235.184 -1.93347 234.026 -1.19308 232.963C0.583852 230.432 1.25693 227.942 1.66077 223.674C-0.910392 222.274 -3.37385 220.605 -5.51424 218.451C-6.12001 224.899 -7.1162 231.32 -7.89697 237.755L-7.8835 237.742Z" fill="#FFDBA6"/>
<path d="M103.902 123.372C104.4 123.116 105.49 122.82 106.231 122.133C111.737 116.991 114.052 110.597 113.271 103.139C113.042 100.918 111.508 100.298 109.637 101.577C106.796 103.516 104.629 106.141 103.242 109.277C102.017 112.037 101.048 114.904 99.9712 117.731C98.9885 120.329 100.873 123.466 103.902 123.385V123.372Z" fill="#FFDBA6"/>
<path d="M129.251 158.735C127.312 158.56 125.818 158.183 124.378 158.318C118.616 158.87 112.868 159.583 107.106 160.256C106.662 160.31 106.177 160.337 105.814 160.552C102.718 162.437 99.6621 164.348 96.0947 166.556C100.281 166.556 103.889 166.664 107.483 166.529C111.764 166.368 116.031 166.072 120.299 165.681C123.664 165.372 126.262 163.5 128.43 161.01C128.793 160.593 128.833 159.906 129.237 158.721L129.251 158.735Z" fill="#0AA1C6"/>
<path d="M84.988 216.31C88.6496 223.001 104.4 227.955 113.85 223.674C113.715 222.234 112.49 221.695 111.481 221.076C107.24 218.464 102.623 216.916 97.7227 216.095C93.5227 215.382 89.3631 215.503 84.988 216.324V216.31Z" fill="#E39D25"/>
<path d="M28.6532 160.889C22.9454 162.343 18.8262 165.278 16.6858 170.595C15.5281 173.476 14.4511 176.397 13.1992 179.641C14.0473 179.426 14.6262 179.345 15.1377 179.13C19.0954 177.487 23.0531 175.886 26.9705 174.149C29.932 172.83 31.6551 170.461 32.2474 167.297C31.9781 167.149 31.8301 166.987 31.6954 167.001C28.5724 167.27 28.0878 166.785 28.4378 163.649C28.532 162.787 28.5858 161.926 28.6666 160.876L28.6532 160.889Z" fill="#C1A1CB"/>
<path d="M128.376 72.5004C128.82 75.1658 129.224 77.5216 129.614 79.8773C136.453 77.1312 143.278 74.3715 150.17 71.5985C150.345 68.0177 148.622 66.0119 145.015 65.8773C143.951 65.8369 142.847 65.8773 141.838 66.16C136.991 67.4927 132.549 69.6869 128.376 72.5138V72.5004Z" fill="#0AA1C6"/>
<path d="M18.2466 203.212C10.7485 201.947 3.33114 201.556 -3.19774 196.791C-3.41312 197.895 -3.65544 198.77 -3.74967 199.672C-3.83044 200.372 -3.58813 201.139 -3.74967 201.799C-4.50352 204.693 -2.83429 206.362 -0.774665 207.776C2.96766 210.347 7.19461 210.858 11.5158 209.97C14.9754 209.256 16.6985 206.47 18.2735 203.212H18.2466Z" fill="#EF4723"/>
<path d="M88.8393 201.166C75.3777 201.287 61.9699 201.489 48.6025 202.903C62.2526 208.099 75.7681 209.822 88.8393 201.166Z" fill="#E15626"/>
<path d="M33.2284 210.199C29.3245 212.084 25.7572 211.895 22.3918 208.92C20.3726 212.111 17.7206 214.238 14.3822 215.584C13.7764 215.826 13.1437 216.661 13.0225 217.32C12.8341 218.33 12.9014 219.488 13.1975 220.47C14.0591 223.392 15.1764 223.93 18.1245 223.136C25.1649 221.224 30.2534 217.011 33.2284 210.199Z" fill="#359980"/>
<path d="M122.803 134.074C126.962 133.643 131.459 133.199 135.955 132.701C137.449 132.539 138.943 132.283 140.437 132.014C142.699 131.597 144.934 129.214 145.324 126.98C145.512 125.889 145.041 125.243 144.045 125.001C143.453 124.853 142.807 124.799 142.201 124.826C138.566 125.041 134.918 125.283 131.284 125.566C130.785 125.606 130.18 125.781 129.87 126.118C127.487 128.73 125.159 131.408 122.803 134.074Z" fill="#0AA1C6"/>
<path d="M89.1752 104.485C89.1078 103.866 89.0944 103.233 88.9732 102.627C88.1521 98.8446 85.379 97.5254 81.9867 99.3561C79.1059 100.918 77.127 103.22 76.4943 106.518C75.7674 110.354 78.7289 113.047 82.5924 112.279C85.7963 111.647 89.5655 107.46 89.1752 104.472V104.485Z" fill="#EF4723"/>
<path d="M75.175 155.033C75.1076 157.066 75.9961 158.062 77.5576 158.035C78.2442 158.035 79.0115 157.847 79.6038 157.51C84.1673 154.912 87.2231 151.156 88.2327 145.92C88.3808 145.179 88.3269 144.291 88.0577 143.591C87.4384 141.935 85.6346 141.679 84.5038 143.026C81.65 146.445 78.8231 149.877 76.023 153.337C75.5519 153.929 75.323 154.71 75.175 155.02V155.033Z" fill="#FFDBA6"/>
<path d="M23.0931 203.401C21.6797 203.334 20.6431 203.28 19.4989 203.212C19.0681 204.06 18.6643 204.855 18.2604 205.635C16.1066 209.768 13.145 212.124 6.76422 211.559C2.09304 211.155 0.316122 210.266 -3.99159 207.103C-4.89352 207.951 -4.81276 208.759 -3.96468 209.593C3.6142 217.091 15.8373 216.782 21.397 207.574C22.1104 206.389 22.4605 205.003 23.0931 203.414V203.401Z" fill="#E3A294"/>
<path d="M103.108 186.951C99.8635 187.247 97.0501 187.503 94.2366 187.772C91.3154 188.055 88.3942 188.297 85.4865 188.661C84.3827 188.809 83.2654 189.172 82.2423 189.616C80.0884 190.559 77.975 191.622 75.3096 192.901C77.3019 192.901 78.6884 192.995 80.0615 192.888C85.8231 192.403 91.5846 191.891 97.3327 191.313C100.604 190.989 101.425 190.343 103.108 186.938V186.951Z" fill="#0AA1C6"/>
<path d="M11.9334 216.701C8.68918 216.459 5.8757 216.243 2.80646 216.001C1.72953 217.832 2.32183 219.878 3.08914 221.857C3.26414 222.314 4.04492 222.624 4.61031 222.812C7.43724 223.714 10.3046 224.293 13.4815 223.93C12.943 222.637 12.2565 221.48 11.9873 220.214C11.7315 219.03 11.9334 217.764 11.9334 216.687V216.701Z" fill="#359980"/>
<path d="M23.0384 207.923C26.498 210.696 29.3384 211.087 32.3807 209.256C34.6961 207.869 35.2481 206.604 34.7769 203.616H24.1422C23.7653 205.056 23.4153 206.402 23.0249 207.923H23.0384Z" fill="#359980"/>
<path d="M104.037 79.4061C101.775 79.3657 99.9443 81.3311 99.9712 83.7811C99.9847 85.3696 101.815 87.4427 103.175 87.4292C106.11 87.4023 108.237 85.8677 108.237 83.7408C108.237 81.4388 106.298 79.4465 104.023 79.4061H104.037Z" fill="#FFDBA6"/>
<path d="M-5.28467 215.92C-3.35966 218.356 -1.54233 219.824 0.907678 220.954C1.05576 219.124 1.19038 217.333 1.33846 215.354C-0.600012 214.089 -2.71347 212.716 -5.04233 211.195C-5.09617 212.77 -5.16351 214.345 -5.28467 215.92Z" fill="#359980"/>
</svg>
