<svg width="204" height="378" viewBox="0 0 204 378" fill="none" xmlns="http://www.w3.org/2000/svg">
<path d="M149.916 246.976C148.516 246.491 147.48 247.366 146.389 247.824C141.947 249.682 137.558 251.728 133.049 253.411C128.512 255.107 123.747 256.049 118.86 255.712C117.016 255.591 115.091 255.295 113.381 254.622C108.508 252.724 105.843 249.076 105.641 243.772C105.439 238.307 107.081 233.326 110.083 228.857C112.318 225.532 114.902 222.435 117.433 219.312C120.166 215.947 119.951 215.314 115.885 213.887C112.52 212.703 109.208 211.356 105.991 209.808C102.235 208.005 99.1255 205.312 96.5543 202.014C96.2312 201.597 95.9351 201.139 95.6658 200.681C95.5985 200.56 95.6658 200.358 95.6927 199.941C97.4427 200.062 99.1928 200.183 100.943 200.291C103.622 200.466 106.422 200.183 108.926 200.91C111.429 201.637 113.61 203.428 115.979 204.666C125.241 209.539 134.906 210.01 144.868 207.278C145.797 207.022 146.726 206.793 147.991 206.47C146.995 207.749 146.214 208.718 145.487 209.728C144.128 211.626 143.71 213.806 146.726 215.153C146.955 215.247 147.116 215.476 147.506 215.826C146.443 216.082 145.555 216.337 144.653 216.526C132.416 219.178 123.168 226.245 115.777 236.045C115.037 237.028 114.458 238.185 114.027 239.343C113.058 241.968 114.202 244.082 116.989 244.432C118.914 244.674 120.933 244.58 122.845 244.284C133.695 242.587 142.997 237.795 150.805 230.082C152.716 228.197 154.533 226.232 156.391 224.293C156.862 223.808 157.347 223.337 157.912 222.772C158.195 225.626 158.397 228.251 158.733 230.862C158.882 232.007 159.258 233.124 159.649 234.214C160.497 236.61 161.641 237.351 164.132 236.947C165.882 236.664 167.591 236.099 169.341 235.709C170.162 235.52 170.997 235.426 172.02 235.722C171.374 236.301 170.741 236.88 170.095 237.445C161.991 244.553 155.893 252.966 153.16 263.574C152.124 267.613 151.989 271.691 152.299 275.811C152.353 276.511 152.514 277.224 152.743 277.897C153.483 279.97 155.058 280.886 157.158 280.253C158.424 279.876 159.676 279.27 160.78 278.543C171.105 271.745 177.566 262.416 179.168 250.005C179.572 246.841 179.855 243.664 180.232 240.11C182.318 242.412 184.149 244.432 186.007 246.451C188.012 248.618 188.618 248.699 190.907 246.801C192.347 245.603 193.666 244.257 195.039 242.978C195.537 242.52 196.062 242.076 196.924 241.322C195.982 246.962 194.797 252.118 195.726 257.422C196.668 262.712 198.674 267.518 202.282 271.799C200.693 274.909 199.091 278.059 197.395 281.397C193.545 278.839 190.786 275.703 189.386 271.489C188.793 269.713 188.349 267.895 187.837 266.091C187.568 265.109 187.205 263.978 186.074 264.045C185.347 264.086 184.539 264.826 183.987 265.445C183.234 266.307 182.695 267.37 182.062 268.339C178.805 273.401 175.009 278.032 170.378 281.895C167.268 284.493 163.93 286.688 159.864 287.536C154.17 288.707 149.081 286.391 146.362 281.263C144.033 276.888 143.831 272.176 144.545 267.424C145.595 260.451 147.493 253.68 149.93 246.962L149.916 246.976Z" fill="#E3A294"/>
<path d="M104.363 307.351C104.013 308.024 103.609 308.684 103.313 309.397C101.725 313.086 99.9075 316.693 98.6421 320.476C96.5421 326.763 97.1478 332.995 100.069 338.959C101.765 342.419 103.569 345.811 106.477 348.449C110.031 351.68 112.925 351.923 116.788 349.042C118.417 347.83 119.952 346.39 121.217 344.801C123.385 342.082 125.31 339.161 127.329 336.334C127.773 335.715 128.231 335.095 129.011 334.005C128.581 342.351 131.852 348.651 136.913 354.117C140.575 358.074 145.017 360.551 150.685 359.905C153.31 359.609 155.679 358.626 157.914 357.24C161.858 354.79 164.94 351.465 167.552 347.682C173.462 339.121 176.652 329.549 178.039 319.305C178.241 317.838 178.55 316.384 178.833 314.809C182.952 317.528 185.187 322.522 184.069 326.722C181.633 335.863 179.062 344.976 176.491 354.076C175.952 355.961 175.023 357.738 174.485 359.609C173.435 363.271 170.891 365.532 167.619 367.026C159.287 370.836 150.765 371.415 142.123 368.103C136.913 366.111 133.05 362.503 130.277 357.698C129.604 356.54 129.038 355.315 128.285 354.211C127.248 352.703 126.4 352.569 124.933 353.646C123.923 354.386 122.994 355.221 122.038 356.028C118.767 358.774 114.998 359.501 110.973 358.451C102.775 356.311 96.2325 351.774 91.6959 344.519C89.919 341.678 88.9094 338.569 88.3574 335.257C87.5767 330.572 87.3209 330.438 82.6632 331.326C79.3112 331.959 76.0939 331.582 73.0112 330.074C69.767 328.486 66.8862 326.372 64.315 323.869C55.8073 315.59 50.0322 305.83 48.5784 293.876C48.2419 291.157 48.3631 288.343 48.6188 285.611C48.8611 283.093 48.3496 281.303 45.8996 280.145C43.0457 278.799 41.1476 276.403 39.8014 273.603C37.7284 269.309 36.6245 264.732 35.8707 260.034C34.9957 254.582 35.938 249.385 37.4053 244.189C39.0341 238.387 41.4572 232.935 44.5803 227.793C45.1323 226.891 45.7515 226.03 46.613 224.751C48.888 232.33 53.7477 235.251 61.3265 234.107C60.8419 234.483 60.3573 234.874 59.8592 235.224C56.6419 237.485 53.3438 239.626 50.2342 242.022C44.6476 246.316 41.5784 252.145 40.4341 259.011C39.9361 262.039 40.138 265.068 41.2015 267.989C42.4399 271.395 44.9034 273.347 48.4303 274.047C52.4823 274.841 56.4534 274.249 60.3573 273.212C63.3592 272.418 66.2939 271.395 69.8881 270.291C68.8516 271.166 68.3131 271.664 67.7343 272.109C64.6785 274.478 61.9189 277.143 59.6977 280.307C55.3496 286.499 54.0977 293.176 56.79 300.365C59.7785 308.361 64.8131 314.876 71.6112 319.978C76.1343 323.37 81.1689 323.976 86.244 321.311C89.1517 319.776 91.9382 317.945 94.5228 315.913C97.2555 313.772 99.6786 311.228 102.236 308.872C102.856 308.293 103.475 307.715 104.094 307.136L104.404 307.378L104.363 307.351Z" fill="#006094"/>
<path d="M202.712 195.122C202.456 195.122 202.173 195.189 201.945 195.122C185.912 189.764 170.202 183.76 155.812 174.606C134.381 160.969 118.281 142.594 106.542 120.248C103.419 114.298 100.956 108.065 100.054 101.335C99.6364 98.2115 99.6499 95.1018 100.767 92.073C103.002 86.0556 107.848 83.1345 114.215 83.9152C119.088 84.5075 123.517 86.3518 127.771 88.6941C135.175 92.773 141.865 97.8211 148.058 103.542C172.1 125.74 191.418 151.412 204.772 181.418C205.947 184.065 206.203 187.063 205.539 190.41C204.987 189.427 204.583 188.835 204.287 188.189C192.212 162.881 176.233 140.306 156.579 120.342C150.669 114.352 144.289 108.9 137.477 103.946C134.071 101.469 130.463 99.3288 126.533 97.7807C123.921 96.7576 121.242 96.1788 118.415 96.448C114.323 96.8518 111.752 99.248 111.59 103.327C111.51 105.602 111.779 107.998 112.425 110.179C113.381 113.423 114.538 116.654 116.06 119.656C126.937 141.141 141.623 159.462 161.654 173.112C174.227 181.687 187.608 188.835 201.823 194.368C202.147 194.489 202.47 194.65 202.793 194.785C202.766 194.893 202.752 194.987 202.725 195.095L202.712 195.122Z" fill="#E3A294"/>
<path d="M34.9407 265.701C35.8696 268.312 36.5696 270.412 37.3638 272.472C38.9388 276.524 41.4023 279.849 45.4139 281.76C47.0562 282.541 47.2177 283.807 47.0427 285.314C46.06 293.58 48.0388 301.307 51.5254 308.67C55.0119 316.034 59.885 322.401 66.3332 327.436C68.0159 328.741 69.8601 329.872 71.7448 330.882C75.4198 332.861 79.3236 333.44 83.4159 332.349C84.0217 332.188 84.6275 332.053 85.2467 331.932C85.4083 331.905 85.5967 331.959 86.1621 332.026C86.391 332.874 86.7679 333.843 86.8891 334.853C88.5314 349.082 101.428 358.115 111.51 359.986C115.643 360.753 119.305 359.892 122.562 357.28C123.814 356.284 125.026 355.247 126.574 353.982C127.328 355.14 128.055 356.095 128.607 357.145C132.47 364.482 138.46 369.045 146.524 370.795C154.13 372.451 161.426 371.482 168.413 368.036C168.857 367.82 169.301 367.592 170.001 367.659C169.705 368.144 169.449 368.655 169.086 369.099C164.374 374.969 158.007 377.271 150.711 377.526C143.589 377.782 136.576 376.799 129.805 374.807C97.8737 365.411 71.1794 348.436 52.1447 320.516C42.21 305.951 36.5965 289.864 34.9811 272.351C34.7926 270.332 34.9542 268.272 34.9542 265.674L34.9407 265.701Z" fill="#7F277C"/>
<path d="M72.041 44.0419C71.691 44.0419 71.341 44.0149 70.991 44.0419C67.5853 44.2976 66.3468 46.088 67.5583 49.2784C68.1775 50.9342 69.1333 52.4688 70.143 54.4881C68.9987 53.815 68.1776 53.3169 67.3295 52.8457C64.866 51.4592 62.3352 50.4765 59.4275 51.338C56.2775 52.2669 55.0525 54.5958 56.5871 57.4765C57.489 59.1727 58.889 60.6266 60.1544 62.1073C60.8948 62.9689 61.7968 63.6823 63.0218 64.84C61.9718 64.7593 61.4198 64.7189 60.8679 64.665C59.4544 64.5439 58.0275 64.2477 56.6275 64.342C53.4102 64.5573 51.3909 66.3612 50.5698 69.4708C50.4352 69.9824 50.3679 70.5074 50.2332 71.1939C47.7159 70.7228 45.4005 70.117 43.3274 68.5824C37.8351 64.517 32.8408 59.9669 28.8966 54.3534C25.5581 49.615 23.1216 44.513 22.2196 38.738C21.6273 34.9687 21.8293 31.2533 23.0543 27.6322C24.7235 22.7456 27.9408 20.5648 33.1101 21.2514C36.1793 21.6552 39.2755 22.3283 42.1832 23.3648C50.0582 26.1783 57.3544 30.0687 63.5602 35.8168C66.4275 38.4688 69.3891 41.013 72.3237 43.6111L72.041 44.0553V44.0419Z" fill="#9ED9DE"/>
<path d="M123.652 257.624C122.871 258.243 122.265 258.728 121.673 259.199C112.6 266.509 108.279 275.905 109.275 287.616C109.611 291.601 109.692 291.722 106.663 294.159C101.871 298.022 97.0113 301.818 92.0036 305.386C88.8805 307.62 85.4075 309.29 81.5844 310.111C77.2632 311.04 73.817 309.707 71.2997 306.14C68.0958 301.616 67.8535 296.703 69.5362 291.574C70.7612 287.859 72.942 284.709 75.5266 281.828C79.6055 277.291 83.994 273.078 89.0421 269.659C95.921 265.014 102.975 260.626 109.975 256.17C110.5 255.834 111.388 255.564 111.9 255.78C115.386 257.22 119.008 257.435 122.683 257.301C122.911 257.301 123.127 257.435 123.652 257.597V257.624Z" fill="#F47A24"/>
<path d="M135.754 65.6215C133.789 64.8003 131.837 63.9657 129.858 63.1714C124.85 61.1387 119.667 60.7214 114.35 61.408C112.492 61.6503 110.635 61.906 108.763 62.0541C103.688 62.458 98.9634 61.2464 94.7499 58.4868C86.6326 53.156 78.3671 48.0002 71.394 41.081C67.9748 37.6886 64.1382 34.7271 60.5171 31.5501C55.6036 27.229 51.7132 22.0193 47.5401 17.052C47.6478 16.9039 47.7554 16.7693 47.8631 16.6212C48.3747 16.9712 48.8862 17.3078 49.3843 17.6712C52.117 19.6635 54.769 21.7905 57.6094 23.6078C60.3017 25.3174 63.3709 26.004 66.5882 25.7213C77.4652 24.7655 87.4133 27.9559 97.0384 32.5328C98.0749 33.0309 99.0711 33.6501 100.013 34.3232C112.775 43.2617 124.352 53.6137 135.377 64.5984C135.619 64.8407 135.808 65.1368 136.037 65.4061C135.942 65.4868 135.848 65.5811 135.767 65.6618L135.754 65.6215Z" fill="#E15626"/>
<path d="M32.0198 153.553C40.8372 159.462 50.7045 162.572 60.7469 164.578C60.9488 166.893 60.8681 168.98 61.3527 170.918C62.1469 174.122 64.0988 176.693 66.6835 178.753C71.3546 182.455 76.6047 185.08 82.1643 187.139C91.6816 190.666 101.549 192.713 111.645 193.561C120.005 194.261 128.405 194.476 136.765 195.189C143.778 195.795 150.778 196.67 157.765 197.653C166.447 198.878 175.036 199.013 183.463 196.213C185.24 195.62 186.922 194.786 188.686 194.139C189.319 193.911 190.099 193.682 190.692 193.857C193.761 194.759 196.803 195.795 199.967 197.289C199.065 197.639 198.176 198.057 197.248 198.326C191.297 200.063 185.172 200.749 179.007 201.018C169.517 201.436 160.094 200.52 150.643 199.847C142.445 199.268 134.234 198.891 126.022 198.461C115.32 197.895 104.605 197.545 93.9163 196.738C83.2951 195.93 72.8892 193.857 62.7661 190.384C50.5968 186.197 41.8199 178.389 36.7045 166.543C34.9141 162.397 33.2583 158.184 31.5487 154.01C31.7102 153.862 31.8583 153.701 32.0198 153.553Z" fill="#7F277C"/>
<path d="M170.163 104.579C166.245 102.277 162.018 100.783 157.562 100.474C152.043 100.097 147.13 98.212 142.418 95.5466C141.18 94.8466 139.968 94.0658 138.824 93.2312C134.26 89.9196 129.576 86.8235 124.433 84.4677C121.001 82.8927 117.447 81.7754 113.664 81.3984C112.695 81.3042 111.605 80.7657 110.878 80.0927C106.718 76.1753 102.599 72.2042 98.5603 68.1522C94.266 63.8445 90.0795 59.4426 85.8525 55.081C85.3141 54.5291 84.816 53.9502 84.5064 53.0618C85.0718 53.3983 85.6506 53.7079 86.1891 54.0983C88.666 55.8618 91.1026 57.6791 93.5795 59.4291C98.9642 63.1984 104.914 64.6253 111.389 63.4407C120.058 61.8657 128.27 63.1176 136.145 66.9811C138.178 67.9772 139.968 69.2022 141.57 70.8311C151.249 80.7523 160.47 91.0773 168.978 102.049C169.516 102.749 170.041 103.462 170.566 104.175C170.432 104.31 170.311 104.445 170.176 104.579H170.163Z" fill="#E15626"/>
<path d="M41.5367 68.852C36.5155 68.2193 31.7905 67.3309 27.0385 67.1155C22.3404 66.9001 17.6154 67.3713 12.6212 67.5463C12.5538 67.2097 12.3654 66.5636 12.2981 65.9039C11.45 58.7154 10.8442 51.4731 8.59615 44.5538C7.27692 40.4884 5.62115 36.5173 3.89807 32.5999C1.71729 27.6326 0.384583 22.4633 0.0615044 17.0787C-0.275036 11.6941 0.653805 10.7517 5.94421 10.1998C11.6923 9.60751 17.3462 10.0248 22.9193 11.6537C32.4635 14.4268 41.079 19.0172 49.0752 25.021C48.5771 24.873 48.079 24.7653 47.5944 24.5768C44.5925 23.446 41.6444 22.0999 38.5751 21.2249C36.2866 20.5787 33.8367 20.3768 31.454 20.2691C27.1059 20.0806 24.1578 22.2614 22.5289 26.2191C20.8462 30.2845 20.5097 34.5384 21.1693 38.8461C22.5828 47.9731 27.4289 55.2693 33.6616 61.7578C35.5059 63.6828 37.6328 65.352 39.6251 67.1424C40.204 67.6674 40.7963 68.179 41.5636 68.8386L41.5367 68.852Z" fill="#7F277C"/>
<path d="M156.337 289.582C161.372 289.636 165.747 287.549 170.176 284.359C169.826 286.486 169.516 288.168 169.274 289.864C168.507 295.303 169.072 300.526 171.643 305.48C172.007 306.18 172.087 307.23 171.872 307.997C169.099 317.703 165.855 327.234 161.13 336.199C160.053 338.232 158.747 340.211 157.253 341.961C152.043 348.059 145.151 347.063 141.597 339.834C139.618 335.809 139.43 331.582 140.197 327.288C141.058 322.415 142.97 317.878 145.057 313.436C147.87 307.459 150.791 301.549 153.645 295.586C154.56 293.661 155.395 291.695 156.324 289.595L156.337 289.582Z" fill="#F47A24"/>
<path d="M173.379 159.34C173.15 158.317 172.921 157.375 172.733 156.419C171.104 148.154 167.443 144.654 159.002 143.469C158.935 142.688 158.921 141.827 158.787 140.979C158.464 138.96 158.329 136.86 157.669 134.961C155.677 129.267 151.679 126.063 145.177 126.063C146.658 121.527 146.765 117.058 145.581 112.481C171.602 134.719 190.556 162.127 205.525 192.496C205.377 192.698 205.216 192.887 205.068 193.089C203.991 192.793 202.847 192.604 201.823 192.16C196.668 189.925 191.445 187.812 186.437 185.294C174.685 179.398 163.31 172.883 153.16 164.402C144.114 156.85 136.333 148.167 129.454 138.636C129.198 138.273 128.942 137.91 128.727 137.519C128.646 137.385 128.687 137.183 128.673 137.075C131.581 136.496 134.502 135.917 137.571 135.298C137.773 136.133 137.989 137.142 138.271 138.152C139.954 143.981 143.319 148.127 149.539 149.46C151.006 149.769 152.46 150.213 154.008 150.617C154.129 151.6 154.156 152.488 154.344 153.337C154.748 155.154 155.085 157.012 155.717 158.762C156.794 161.71 158.962 163.635 161.977 164.55C164.104 165.196 166.258 165.789 168.318 166.367C168.479 166.596 168.654 166.731 168.681 166.892C169.529 171.644 172.369 174.66 176.785 176.41C180.608 177.917 184.377 179.533 188.173 181.081C188.591 181.256 189.008 181.404 189.439 181.498C190.596 181.727 191.296 181.108 190.866 180.044C189.035 175.494 187.379 170.85 185.118 166.529C183.058 162.585 179.194 160.74 174.941 159.785C174.429 159.664 173.931 159.515 173.379 159.367V159.34Z" fill="#EF4723"/>
<path d="M109.948 293.553C110.513 294.28 110.89 294.765 111.469 295.505C110.419 296.865 109.396 298.291 108.265 299.638C103.137 305.749 97.5769 311.43 91.1423 316.168C89.1499 317.636 86.9287 318.888 84.6807 319.924C80.8172 321.715 77.0076 321.243 73.4537 318.968C72.1883 318.161 70.9633 317.205 69.8729 316.168C65.0536 311.551 61.069 306.328 58.7133 300.001C56.3575 293.701 57.0036 287.643 60.6921 282.097C62.5094 279.378 64.7171 276.847 67.0863 274.572C71.0844 270.722 75.5672 267.572 80.6153 265.095C87.3461 261.797 93.8076 257.974 100.39 254.366C102.262 253.343 104.133 252.32 106.085 251.257C107.39 252.495 108.602 253.653 109.988 254.959C109.019 255.457 108.185 255.901 107.35 256.318C96.0288 262.026 85.6095 269.012 76.6979 278.099C73.5479 281.303 70.721 284.749 68.8768 288.895C66.346 294.603 66.0094 300.297 69.2402 305.87C71.1114 309.115 73.7902 311.511 77.6537 311.834C79.7268 312.009 81.9345 311.672 83.9672 311.12C88.1538 310.003 91.8961 307.822 95.3423 305.265C99.5692 302.128 103.621 298.749 107.74 295.465C108.427 294.913 109.087 294.32 109.962 293.566L109.948 293.553Z" fill="#FFDBA6"/>
<path d="M105.223 234.537C104.805 237.593 104.375 240.312 104.092 243.045C103.998 243.96 103.675 244.526 102.88 244.93C92.5553 250.206 82.5937 256.224 71.6763 260.303C66.9782 262.053 62.1994 263.533 57.0974 263.358C55.859 263.318 54.5936 263.17 53.4224 262.807C50.5416 261.918 49.3435 259.885 50.2455 257.032C50.8512 255.107 51.7262 253.195 52.8436 251.499C55.8993 246.868 59.9648 243.193 64.8917 240.716C69.509 238.387 74.3283 236.503 79.0533 234.403C80.1706 233.905 81.2745 233.958 82.4187 234.349C84.0206 234.901 85.6495 235.399 87.2514 235.91C92.838 237.701 98.3303 237.445 103.715 235.076C104.186 234.874 104.684 234.726 105.223 234.524V234.537Z" fill="#F47A24"/>
<path d="M142.997 278.194C144.128 280.388 145.258 282.582 146.483 284.965C145.581 286.419 144.572 287.98 143.643 289.582C138.474 298.561 133.426 307.594 128.149 316.505C125.429 321.096 122.401 325.525 119.358 329.913C118.416 331.273 117.07 332.444 115.71 333.427C113.26 335.204 111.308 334.867 109.491 332.417C106.96 329.011 106.139 325.067 107.027 320.988C107.687 317.973 108.697 314.957 110.002 312.157C113.327 304.996 117.81 298.548 122.858 292.49C123.989 291.13 125.322 290.201 127.004 289.717C128.378 289.313 129.71 288.815 131.083 288.411C135.943 286.944 139.591 284.009 142.028 279.553C142.243 279.163 142.485 278.786 142.728 278.409C142.768 278.342 142.862 278.301 142.997 278.207V278.194Z" fill="#F47A24"/>
<path d="M152.03 288.68C153.12 288.963 154.036 289.205 155.234 289.515C154.762 290.578 154.399 291.453 153.982 292.301C150.643 299.113 147.237 305.898 143.966 312.736C141.53 317.811 139.403 323.021 138.595 328.648C137.935 333.225 138.676 337.559 141.018 341.544C144.868 348.127 152.07 349.123 157.401 343.684C159.124 341.921 160.726 339.875 161.803 337.667C164.186 332.794 166.339 327.786 168.345 322.738C170.176 318.121 171.697 313.369 173.447 308.388C174.739 309.842 175.911 311.053 176.934 312.373C177.257 312.79 177.391 313.544 177.297 314.069C176.315 319.144 175.52 324.273 174.161 329.254C171.926 337.452 168.184 344.963 162.166 351.088C160.134 353.161 157.697 354.952 155.153 356.365C150.549 358.936 145.757 358.734 141.53 355.517C134.893 350.469 130.976 343.779 130.384 335.325C130.209 332.848 130.868 330.559 132.08 328.405C138.514 317.057 144.384 305.44 149.607 293.486C150.32 291.871 151.182 290.309 152.016 288.653L152.03 288.68Z" fill="#FFDBA6"/>
<path d="M12.7825 69.7003C22.6633 67.6541 32.0999 68.8522 41.5365 71.4772C40.8231 71.733 40.0827 71.9349 39.4096 72.2714C37.323 73.2811 35.1288 74.1291 33.2307 75.408C28.7884 78.383 26.4191 82.6772 26.2845 88.0484C25.9345 102.345 31.6691 114.029 41.8461 123.749C43.5154 125.351 45.4673 126.656 47.2846 128.11C47.8096 128.527 48.3481 128.958 49.3442 129.752C41.2538 128.204 34.1461 125.647 27.1865 122.604C25.2345 121.756 22.8384 121.124 21.5999 119.616C20.3614 118.108 20.2537 115.645 19.7422 113.572C16.4306 100.191 14.398 86.5946 12.9845 72.9041C12.8903 71.9349 12.8768 70.9657 12.8229 69.7137L12.7825 69.7003Z" fill="#7F277C"/>
<path d="M48.725 73.0923C46.4769 75.0442 46.0327 77.3462 47.0154 79.9577C47.9173 82.3808 49.9365 83.8616 51.7 85.7866C50.4884 85.7866 49.2769 85.7327 48.0788 85.7866C43.5826 86.0289 40.8634 89.6232 41.6442 94.0789C42.2365 97.4309 44.0538 100.016 46.5307 102.169C48.0653 103.502 49.775 104.619 51.6327 106.006C50.7711 106.141 50.1115 106.208 49.4788 106.342C46.598 106.948 45.5345 108.483 46.1807 111.377C46.8269 114.231 48.1596 116.816 50.5153 118.579C52.4134 120.019 54.5942 121.096 56.6673 122.308C57.1788 122.604 57.7443 122.779 58.377 123.062C54.9173 125.498 54.8365 126.077 57.3 131.112C55.4692 131.045 53.8135 130.91 52.3058 129.806C49.5057 127.746 46.4096 126.037 43.798 123.762C33.1634 114.5 27.8326 102.735 27.8056 88.6135C27.8056 83.0539 30.2422 78.7058 34.9403 75.9192C37.673 74.3038 40.7692 73.2808 43.7576 72.1365C45.4673 71.4769 47.0423 72.2846 48.7115 73.0923H48.725Z" fill="#9ED9DE"/>
<path d="M121.565 292.112C119.008 295.639 116.679 298.695 114.511 301.858C111.375 306.449 108.763 311.322 106.986 316.612C105.425 321.257 105.142 325.861 107.175 330.451C109.8 336.374 113.798 337.195 118.375 332.686C121.646 329.468 124.19 325.672 126.492 321.728C131.904 312.48 137.261 303.191 142.686 293.943C144.221 291.332 145.89 288.801 147.681 285.96C148.704 286.647 149.552 287.212 150.562 287.885C147.021 295.316 143.548 302.707 139.967 310.057C135.431 319.385 130.463 328.472 124.634 337.061C122.831 339.713 120.879 342.297 118.725 344.666C117.379 346.161 115.615 347.332 113.906 348.436C112.344 349.432 110.648 349.189 109.127 348.099C108.763 347.843 108.373 347.601 108.063 347.278C102.49 341.449 98.9363 334.732 99.2998 326.426C99.4613 322.63 100.471 318.955 102.234 315.643C105.707 309.101 109.477 302.72 113.138 296.285C113.394 295.841 113.784 295.357 114.229 295.168C116.49 294.172 118.806 293.257 121.552 292.126L121.565 292.112Z" fill="#FFDBA6"/>
<path d="M179.208 232.585C179.007 235.022 178.872 237.122 178.63 239.208C178.145 243.637 177.835 248.106 177.028 252.481C175.035 263.412 168.843 271.516 159.595 277.385C155.503 279.984 154.116 279.31 153.578 274.532C153.066 270.022 153.766 265.607 155.166 261.339C158.828 250.247 166.083 241.806 175.21 234.833C176.314 233.985 177.633 233.447 179.208 232.572V232.585Z" fill="#E15626"/>
<path d="M170.23 185.834C175.884 188.122 181.336 190.33 187.057 192.659C184.998 193.991 182.911 194.597 180.824 195.162C173.636 197.101 166.353 197.209 159.03 196.172C154.615 195.553 150.186 194.974 145.743 194.436C144.195 194.247 142.863 193.762 141.665 192.685C138.07 189.468 134.274 186.466 130.841 183.087C128.768 181.041 127.072 178.564 125.524 176.074C124.111 173.799 123.814 171.214 125.188 168.562C129.643 168.562 134.099 168.751 138.542 168.508C142.392 168.307 145.165 170.003 147.682 172.547C147.601 172.695 147.561 172.924 147.453 172.964C144.02 174.095 142.984 175.885 144.182 179.21C144.747 180.785 145.555 182.347 146.592 183.639C150.226 188.176 154.763 191.353 160.686 192.12C161.911 192.282 163.19 192.241 164.401 192.066C168.386 191.487 169.84 189.912 170.23 185.82V185.834Z" fill="#E15626"/>
<path d="M104.133 245.994C104.605 247.434 104.955 248.524 105.358 249.763C103.568 250.786 101.791 251.796 100.041 252.819C91.4795 257.813 82.9044 262.794 73.8178 266.792C67.8409 269.417 61.7966 271.907 55.2408 272.607C52.9658 272.85 50.6101 272.688 48.335 272.365C45.5485 271.975 43.7177 270.171 42.7754 267.519C41.9542 265.203 41.6312 262.807 41.9543 260.398C42.8023 253.99 45.3197 248.43 50.3274 244.109C56.3312 238.926 63.1294 235.036 69.9275 231.469C72.6602 232.142 75.2179 232.774 78.0313 233.474C74.7332 234.794 71.664 235.965 68.6352 237.23C63.0351 239.573 58.0678 242.817 54.0562 247.434C51.9966 249.803 50.1793 252.348 49.1158 255.336C47.312 260.438 49.3985 264.019 54.7697 264.8C58.0812 265.284 61.3659 264.867 64.5967 264.086C70.8832 262.565 76.7929 260.061 82.5275 257.126C89.2045 253.721 95.8276 250.194 102.478 246.734C102.935 246.492 103.42 246.303 104.133 245.994Z" fill="#FFDBA6"/>
<path d="M112.372 293.526C111.335 289.609 110.972 285.921 111.295 282.192C112.197 271.544 117.958 263.803 126.224 257.611C126.924 257.086 127.758 256.682 128.593 256.413C132.066 255.268 135.553 254.192 139.039 253.115C139.254 253.047 139.51 253.115 140.076 253.115C136.158 256.413 132.712 259.765 130.047 263.803C128.526 266.105 127.072 268.461 125.766 270.897C125.106 272.136 124.662 273.549 124.447 274.936C124.043 277.561 125.308 278.651 127.852 278.046C128.795 277.817 129.737 277.48 130.626 277.09C134.987 275.165 138.46 272.19 140.978 268.111C141.529 267.222 142.095 266.32 142.822 265.163C142.714 268.542 142.647 271.584 142.526 274.613C142.499 275.138 142.404 275.73 142.122 276.147C139.389 280.226 136.791 284.359 131.756 286.149C126.304 288.101 120.974 290.376 115.589 292.49C114.62 292.867 113.61 293.136 112.358 293.526H112.372Z" fill="#C1A1CB"/>
<path d="M97.2139 104.31C96.6889 103.745 96.2177 103.125 95.6523 102.614C94.7235 101.793 93.8216 100.877 92.7581 100.271C90.5773 99.033 88.7062 99.8811 87.9792 102.277C87.3196 104.472 87.4542 106.666 87.8446 108.9C88.6389 113.477 90.3754 117.637 93.3774 121.191C94.2793 122.254 95.41 123.224 96.6216 123.924C99.112 125.377 101.239 124.812 102.895 122.497C103.15 122.133 103.339 121.729 103.729 121.056C106.112 125.175 108.374 129.093 110.877 133.414C106.3 133.67 102.154 133.993 97.9947 134.127C95.8274 134.195 93.9831 133.01 92.5158 131.597C89.8908 129.079 87.2119 126.508 85.0715 123.587C80.5754 117.448 77.8965 110.475 76.8465 102.91C76.483 100.339 76.2946 97.7138 77.2369 95.2369C77.735 93.9176 78.3811 92.5849 79.2696 91.5215C81.235 89.1387 84.385 88.6676 86.9158 90.3099C89.9042 92.2618 92.7985 94.3349 95.76 96.3407C96.6351 96.933 97.1062 97.6196 97.1466 98.7369C97.2004 100.514 97.4697 102.277 97.6447 104.041C97.4966 104.135 97.3485 104.216 97.2004 104.31H97.2139Z" fill="#E15626"/>
<path d="M160.752 217.63C158.585 219.905 156.593 221.937 154.668 224.037C148.879 230.311 142.647 236.005 134.637 239.357C129.925 241.336 125.066 242.776 119.937 243.086C118.348 243.18 116.491 243.503 115.535 241.901C114.566 240.272 115.75 238.764 116.679 237.499C124.043 227.416 133.506 220.457 145.864 217.657C150.831 216.526 155.704 216.768 160.752 217.616V217.63Z" fill="#E15626"/>
<path d="M196.695 142.971C193.908 141.356 191.095 140.359 188.093 139.7C184.122 138.825 180.797 136.631 178.32 133.481C169.462 122.227 159.931 111.592 149.337 101.927C149.081 101.698 148.879 101.415 148.368 100.823C149.202 100.93 149.646 100.984 150.091 101.052C152.823 101.482 155.57 101.805 158.275 102.371C161.318 103.004 164.4 103.636 167.335 104.646C171.037 105.925 173.931 108.307 176.274 111.579C183.26 121.311 189.843 131.3 195.941 141.611C196.21 142.056 196.453 142.527 196.695 142.971Z" fill="#E15626"/>
<path d="M92.8522 134.141C89.6618 134.141 87.0907 134.181 84.5195 134.114C83.9541 134.1 83.3214 133.764 82.8503 133.414C76.5503 128.85 71.2195 123.398 67.6925 116.385C63.6002 108.254 63.2367 99.9615 66.9656 91.6019C68.5271 88.1153 70.8425 85.2211 74.3695 83.1884C76.9945 84.6153 79.6329 86.0422 82.5676 87.6442C76.2675 89.9865 74.5041 94.698 75.0156 100.419C76.1599 113.114 81.3964 123.869 90.8869 132.471C91.3984 132.942 91.9503 133.373 92.8657 134.154L92.8522 134.141Z" fill="#C12026"/>
<path d="M53.8405 216.405C54.4866 215.812 55.1732 215.126 55.9136 214.52C64.9463 207.089 75.204 202.055 86.5791 199.416C88.6522 198.931 90.9676 199.483 93.1753 199.631C93.5522 199.658 93.983 200.022 94.2253 200.345C96.0426 202.728 97.8196 205.151 99.7715 207.803C98.6676 207.803 97.5638 207.722 96.4734 207.816C89.0426 208.489 82.756 211.545 77.7618 217.078C76.5098 218.464 75.1771 219.474 73.3733 219.905C70.0079 220.726 66.6694 221.735 63.2636 222.314C58.8886 223.041 55.402 220.78 53.8136 216.405H53.8405Z" fill="#E15626"/>
<path d="M22.3129 122.16C30.0802 125.781 38.0495 128.756 46.7322 130.829C45.8976 131.381 45.413 131.704 44.9284 132.041C42.4918 133.75 41.6437 136.227 41.7649 139.041C42.0206 144.708 44.1207 149.689 47.9976 153.781C50.1918 156.097 52.8572 157.968 55.3207 160.028C55.9803 160.579 56.6804 161.078 57.1919 162.006C55.7515 161.629 54.2976 161.266 52.8573 160.876C45.2918 158.843 38.238 155.639 31.736 151.264C31.0495 150.806 30.3225 150.066 30.0937 149.312C27.3744 140.522 24.7494 131.718 22.111 122.914C22.0706 122.779 22.1917 122.591 22.3129 122.16Z" fill="#7F277C"/>
<path d="M111.981 223.001C110.123 226.084 108.548 228.776 106.879 231.401C106.529 231.953 105.923 232.451 105.318 232.707C99.3811 235.224 93.3772 235.978 87.0638 233.878C83.2676 232.613 79.2964 231.886 75.406 230.916C74.2214 230.62 73.0502 230.284 71.5425 229.893C72.0541 228.803 72.3098 227.955 72.8079 227.268C74.8271 224.441 76.7387 221.493 79.0406 218.895C84.5329 212.649 91.708 209.782 99.8927 209.378C101.32 209.311 102.868 209.849 104.227 210.414C106.341 211.303 108.347 212.461 110.864 213.739C108.454 214.009 106.489 214.197 104.523 214.466C99.6907 215.113 95.1407 216.647 90.9003 219.057C89.6753 219.757 88.4637 220.605 87.4945 221.615C85.9599 223.203 86.3233 224.738 88.2887 225.68C88.9214 225.99 89.6349 226.178 90.3214 226.313C97.1869 227.645 103.823 227.093 110.15 223.903C110.622 223.674 111.093 223.445 111.995 223.001H111.981Z" fill="#C1A1CB"/>
<path d="M63.8431 143.146C62.6046 143.591 61.8373 143.793 61.1507 144.129C58.9834 145.193 58.2161 147.266 59.6296 149.218C60.693 150.685 62.1199 152.125 63.7219 152.933C66.5623 154.373 69.645 155.329 72.6335 156.473C73.1046 156.648 73.5892 156.756 74.4239 156.985C73.845 157.375 73.5623 157.537 73.32 157.739C71.8796 158.896 71.5969 159.664 72.5796 161.131C73.4546 162.437 74.6393 163.541 75.8643 164.941C75.42 164.968 75.0431 165.062 74.7065 165.021C71.0854 164.483 67.4777 163.958 63.87 163.366C63.0892 163.245 62.268 163.002 61.6219 162.571C58.1622 160.202 54.6488 157.887 51.3776 155.289C47.3257 152.085 44.8756 147.764 43.7179 142.742C43.5429 141.962 43.4218 141.167 43.3679 140.373C42.991 134.383 46.8141 131.004 52.7911 132.054C54.1776 132.296 55.5507 132.633 57.018 132.942C56.843 133.373 56.7757 133.602 56.668 133.817C55.268 136.429 55.5103 138.044 57.7584 139.902C58.5795 140.575 59.5219 141.114 60.4642 141.612C61.393 142.11 62.3892 142.5 63.87 143.16L63.8431 143.146Z" fill="#9ED9DE"/>
<path d="M190.125 277.614C192.131 279.66 194.042 281.612 196.277 283.901C191.013 294.724 188.51 306.947 185.548 319.157C183.609 315.347 180.406 312.749 177.633 309.801C170.498 302.209 169.906 293.297 172.208 283.78C172.409 282.959 172.948 282.151 173.513 281.518C175.398 279.378 177.377 277.305 179.329 275.232C179.49 275.057 179.773 274.989 180.15 274.787C179.881 276.605 179.598 278.26 179.383 279.93C178.709 285.234 179.113 290.457 180.836 295.518C181.308 296.918 182.048 298.332 182.99 299.462C184.458 301.226 186.423 301.186 187.742 299.314C188.685 297.968 189.385 296.339 189.775 294.724C191.094 289.259 190.663 283.726 190.098 278.22C190.085 278.045 190.098 277.87 190.098 277.614H190.125Z" fill="#C1A1CB"/>
<path d="M98.6009 136.241C102.976 135.689 107.297 135.137 111.793 134.572C113.153 136.537 114.566 138.584 115.993 140.616C112.816 142.595 112.224 143.847 113.22 147.334C114.607 152.166 117.434 155.989 121.782 158.561C124.757 160.311 127.193 159.53 128.93 156.393C132.901 160.055 136.845 163.689 140.978 167.499C135.593 167.351 130.532 167.243 125.484 167.014C124.649 166.974 123.747 166.584 123.034 166.099C115.738 161.213 108.886 155.747 103.057 149.151C101.253 147.118 99.9067 144.628 98.6278 142.205C97.6317 140.334 97.7798 138.26 98.6278 136.228L98.6009 136.241Z" fill="#E15626"/>
<path d="M48.9531 7.44027C48.307 7.62873 47.6473 7.80373 47.0146 8.01912C44.6723 8.79989 43.6223 10.4691 44.4973 12.7576C45.2511 14.723 46.355 16.6076 47.5935 18.3307C49.0473 20.3634 50.7973 22.1673 52.3993 24.0788C52.7224 24.4557 52.9916 24.8596 53.0454 25.5192C52.2646 24.9942 51.4704 24.4827 50.7166 23.9442C42.3838 17.9942 33.4992 13.0941 23.6184 10.1999C17.0895 8.28835 10.4529 7.91142 3.73556 8.79989C3.38556 8.84027 3.03558 8.8672 2.67212 8.88066C2.59135 8.88066 2.49711 8.82681 2.28172 8.74604C2.9548 6.40372 4.57019 4.80179 6.44135 3.45563C9.73944 1.07293 13.5222 0.0902319 17.5203 0.00946227C23.8338 -0.125154 29.9588 1.19408 35.9896 2.84986C40.3646 4.04794 44.6588 5.55564 48.98 6.92873L48.9531 7.45373V7.44027Z" fill="#E15626"/>
<path d="M83.8738 136.187H96.2853C96.3392 136.685 96.4738 137.102 96.42 137.506C95.9488 140.602 96.7296 143.442 98.5604 145.852C100.755 148.76 103.03 151.681 105.682 154.144C110.312 158.452 115.253 162.423 120.18 166.623C119.735 166.704 119.197 166.879 118.659 166.879C115.899 166.879 112.991 167.31 110.393 166.623C107.903 165.95 105.655 164.2 103.447 162.719C99.5161 160.094 95.6123 157.429 91.8565 154.575C88.4642 151.991 86.0007 148.585 84.3315 144.641C83.1872 141.948 82.6891 139.202 83.8738 136.187Z" fill="#C12026"/>
<path d="M200.222 234.874C200.545 234.093 200.532 233.164 200.774 231.764C201.407 232.76 201.797 233.339 202.147 233.931C203.183 235.681 204.597 236.96 206.576 237.593C208.299 238.145 209.564 239.128 210.48 240.433C210.803 243.368 211.085 246.303 211.301 249.237C209.82 256.318 207.128 262.982 203.628 269.362C203.56 269.497 203.345 269.551 203.049 269.753C202.618 269.268 202.107 268.797 201.743 268.245C198.014 262.524 196.372 256.237 197.005 249.439C197.476 244.472 198.257 239.545 200.222 234.887V234.874Z" fill="#E15626"/>
<path d="M62.3482 164.981C67.0867 165.654 71.6367 166.287 76.3886 166.96C76.1732 171.591 79.3906 173.247 82.9579 174.566C83.9541 174.929 84.9906 175.199 86.0406 175.522C85.9733 175.643 85.9329 175.831 85.8387 175.872C82.6483 177.204 82.3521 178.47 85.1791 180.597C87.2791 182.185 89.7426 183.356 92.1522 184.433C94.0099 185.268 96.0426 185.672 97.8868 186.237C98.3041 187.583 98.708 188.876 99.2061 190.437C97.2945 190.047 95.4772 189.724 93.6868 189.306C86.8887 187.718 80.1848 185.82 74.1406 182.239C71.2463 180.529 68.4194 178.551 65.9963 176.249C62.9539 173.368 61.7828 169.572 62.3482 164.981Z" fill="#9ED9DE"/>
<path d="M110.056 168.535H123.221C121.512 174 123.867 178.187 127.233 181.835C130.315 185.174 133.789 188.149 137.087 191.285C137.773 191.931 138.5 192.551 139.442 193.399C136.629 193.399 134.179 193.412 131.742 193.385C131.419 193.385 131.069 193.17 130.76 193.008C128.633 191.904 126.533 190.733 124.365 189.71C120.448 187.866 116.787 185.618 113.865 182.414C112.317 180.718 110.985 178.766 109.894 176.747C108.454 174.068 108.615 171.254 110.056 168.548V168.535Z" fill="#C12026"/>
<path d="M197.448 146.565C201.056 150.59 203.654 155.289 206.225 160C206.508 160.512 206.602 161.198 206.602 161.804C206.602 164.712 207.154 167.417 208.716 169.881C208.743 170.904 208.743 171.941 208.743 172.964C207.383 175.266 206.885 177.648 207.383 180.327C207.531 181.108 207.154 181.983 206.831 182.818C203.762 175.01 200.383 167.431 196.143 160.283C191.929 153.175 187.406 146.256 183.125 139.431C185.441 140.185 187.945 141.006 190.448 141.813C193.248 142.715 195.51 144.412 197.462 146.579L197.448 146.565Z" fill="#E15626"/>
<path d="M64.8379 91.6824C62.6706 97.2825 62.159 102.802 63.1148 108.779C56.5321 106.894 50.5013 104.673 46.0186 99.6382C44.8205 98.2921 43.8782 96.5421 43.3128 94.8055C41.8051 90.269 44.6859 86.6478 49.4647 87.1862C52.4397 87.5228 55.3879 88.3439 58.2821 89.1651C60.409 89.7709 62.4283 90.7401 64.8379 91.669V91.6824Z" fill="#0AA1C6"/>
<path d="M121.835 98.5354C125.9 98.9123 129.495 100.487 132.712 102.749C135.081 104.405 135.889 107.218 136.508 109.937C137.141 112.684 136.912 115.416 135.943 118.095C133.843 123.978 126.897 125.97 122.562 124.839C121.135 124.462 119.937 123.709 119.291 122.295C117.837 119.037 116.383 115.78 114.956 112.522C114.821 112.226 114.848 111.876 114.768 111.391C116.006 112.091 117.016 112.818 118.133 113.249C120.785 114.245 123.423 114.312 125.645 112.226C127.677 110.301 127.879 107.905 127.139 105.307C126.533 103.18 125.443 101.389 123.72 100.003C123.1 99.5046 122.468 99.0335 121.835 98.5489V98.5354Z" fill="#FFDBA6"/>
<path d="M89.9974 28.2248C88.9474 27.8075 87.9108 27.3633 86.8473 26.9594C80.4262 24.5094 73.8569 23.1363 66.9376 23.9709C63.4376 24.4017 60.1934 23.594 57.178 21.8575C53.0587 19.4748 49.3029 16.6209 46.1394 13.0536C44.524 11.2363 44.8741 9.5805 47.2029 8.86703C49.6529 8.09972 52.1837 8.22088 54.526 9.31126C61.2434 12.4209 67.9876 15.4767 74.5838 18.8421C79.5781 21.3998 84.3435 24.4017 89.2166 27.2287C89.5666 27.4306 89.8493 27.7133 90.1724 27.969C90.1185 28.0633 90.0647 28.1575 90.0108 28.2517L89.9974 28.2248Z" fill="#E15626"/>
<path d="M145.124 127.477C149.458 127.437 152.958 129.604 155.314 133.71C156.579 135.918 157.145 138.354 157.199 140.872C157.266 143.793 157.212 146.701 157.212 149.837C153.47 148.989 149.593 148.383 146.012 146.754C143.454 145.597 141.852 143.403 140.748 140.926C139.995 139.243 139.55 137.399 139.039 135.608C138.743 134.572 139.12 133.845 139.941 133.064C141.61 131.489 143.064 129.699 145.11 127.464L145.124 127.477Z" fill="#C1A1CB"/>
<path d="M188.107 246.626C186.141 244.311 184.014 242.049 182.211 239.546C181.43 238.469 180.986 236.907 180.972 235.561C180.918 231.899 181.672 228.346 183.314 224.819C188.497 226.192 193.586 226.071 198.593 224.388C201.151 231.401 196.386 241.672 188.12 246.626H188.107Z" fill="#FFDBA6"/>
<path d="M121.404 126.226C133.345 127.962 141.933 118.889 136.454 105.36C138.999 106.989 141.637 108.577 143.576 110.893C144.518 112.01 144.733 113.841 145.029 115.402C146.349 122.591 143.104 129.874 137.154 133.32C134.61 134.801 131.877 135.379 128.943 135.191C127.597 135.097 126.6 134.653 125.887 133.441C124.5 131.085 123.02 128.797 121.418 126.239L121.404 126.226Z" fill="#E15626"/>
<path d="M169.14 214.547C172.088 219.11 176.207 222.26 181.336 224.185C180.892 226.716 179.896 228.749 178.428 230.579C177.257 232.033 175.749 232.881 173.919 233.245C170.863 233.851 167.807 234.497 164.751 235.143C162.342 235.654 161.682 235.372 161.063 232.976C160.551 230.997 160.147 228.964 159.959 226.931C159.69 223.956 160.565 221.291 162.678 219.083C164.482 217.199 166.528 215.664 169.14 214.56V214.547Z" fill="#FFDBA6"/>
<path d="M82.7696 145.677C84.8561 150.658 88.6388 154.481 93.1484 157.995C92.5696 158.129 92.3138 158.264 92.0984 158.224C85.2196 157.281 78.233 156.918 71.5426 154.939C68.9176 154.158 66.3868 152.987 63.9233 151.762C62.7656 151.183 61.7291 150.2 60.9214 149.164C59.4406 147.266 60.0329 145.381 62.3752 144.923C64.6233 144.493 66.9791 144.358 69.2676 144.493C73.0907 144.722 76.8868 145.26 80.6965 145.65C81.2888 145.718 81.908 145.65 82.7561 145.65L82.7696 145.677Z" fill="#0AA1C6"/>
<path d="M109.84 81.2633C107.686 82.0306 105.774 82.7171 103.647 83.4845C103.041 81.7344 102.718 79.5267 100.578 78.746C99.5414 78.369 98.303 78.221 97.2126 78.3825C94.7491 78.746 92.9049 81.1825 92.8645 83.7537C92.8241 86.4864 94.251 87.7249 99.0164 88.9903C98.3837 91.0633 97.751 93.1364 97.0914 95.3172C94.1972 93.2037 91.0606 91.521 88.7183 89.071C86.0394 86.271 84.5048 82.6498 85.3798 78.544C86.1337 75.0171 89.351 72.2979 93.2145 71.8671C94.7087 71.7056 96.2568 71.6248 97.7511 71.8402C98.9357 72.0017 100.295 72.3786 101.157 73.1325C104.105 75.6902 106.878 78.4633 109.853 81.2767L109.84 81.2633Z" fill="#E15626"/>
<path d="M172.693 165.897C168.157 164.968 164.105 164.295 160.416 162.45C159.366 161.925 158.397 160.916 157.778 159.893C156.23 157.348 155.53 154.521 155.638 151.385C156.607 151.318 157.455 151.25 158.639 151.156C158.72 150.106 158.828 149.083 158.868 148.06C158.909 147.104 158.868 146.148 158.868 144.923C163.903 145.543 167.766 147.4 169.853 151.843C171.859 156.096 171.926 160.781 172.68 165.883L172.693 165.897Z" fill="#C1A1CB"/>
<path d="M74.5698 220.78C73.2775 222.799 71.9044 224.293 71.2717 226.043C70.1275 229.22 67.7313 230.405 64.8102 231.253C62.3198 231.98 59.937 232.935 57.2582 232.841C52.5062 232.666 48.5216 229.005 48.1851 224.28C48.1312 223.472 48.3601 222.462 48.8312 221.816C49.9351 220.322 51.2543 218.989 52.6678 217.401C53.1389 218.074 53.4755 218.545 53.7851 219.016C56.0332 222.395 59.2236 223.889 63.2082 223.283C66.1967 222.839 69.1313 222.045 72.0929 221.399C72.7659 221.251 73.4256 221.062 74.5698 220.753V220.78Z" fill="#FFDBA6"/>
<path d="M186.491 266.966C187.353 270.466 188.484 273.939 188.995 277.493C189.803 283.066 190.018 288.707 188.753 294.266C188.457 295.545 187.972 296.851 187.299 297.982C186.141 299.92 184.62 299.853 183.368 297.941C182.937 297.282 182.587 296.528 182.345 295.774C179.976 288.693 179.922 281.518 182.13 274.437C182.951 271.799 184.634 269.43 185.912 266.939C186.101 266.953 186.289 266.966 186.478 266.98L186.491 266.966Z" fill="#E39D25"/>
<path d="M62.9543 110.314C65.4447 115.08 67.6928 119.387 70.062 123.924C68.6755 123.722 67.3024 123.614 65.9697 123.318C63.0216 122.645 60.0466 122.026 57.1793 121.124C54.6081 120.316 52.2658 118.889 50.5157 116.803C49.3984 115.456 48.4157 113.895 47.783 112.266C46.4773 108.928 47.4869 107.581 51.0946 107.676C55.4293 107.797 59.4542 109.264 62.9677 110.314H62.9543Z" fill="#0AA1C6"/>
<path d="M71.7173 82.0846C69.5096 84.7769 67.3153 87.4423 64.9865 90.2692C60.7865 88.4789 56.3307 86.7019 52.3326 83.9827C50.6095 82.8115 49.1018 81.425 48.3211 79.4192C47.6884 77.8173 47.7018 76.2423 48.9403 74.9096C49.7345 74.0615 50.5557 73.3346 51.9557 73.8057C58.6595 75.9999 65.2019 78.625 71.4885 81.8288C71.6365 81.8961 71.7173 82.0846 71.7039 82.0711L71.7173 82.0846Z" fill="#0AA1C6"/>
<path d="M162.542 190.68C156.202 190.572 148.165 185.187 145.836 179.291C145.58 178.632 145.365 177.932 145.311 177.232C145.177 175.67 145.903 174.62 147.425 174.297C148.838 174.001 150.171 174.082 151.517 174.916C156.457 177.932 161.438 180.88 166.459 183.76C167.873 184.568 168.559 185.645 168.465 187.207C168.384 188.647 167.388 189.441 166.15 189.859C164.979 190.249 163.74 190.424 162.542 190.693V190.68Z" fill="#FFDBA6"/>
<path d="M93.1211 65.3922C89.1769 64.248 85.2326 63.9922 81.2345 65.3384C77.4653 61.0172 73.4133 57.0999 70.4248 52.2806C69.6845 51.0825 69.0249 49.7768 68.5941 48.4306C67.9614 46.4517 68.8229 45.2537 70.8825 45.2267C72.7806 45.1998 74.5306 45.6979 75.971 47.1787C79.5114 50.8402 83.1595 54.3941 86.7269 58.0287C88.975 60.3037 91.1692 62.6326 93.4038 64.9345C93.3096 65.0826 93.2154 65.2441 93.1211 65.3922Z" fill="#0AA1C6"/>
<path d="M98.4253 70.5347C86.7406 68.8116 81.006 77.0097 85.6502 86.9982C84.8829 86.6752 84.3444 86.5136 83.8598 86.2444C81.356 84.8713 78.9194 83.3636 76.3482 82.1251C74.8944 81.4117 74.504 80.429 74.504 78.9482C74.5309 71.9616 79.0944 66.9539 86.081 66.3212C88.8675 66.0655 91.6002 66.3616 94.2656 67.2366C95.9214 67.7751 97.2676 68.7443 98.4118 70.5482L98.4253 70.5347Z" fill="#C12026"/>
<path d="M126.21 276.874C125.537 274.424 126.426 272.728 127.287 271.099C130.437 265.136 134.503 259.859 139.672 255.497C142.055 253.492 144.559 251.634 147.466 249.359C147.197 250.409 147.089 250.934 146.928 251.445C145.366 256.763 143.361 261.865 140.399 266.59C137.76 270.79 134.26 273.967 129.657 275.838C128.607 276.269 127.489 276.497 126.21 276.861V276.874Z" fill="#E39D25"/>
<path d="M165.531 203.684C166.272 206.807 166.958 209.715 167.699 212.824C165.02 214.965 161.924 216.405 158.087 215.665C154.856 215.032 151.572 214.628 148.368 213.888C145.918 213.322 145.635 212.34 147.089 210.28C149.593 206.726 152.837 204.142 157.253 203.536C159.151 203.28 161.103 203.469 163.041 203.495C163.916 203.509 164.804 203.63 165.518 203.684H165.531Z" fill="#FFDBA6"/>
<path d="M107.189 176.222C100.929 175.751 94.6427 175.387 88.3696 174.782C85.435 174.499 82.608 173.61 80.0503 172.035C78.3541 170.985 77.2907 169.585 77.5061 167.283C87.6023 167.714 97.6177 168.145 107.593 168.576C107.472 171.066 107.337 173.516 107.202 176.208L107.189 176.222Z" fill="#0AA1C6"/>
<path d="M79.5791 65.6754C77.7752 67.6139 76.2675 69.2293 74.5444 71.0735C69.2002 67.4389 63.5598 64.0331 59.1578 58.985C58.7001 58.4465 58.2963 57.8408 57.9732 57.2081C56.7213 54.785 57.6232 53.008 60.329 52.5638C62.3482 52.2407 64.2598 52.6311 66.0098 53.6542C71.3271 56.7504 75.5137 61.1119 79.5791 65.6754Z" fill="#0AA1C6"/>
<path d="M84.209 177.716C87.1706 176.491 90.0244 176.491 107.578 177.595C110.298 180.879 112.828 183.922 115.44 187.072C114.646 187.072 113.811 187.126 112.976 187.072C106.569 186.601 100.188 185.887 94.036 183.922C91.8418 183.222 89.7148 182.239 87.6687 181.189C86.2686 180.476 84.9763 179.466 84.209 177.729V177.716Z" fill="#0AA1C6"/>
<path d="M81.397 135.985C81.5182 138.852 81.6393 141.571 81.7739 144.533C80.8182 144.466 79.7009 144.425 78.6105 144.277C74.5585 143.739 70.4797 143.362 66.4816 142.541C64.1796 142.069 61.9719 140.952 59.8181 139.929C58.9027 139.498 58.1085 138.65 57.4488 137.842C56.6277 136.846 56.7354 135.689 57.4085 134.598C58.0412 133.575 58.8892 133.212 60.1142 133.414C62.9277 133.871 65.7412 134.289 68.5681 134.612C72.3643 135.042 76.1874 135.365 79.9836 135.742C80.4951 135.796 81.0066 135.917 81.397 135.985Z" fill="#0AA1C6"/>
<path d="M210.184 237.742C208.973 236.826 207.694 236.18 206.334 235.642C205.203 235.184 204.234 234.026 203.494 232.963C201.717 230.432 201.044 227.942 200.64 223.674C203.211 222.274 205.675 220.605 207.815 218.451C208.421 224.899 209.417 231.32 210.198 237.755L210.184 237.742Z" fill="#FFDBA6"/>
<path d="M98.3985 123.372C97.9004 123.116 96.81 122.82 96.0697 122.133C90.5639 116.991 88.2485 110.597 89.0292 103.139C89.2581 100.918 90.7927 100.298 92.6638 101.577C95.5042 103.516 97.6716 106.141 99.0581 109.277C100.283 112.037 101.252 114.904 102.329 117.731C103.312 120.329 101.427 123.466 98.3985 123.385V123.372Z" fill="#FFDBA6"/>
<path d="M73.0501 158.735C74.9886 158.56 76.4828 158.183 77.9232 158.318C83.6848 158.87 89.4329 159.583 95.1944 160.256C95.6387 160.31 96.1233 160.337 96.4868 160.552C99.5829 162.437 102.639 164.348 106.206 166.556C102.019 166.556 98.4118 166.664 94.8175 166.529C90.5367 166.368 86.2694 166.072 82.0021 165.681C78.6367 165.372 76.0386 163.5 73.8713 161.01C73.5078 160.593 73.4674 159.906 73.0636 158.721L73.0501 158.735Z" fill="#0AA1C6"/>
<path d="M117.313 216.31C113.651 223.001 97.9014 227.955 88.4513 223.674C88.5859 222.234 89.8109 221.695 90.8205 221.076C95.0609 218.464 99.6783 216.916 104.578 216.095C108.778 215.382 112.938 215.503 117.313 216.324V216.31Z" fill="#E39D25"/>
<path d="M173.648 160.889C179.355 162.343 183.475 165.278 185.615 170.595C186.773 173.476 187.85 176.397 189.102 179.641C188.253 179.426 187.675 179.345 187.163 179.13C183.205 177.487 179.248 175.886 175.33 174.149C172.369 172.83 170.646 170.461 170.053 167.297C170.323 167.149 170.471 166.987 170.605 167.001C173.728 167.27 174.213 166.785 173.863 163.649C173.769 162.787 173.715 161.926 173.634 160.876L173.648 160.889Z" fill="#C1A1CB"/>
<path d="M73.9248 72.5004C73.4806 75.1658 73.0767 77.5216 72.6863 79.8773C65.8478 77.1312 59.0228 74.3715 52.1305 71.5985C51.9555 68.0177 53.6785 66.0119 57.2862 65.8773C58.3497 65.8369 59.4536 65.8773 60.4632 66.16C65.3094 67.4927 69.7517 69.6869 73.9248 72.5138V72.5004Z" fill="#0AA1C6"/>
<path d="M184.054 203.212C191.552 201.947 198.97 201.556 205.499 196.791C205.714 197.895 205.956 198.77 206.05 199.672C206.131 200.372 205.889 201.139 206.05 201.799C206.804 204.693 205.135 206.362 203.075 207.776C199.333 210.347 195.106 210.858 190.785 209.97C187.325 209.256 185.602 206.47 184.027 203.212H184.054Z" fill="#EF4723"/>
<path d="M113.461 201.166C126.923 201.287 140.331 201.489 153.698 202.903C140.048 208.099 126.533 209.822 113.461 201.166Z" fill="#E15626"/>
<path d="M169.072 210.199C172.976 212.084 176.544 211.895 179.909 208.92C181.928 212.111 184.58 214.238 187.919 215.584C188.524 215.826 189.157 216.661 189.278 217.32C189.467 218.33 189.399 219.488 189.103 220.47C188.242 223.392 187.124 223.93 184.176 223.136C177.136 221.224 172.047 217.011 169.072 210.199Z" fill="#359980"/>
<path d="M79.498 134.074C75.3384 133.643 70.8423 133.199 66.3461 132.701C64.8518 132.539 63.3576 132.283 61.8634 132.014C59.6018 131.597 57.3672 129.214 56.9768 126.98C56.7884 125.889 57.2595 125.243 58.2556 125.001C58.848 124.853 59.4941 124.799 60.0999 124.826C63.7345 125.041 67.3826 125.283 71.0173 125.566C71.5153 125.606 72.1211 125.781 72.4307 126.118C74.8134 128.73 77.1423 131.408 79.498 134.074Z" fill="#0AA1C6"/>
<path d="M113.125 104.485C113.193 103.866 113.206 103.233 113.327 102.627C114.148 98.8446 116.922 97.5254 120.314 99.3561C123.195 100.918 125.174 103.22 125.806 106.518C126.533 110.354 123.572 113.047 119.708 112.279C116.504 111.647 112.735 107.46 113.125 104.472V104.485Z" fill="#EF4723"/>
<path d="M127.126 155.033C127.193 157.066 126.305 158.062 124.743 158.035C124.057 158.035 123.289 157.847 122.697 157.51C118.134 154.912 115.078 151.156 114.068 145.92C113.92 145.179 113.974 144.291 114.243 143.591C114.862 141.935 116.666 141.679 117.797 143.026C120.651 146.445 123.478 149.877 126.278 153.337C126.749 153.929 126.978 154.71 127.126 155.02V155.033Z" fill="#FFDBA6"/>
<path d="M179.207 203.401C180.621 203.334 181.657 203.28 182.802 203.212C183.232 204.06 183.636 204.855 184.04 205.635C186.194 209.768 189.156 212.124 195.536 211.559C200.207 211.155 201.984 210.266 206.292 207.103C207.194 207.951 207.113 208.759 206.265 209.593C198.686 217.091 186.463 216.782 180.904 207.574C180.19 206.389 179.84 205.003 179.207 203.414V203.401Z" fill="#E3A294"/>
<path d="M99.193 186.951C102.437 187.247 105.251 187.503 108.064 187.772C110.985 188.055 113.907 188.297 116.814 188.661C117.918 188.809 119.035 189.172 120.058 189.616C122.212 190.559 124.326 191.622 126.991 192.901C124.999 192.901 123.612 192.995 122.239 192.888C116.478 192.403 110.716 191.891 104.968 191.313C101.697 190.989 100.876 190.343 99.193 186.938V186.951Z" fill="#0AA1C6"/>
<path d="M190.367 216.701C193.611 216.459 196.425 216.243 199.494 216.001C200.571 217.832 199.979 219.878 199.211 221.857C199.036 222.314 198.256 222.624 197.69 222.812C194.863 223.714 191.996 224.293 188.819 223.93C189.358 222.637 190.044 221.48 190.313 220.214C190.569 219.03 190.367 217.764 190.367 216.687V216.701Z" fill="#359980"/>
<path d="M179.262 207.923C175.803 210.696 172.962 211.087 169.92 209.256C167.605 207.869 167.053 206.604 167.524 203.616H178.159C178.535 205.056 178.885 206.402 179.276 207.923H179.262Z" fill="#359980"/>
<path d="M98.2639 79.4061C100.525 79.3657 102.356 81.3311 102.329 83.7811C102.316 85.3696 100.485 87.4427 99.1254 87.4292C96.1908 87.4023 94.0639 85.8677 94.0639 83.7408C94.0639 81.4388 96.0023 79.4465 98.2773 79.4061H98.2639Z" fill="#FFDBA6"/>
<path d="M207.585 215.92C205.66 218.356 203.843 219.824 201.393 220.954C201.245 219.124 201.11 217.333 200.962 215.354C202.901 214.089 205.014 212.716 207.343 211.195C207.397 212.77 207.464 214.345 207.585 215.92Z" fill="#359980"/>
</svg>
