<svg width="282" height="136" viewBox="0 0 282 136" fill="none" xmlns="http://www.w3.org/2000/svg">
<path d="M278.914 73.1865L261.946 36.1772C258.873 30.8628 253.174 27.5972 247.027 27.5972H177.235C171.088 27.5972 165.389 24.3317 162.316 19.0172L156.297 8.58037C153.223 3.26589 147.525 0.000366211 141.378 0.000366211H38.61C32.4631 0.000366211 26.7645 3.26589 23.691 8.58037L2.30508 45.5896C-0.768358 50.9041 -0.768358 57.4352 2.30508 62.8137L23.691 99.8229C26.7645 105.137 32.4631 108.403 38.61 108.403H110.003C116.15 108.403 121.849 111.668 124.922 116.983L130.941 127.42C134.015 132.734 139.713 136 145.86 136H247.155C253.302 136 259.001 132.734 262.074 127.42L279.042 90.4105C282.116 85.0961 282.116 78.565 279.042 73.1865H278.914ZM241.713 105.394H158.41C153.48 105.394 150.15 102.32 149.318 96.6214C149.318 96.6214 147.205 78.8852 134.975 78.501H51.6721C46.7418 78.501 42.7079 74.6592 42.5799 69.7289V30.4786H125.883C130.749 30.4786 134.015 33.616 134.975 39.2507C134.975 39.2507 138.048 57.3071 149.318 57.3711H232.62C237.551 57.3711 241.521 61.2129 241.713 66.1432V105.394Z" fill="white"/>
</svg>
