<svg width="490" height="111" viewBox="0 0 490 111" fill="none" xmlns="http://www.w3.org/2000/svg">
<path d="M18.5227 22.0682L15.5114 22.9205C15.322 22.4186 15.0426 21.9309 14.6733 21.4574C14.3134 20.9744 13.821 20.5767 13.196 20.2642C12.571 19.9517 11.7708 19.7955 10.7955 19.7955C9.46023 19.7955 8.34754 20.1032 7.45739 20.7188C6.5767 21.3248 6.13636 22.0966 6.13636 23.0341C6.13636 23.8674 6.43939 24.5256 7.04545 25.0085C7.65152 25.4915 8.59848 25.8939 9.88636 26.2159L13.125 27.0114C15.0758 27.4848 16.5294 28.2093 17.4858 29.1847C18.4422 30.1506 18.9205 31.3958 18.9205 32.9205C18.9205 34.1705 18.5606 35.2879 17.8409 36.2727C17.1307 37.2576 16.1364 38.0341 14.858 38.6023C13.5795 39.1705 12.0928 39.4545 10.3977 39.4545C8.17235 39.4545 6.33049 38.9716 4.87216 38.0057C3.41383 37.0398 2.49053 35.6288 2.10227 33.7727L5.28409 32.9773C5.58712 34.1515 6.16004 35.0322 7.00284 35.6193C7.85511 36.2064 8.9678 36.5 10.3409 36.5C11.9034 36.5 13.1439 36.1686 14.0625 35.5057C14.9905 34.8333 15.4545 34.0284 15.4545 33.0909C15.4545 32.3333 15.1894 31.6989 14.6591 31.1875C14.1288 30.6667 13.3144 30.2784 12.2159 30.0227L8.57955 29.1705C6.58144 28.697 5.11364 27.9631 4.17614 26.9688C3.24811 25.965 2.78409 24.7102 2.78409 23.2045C2.78409 21.9735 3.12973 20.8845 3.82102 19.9375C4.52178 18.9905 5.47349 18.2472 6.67614 17.7074C7.88826 17.1676 9.26136 16.8977 10.7955 16.8977C12.9545 16.8977 14.6496 17.3712 15.8807 18.3182C17.1212 19.2652 18.0019 20.5152 18.5227 22.0682ZM23.9666 39V17.1818H27.3189V39H23.9666ZM25.6712 13.5455C25.0178 13.5455 24.4543 13.3229 23.9808 12.8778C23.5168 12.4328 23.2848 11.8977 23.2848 11.2727C23.2848 10.6477 23.5168 10.1127 23.9808 9.66761C24.4543 9.22254 25.0178 9 25.6712 9C26.3246 9 26.8833 9.22254 27.3473 9.66761C27.8208 10.1127 28.0575 10.6477 28.0575 11.2727C28.0575 11.8977 27.8208 12.4328 27.3473 12.8778C26.8833 13.3229 26.3246 13.5455 25.6712 13.5455ZM33.4588 39V17.1818H36.6974V20.5909H36.9815C37.4361 19.4261 38.17 18.5218 39.1832 17.8778C40.1965 17.2244 41.4134 16.8977 42.8338 16.8977C44.2732 16.8977 45.4711 17.2244 46.4276 17.8778C47.3935 18.5218 48.1463 19.4261 48.6861 20.5909H48.9134C49.4721 19.464 50.3101 18.5691 51.4276 17.9062C52.545 17.2339 53.8849 16.8977 55.4474 16.8977C57.3982 16.8977 58.9938 17.5085 60.2344 18.7301C61.4749 19.9422 62.0952 21.8314 62.0952 24.3977V39H58.7429V24.3977C58.7429 22.7879 58.3026 21.6373 57.4219 20.946C56.5412 20.2547 55.5043 19.9091 54.3111 19.9091C52.777 19.9091 51.5885 20.3731 50.7457 21.3011C49.9029 22.2197 49.4815 23.3845 49.4815 24.7955V39H46.0724V24.0568C46.0724 22.8163 45.67 21.8172 44.8651 21.0597C44.0601 20.2926 43.0232 19.9091 41.7543 19.9091C40.883 19.9091 40.0687 20.1411 39.3111 20.6051C38.563 21.0691 37.9569 21.7131 37.4929 22.5369C37.0384 23.3513 36.8111 24.2936 36.8111 25.3636V39H33.4588ZM68.2244 47.1818V17.1818H71.4631V20.6477H71.8608C72.107 20.2689 72.4479 19.786 72.8835 19.1989C73.3286 18.6023 73.9631 18.072 74.7869 17.608C75.6203 17.1345 76.7472 16.8977 78.1676 16.8977C80.0047 16.8977 81.6241 17.357 83.0256 18.2756C84.4271 19.1941 85.5208 20.4962 86.3068 22.1818C87.0928 23.8674 87.4858 25.8561 87.4858 28.1477C87.4858 30.4583 87.0928 32.4612 86.3068 34.1562C85.5208 35.8419 84.4318 37.1487 83.0398 38.0767C81.6477 38.9953 80.0426 39.4545 78.2244 39.4545C76.8229 39.4545 75.7008 39.2225 74.858 38.7585C74.0152 38.285 73.3665 37.75 72.9119 37.1534C72.4574 36.5473 72.107 36.0455 71.8608 35.6477H71.5767V47.1818H68.2244ZM71.5199 28.0909C71.5199 29.7386 71.7614 31.1922 72.2443 32.4517C72.7273 33.7017 73.4328 34.6818 74.3608 35.392C75.2888 36.0928 76.4252 36.4432 77.7699 36.4432C79.1714 36.4432 80.3409 36.0739 81.2784 35.3352C82.2254 34.5871 82.9356 33.5833 83.4091 32.3239C83.892 31.0549 84.1335 29.6439 84.1335 28.0909C84.1335 26.5568 83.8968 25.1742 83.4233 23.9432C82.9593 22.7027 82.2538 21.7225 81.3068 21.0028C80.3693 20.2737 79.1903 19.9091 77.7699 19.9091C76.4063 19.9091 75.2604 20.2547 74.3324 20.946C73.4044 21.6278 72.7036 22.5843 72.2301 23.8153C71.7566 25.0369 71.5199 26.4621 71.5199 28.0909ZM95.9517 9.90909V39H92.5994V9.90909H95.9517ZM111.239 39.4545C109.137 39.4545 107.324 38.9905 105.799 38.0625C104.284 37.125 103.114 35.8182 102.29 34.142C101.476 32.4564 101.069 30.4962 101.069 28.2614C101.069 26.0265 101.476 24.0568 102.29 22.3523C103.114 20.6383 104.26 19.303 105.728 18.3466C107.205 17.3807 108.929 16.8977 110.898 16.8977C112.035 16.8977 113.157 17.0871 114.265 17.4659C115.373 17.8447 116.381 18.4602 117.29 19.3125C118.2 20.1553 118.924 21.2727 119.464 22.6648C120.004 24.0568 120.273 25.7708 120.273 27.8068V29.2273H103.455V26.3295H116.864C116.864 25.0985 116.618 24 116.126 23.0341C115.643 22.0682 114.951 21.3059 114.052 20.7472C113.162 20.1884 112.111 19.9091 110.898 19.9091C109.563 19.9091 108.408 20.2405 107.433 20.9034C106.467 21.5568 105.723 22.4091 105.202 23.4602C104.682 24.5114 104.421 25.6383 104.421 26.8409V28.7727C104.421 30.4205 104.705 31.8172 105.273 32.9631C105.851 34.0994 106.651 34.9659 107.674 35.5625C108.697 36.1496 109.885 36.4432 111.239 36.4432C112.12 36.4432 112.915 36.3201 113.626 36.0739C114.345 35.8182 114.966 35.4394 115.487 34.9375C116.007 34.4261 116.41 33.7917 116.694 33.0341L119.933 33.9432C119.592 35.0417 119.019 36.0076 118.214 36.8409C117.409 37.6648 116.415 38.3087 115.231 38.7727C114.047 39.2273 112.717 39.4545 111.239 39.4545Z" fill="white"/>
<path d="M58.7201 111H73.8929L20.0711 69.6631L20.0114 69.7229V69.6631L17.8012 67.9905H5.04766H1.04537H0V111H9.34862V77.2794H14.7248L58.7201 111Z" fill="white"/>
<path d="M137.183 95.0806C136.705 94.7819 136.227 94.4832 135.719 94.1845H142.828C144.65 94.1845 146.352 93.8261 147.935 93.1392C149.518 92.4522 150.922 91.5263 152.116 90.3316C153.311 89.1369 154.267 87.763 154.954 86.18C155.641 84.597 155.969 82.8945 155.969 81.0427C155.969 79.1909 155.641 77.4884 154.954 75.9054C154.267 74.3224 153.341 72.9485 152.116 71.7538C150.922 70.5591 149.518 69.6332 147.935 68.9462C146.352 68.2593 144.65 67.9009 142.828 67.9009H80.1948V77.369H143.216C144.201 77.369 145.038 77.7274 145.784 78.4442C146.531 79.161 146.89 80.0272 146.89 81.0128C146.89 82.0582 146.501 82.9244 145.784 83.6113C145.038 84.2983 144.172 84.6567 143.216 84.6567H91.5147C89.8123 84.6567 88.289 84.9554 86.8852 85.5826C85.4814 86.2098 84.2569 87.076 83.1816 88.1512C82.1064 89.2265 81.2701 90.5108 80.7026 92.0042C80.1052 93.4677 79.8364 95.0507 79.8364 96.6934V110.91H89.185V97.7687C89.185 96.783 89.4837 95.9766 90.0512 95.3195C90.6486 94.6624 91.3355 94.2741 92.2017 94.1248H94.4418H105.553C107.375 94.1248 109.196 94.2144 110.989 94.5429C115.588 95.3792 120.068 96.8428 124.31 98.8439C126.908 100.068 138.616 107.625 143.634 110.91H161.585C161.585 110.91 138.347 95.7377 137.153 95.0208L137.183 95.0806Z" fill="white"/>
<path d="M221.052 77.4586H246.081V67.9905H201.518H172.576C169.351 67.9905 167.618 70.6488 167.618 72.4408V98.0674C167.618 100.039 167.977 101.801 168.694 103.384C169.41 104.967 170.307 106.311 171.412 107.416C172.517 108.521 173.771 109.417 175.205 110.044C176.638 110.672 178.072 110.97 179.506 110.97H246.111V101.502H179.984C179.058 101.502 178.341 101.263 177.803 100.755C177.236 100.248 176.967 99.6803 176.967 99.0232V77.4288H221.082L221.052 77.4586Z" fill="white"/>
<path d="M473.942 111H489.115L435.323 69.6631L435.263 69.7229V69.6631L433.023 67.9905H420.27H416.267H415.222V111H424.571V77.2794H429.947L473.942 111Z" fill="white"/>
<path d="M409.248 67.9905H399.899V101.652H393.657L351.992 69.6631L351.932 69.7229V69.6631L349.722 67.9905H336.968H332.966H331.92V111H341.269V77.2794H346.645L388.251 109.178L388.281 109.268L390.491 110.94H390.581L390.64 111H404.23H405.813H409.248V67.9905Z" fill="white"/>
<path d="M310.774 111H325.947L272.125 69.6631L272.095 69.7229V69.6631L269.855 67.9905H257.102H253.099H252.054V111H261.403V77.2794H266.779L310.774 111Z" fill="white"/>
</svg>
