<svg width="521" height="606" viewBox="0 0 521 606" fill="none" xmlns="http://www.w3.org/2000/svg">
<path d="M374.496 172.925V259.395L449.405 216.16L374.496 172.925Z" fill="#FCB85E"/>
<path d="M374.371 87.1384V173.608L449.28 130.373L374.371 87.1384Z" fill="#FF6464"/>
<path d="M374.496 259.395L449.405 302.63V216.161L374.496 259.395Z" fill="#FFAA2C"/>
<path d="M374.371 173.608L449.28 216.843V130.373L374.371 173.608Z" fill="#FF4342"/>
<path d="M374.496 345.851L449.405 389.086V302.63L374.496 345.851Z" fill="#FFAA2C"/>
<path d="M374.496 0V86.4697L449.405 43.2348L374.496 0Z" fill="#0D5568"/>
<path d="M374.496 86.4692L449.405 129.69V43.2343L374.496 86.4692Z" fill="#044257"/>
<path d="M449.408 389.086V475.556L524.303 432.321L449.408 389.086Z" fill="#0D5568"/>
<path d="M449.408 475.555L524.303 518.776V432.32L449.408 475.555Z" fill="#044257"/>
<path d="M374.502 259.395L299.607 302.63L374.502 345.851V259.395Z" fill="#FF6464"/>
<path d="M449.405 302.63L374.496 259.395V345.851L449.405 302.63Z" fill="#FF4342"/>
<path d="M149.805 43.5865L74.8965 86.8073L149.805 130.042V43.5865Z" fill="#044257"/>
<path d="M224.695 86.8073L149.801 43.5865V130.042L224.695 86.8073Z" fill="#0D5568"/>
<path d="M449.408 129.69V216.16L524.303 172.925L449.408 129.69Z" fill="#1DCDC3"/>
<path d="M449.408 216.16L524.303 259.395V172.925L449.408 216.16Z" fill="#0D5568"/>
<path d="M449.408 43.2343V129.69L524.303 86.4692L449.408 43.2343Z" fill="#FFAA2C"/>
<path d="M449.408 129.691L524.303 172.926V86.4702L449.408 129.691Z" fill="#37DBCF"/>
<path d="M0 216.16V302.63L74.8944 259.395L0 216.16Z" fill="#FF4342"/>
<path d="M0 216.161L74.8944 259.395V172.926L0 216.161Z" fill="#FF6464"/>
<path d="M449.408 43.2348L524.303 86.4697V0L449.408 43.2348Z" fill="#FCB85E"/>
<path d="M524.303 259.395L449.408 216.161V302.63L524.303 259.395Z" fill="#044257"/>
<path d="M224.697 345.851L299.606 389.086V302.63L224.697 345.851Z" fill="#0D5568"/>
<path d="M299.606 389.086L224.697 345.851V432.321L299.606 389.086Z" fill="#044257"/>
<path d="M299.607 216.16L374.502 259.395V172.925L299.607 216.16Z" fill="#0D5568"/>
<path d="M299.607 302.63L374.502 259.395L299.607 216.161V302.63Z" fill="#044257"/>
<path d="M374.502 345.851L299.607 389.086L374.502 432.321V345.851Z" fill="#1DCDC3"/>
<path d="M299.607 389.086L374.502 345.851L299.607 302.63V389.086Z" fill="#37DBCF"/>
<path d="M149.805 129.69L74.8965 172.925L149.805 216.16V129.69Z" fill="#1DCDC3"/>
<path d="M74.8965 172.926L149.805 129.691L74.8965 86.4702V172.926Z" fill="#37DBCF"/>
<path d="M524.303 518.776L449.408 562.011L524.303 605.245V518.776Z" fill="#1DCDC3"/>
<path d="M449.408 562.01L524.303 518.776L449.408 475.555V562.01Z" fill="#37DBCF"/>
<path d="M299.607 129.691L374.502 172.926V86.4702L299.607 129.691Z" fill="#37DBCF"/>
<path d="M299.607 216.16L374.502 172.925L299.607 129.69V216.16Z" fill="#1DCDC3"/>
<path d="M299.606 129.69L224.697 172.925L299.606 216.16V129.69Z" fill="#FFAA2C"/>
<path d="M298.264 214.27L223.355 257.504L298.264 300.739V214.27Z" fill="#FFAA2C"/>
<path d="M224.697 172.926L299.606 129.691L224.697 86.4702V172.926Z" fill="#FCB85E"/>
<path d="M223.355 257.505L298.264 214.27L223.355 171.049V257.505Z" fill="#FCB85E"/>
<path d="M225.914 174.277L148.458 130.701L225.914 87.1384V174.277Z" fill="#37DBCF"/>
<path d="M149.805 216.161L74.8965 259.395L149.805 302.63V216.161Z" fill="#FFAA2C"/>
<path d="M74.8965 259.395L149.805 216.16L74.8965 172.925V259.395Z" fill="#FCB85E"/>
<path d="M224.695 172.925L149.801 216.16L224.695 259.395V172.925Z" fill="#FF4342"/>
<path d="M223.351 257.505L148.457 300.74L223.351 343.974V257.505Z" fill="#FF4342"/>
<path d="M149.801 216.16L224.695 172.925L149.801 129.69V216.16Z" fill="#FF6464"/>
<path d="M148.457 300.739L223.351 257.504L148.457 214.27V300.739Z" fill="#FF6464"/>
<path d="M524.303 345.851L449.408 389.086L524.303 432.321V345.851Z" fill="#FF4342"/>
<path d="M449.408 389.086L524.303 345.851L449.408 302.63V389.086Z" fill="#FF6464"/>
</svg>
